<svg width="24" height="24" viewBox="0 0 24 24" fill="none" xmlns="http://www.w3.org/2000/svg">
<path fill-rule="evenodd" clip-rule="evenodd" d="M8.41002 22H20C21.1 22 22 21.1 22 20V8.39C22 7.5 20.92 7.05 20.29 7.68L7.70002 20.29C7.07002 20.92 7.52002 22 8.41002 22Z" fill="black"/>
<path fill-rule="evenodd" clip-rule="evenodd" d="M7.70996 20.29C7.07996 20.92 7.51996 22 8.40996 22H18V9.97997L7.70996 20.29ZM9.06996 11.07L11 13L12.93 11.07C11.86 10.01 10.14 10.01 9.06996 11.07V11.07ZM8.36996 9.29997C9.93996 8.17997 12.07 8.17997 13.64 9.29997C14 9.55997 14.49 9.51997 14.8 9.19997C15.19 8.80997 15.15 8.13997 14.7 7.81997C12.5 6.24997 9.50996 6.24997 7.29996 7.81997C6.84996 8.13997 6.79996 8.80997 7.19996 9.19997C7.51996 9.51997 8.00996 9.55997 8.36996 9.29997ZM16.21 6.68997C16.55 6.96997 17.04 6.96997 17.35 6.65997L17.47 6.53997C17.82 6.18997 17.78 5.61997 17.39 5.29997C13.72 2.24997 8.36996 2.22997 4.68996 5.23997C4.25996 5.58997 4.21996 6.22997 4.60996 6.60997C4.92996 6.93997 5.44996 6.97997 5.79996 6.68997C8.80996 4.20997 13.2 4.20997 16.21 6.68997V6.68997Z" fill="black"/>
</svg>
