<svg width="24" height="24" viewBox="0 0 24 24" fill="none" xmlns="http://www.w3.org/2000/svg">
<path fill-rule="evenodd" clip-rule="evenodd" d="M0.70998 2.38997C0.31998 2.77997 0.31998 3.40997 0.70998 3.79997L1.99998 5.09997V19C1.99998 20.1 2.89998 21 3.99998 21H17.9L20.19 23.29C20.58 23.68 21.21 23.68 21.6 23.29C21.99 22.9 21.99 22.27 21.6 21.88L2.11998 2.38997C1.72998 1.99997 1.09998 1.99997 0.70998 2.38997ZM5.99998 19H3.99998V17H5.99998V19ZM5.99998 15H3.99998V13H5.99998V15ZM3.99998 11V8.99997H5.99998V11H3.99998ZM9.99998 19H7.99998V17H9.99998V19ZM7.99998 15V13H9.99998V15H7.99998ZM12 19V17H13.9L15.9 19H12ZM7.99998 4.99997H9.99998V6.99997H9.54998L12 9.44997V8.99997H19C19.55 8.99997 20 9.44997 20 9.99997V17.45L22 19.45V8.99997C22 7.89997 21.1 6.99997 20 6.99997H12V4.99997C12 3.89997 11.1 2.99997 9.99998 2.99997H5.54998L7.99998 5.44997V4.99997ZM16 11H18V13H16V11Z" fill="black"/>
</svg>
