<svg width="24" height="24" viewBox="0 0 24 24" fill="none" xmlns="http://www.w3.org/2000/svg">
<path fill-rule="evenodd" clip-rule="evenodd" d="M21.9851 4.93785C21.9908 4.94253 21.9958 4.94659 22 4.95L16.5 12L11 4.95C11.0046 4.94624 11.0102 4.9417 11.0167 4.93641C11.3037 4.70223 13.3902 3 16.5 3C19.6064 3 21.7045 4.70929 21.9851 4.93785ZM16.66 14.9898L19.2 15.2798C20.21 15.3998 20.97 16.2498 20.97 17.2698V18.9998C20.97 20.1298 20.03 21.0698 18.9 20.9998C10.36 20.4698 3.53001 13.6398 3.00001 5.09979C2.93001 3.96979 3.87001 3.02979 5.00001 3.02979H6.73001C7.75001 3.02979 8.60001 3.78979 8.72001 4.79979L9.01001 7.31979C9.08001 7.91979 8.87001 8.52979 8.44001 8.95979L6.59001 10.8098C8.03001 13.6498 10.35 15.9598 13.18 17.3998L15.02 15.5598C15.45 15.1298 16.05 14.9198 16.66 14.9898Z" fill="black"/>
</svg>
