<svg width="644" height="179" viewBox="0 0 644 179" fill="none" xmlns="http://www.w3.org/2000/svg">
<path d="M151.72 122.564V52.9893H164.442L197.142 101.99V52.9893H209.864V122.564H197.142L164.442 73.6629V122.564H151.72Z" fill="white"/>
<path d="M242.038 123.757C237.068 123.757 232.662 122.697 228.819 120.576C224.976 118.456 221.961 115.474 219.774 111.631C217.587 107.788 216.494 103.348 216.494 98.3123C216.494 93.2101 217.554 88.6712 219.675 84.6955C221.861 80.7198 224.843 77.6386 228.62 75.452C232.463 73.1991 236.969 72.0726 242.137 72.0726C246.975 72.0726 251.248 73.1328 254.959 75.2532C258.67 77.3736 261.552 80.2891 263.606 83.9997C265.727 87.6441 266.787 91.7192 266.787 96.225C266.787 96.9539 266.754 97.7159 266.687 98.5111C266.687 99.3062 266.654 100.134 266.588 100.996H229.117C229.382 104.839 230.707 107.854 233.093 110.041C235.544 112.227 238.493 113.321 241.939 113.321C244.523 113.321 246.676 112.757 248.399 111.631C250.188 110.438 251.513 108.914 252.375 107.059H265.296C264.368 110.173 262.811 113.022 260.624 115.607C258.504 118.125 255.854 120.112 252.673 121.57C249.559 123.028 246.014 123.757 242.038 123.757ZM242.137 82.4095C239.023 82.4095 236.273 83.304 233.888 85.0931C231.502 86.8159 229.978 89.4663 229.316 93.0445H253.866C253.667 89.7976 252.474 87.2134 250.288 85.2918C248.101 83.3703 245.384 82.4095 242.137 82.4095Z" fill="white"/>
<path d="M264.449 122.564L282.339 97.9147L264.449 73.2653H278.066L290.589 90.7584L303.013 73.2653H316.729L298.739 97.9147L316.729 122.564H303.013L290.589 105.071L278.066 122.564H264.449Z" fill="white"/>
<path d="M341.831 122.564C336.662 122.564 332.521 121.305 329.406 118.787C326.292 116.269 324.735 111.797 324.735 105.369V83.9004H316.287V73.2653H324.735L326.226 60.0461H337.457V73.2653H350.776V83.9004H337.457V105.469C337.457 107.854 337.954 109.511 338.948 110.438C340.008 111.3 341.797 111.73 344.315 111.73H350.478V122.564H341.831Z" fill="white"/>
<path d="M356.729 122.564V73.2653H367.961L369.054 79.9246C370.644 77.5392 372.732 75.6508 375.316 74.2593C377.966 72.8015 381.014 72.0726 384.46 72.0726C392.08 72.0726 397.48 75.0213 400.661 80.9186C402.45 78.2018 404.835 76.0483 407.817 74.4581C410.865 72.8678 414.178 72.0726 417.756 72.0726C424.184 72.0726 429.12 73.9942 432.566 77.8374C436.011 81.6806 437.734 87.3128 437.734 94.7341V122.564H425.012V95.9269C425.012 91.6861 424.184 88.4393 422.527 86.1864C420.937 83.9335 418.452 82.807 415.073 82.807C411.627 82.807 408.844 84.066 406.724 86.5839C404.67 89.1019 403.643 92.6138 403.643 97.1196V122.564H390.92V95.9269C390.92 91.6861 390.092 88.4393 388.436 86.1864C386.779 83.9335 384.228 82.807 380.782 82.807C377.403 82.807 374.653 84.066 372.533 86.5839C370.479 89.1019 369.452 92.6138 369.452 97.1196V122.564H356.729Z" fill="white"/>
<path d="M468.499 123.757C463.728 123.757 459.421 122.663 455.578 120.477C451.801 118.29 448.786 115.275 446.533 111.432C444.346 107.523 443.253 103.017 443.253 97.9147C443.253 92.8125 444.379 88.3399 446.632 84.4967C448.885 80.5873 451.9 77.5392 455.677 75.3526C459.52 73.166 463.827 72.0726 468.598 72.0726C473.303 72.0726 477.543 73.166 481.32 75.3526C485.163 77.5392 488.178 80.5873 490.365 84.4967C492.618 88.3399 493.744 92.8125 493.744 97.9147C493.744 103.017 492.618 107.523 490.365 111.432C488.178 115.275 485.163 118.29 481.32 120.477C477.477 122.663 473.203 123.757 468.499 123.757ZM468.499 112.724C471.812 112.724 474.694 111.498 477.146 109.047C479.597 106.529 480.823 102.818 480.823 97.9147C480.823 93.0113 479.597 89.3338 477.146 86.8821C474.694 84.3642 471.845 83.1052 468.598 83.1052C465.219 83.1052 462.303 84.3642 459.851 86.8821C457.466 89.3338 456.273 93.0113 456.273 97.9147C456.273 102.818 457.466 106.529 459.851 109.047C462.303 111.498 465.186 112.724 468.499 112.724Z" fill="white"/>
<path d="M511.042 122.564L492.952 73.2653H506.271L518.794 110.538L531.318 73.2653H544.636L526.448 122.564H511.042Z" fill="white"/>
<path d="M569.218 123.757C564.249 123.757 559.842 122.697 555.999 120.576C552.156 118.456 549.141 115.474 546.954 111.631C544.768 107.788 543.674 103.348 543.674 98.3123C543.674 93.2101 544.735 88.6712 546.855 84.6955C549.042 80.7198 552.023 77.6386 555.8 75.452C559.643 73.1991 564.149 72.0726 569.318 72.0726C574.155 72.0726 578.429 73.1328 582.139 75.2532C585.85 77.3736 588.732 80.2891 590.786 83.9997C592.907 87.6441 593.967 91.7192 593.967 96.225C593.967 96.9539 593.934 97.7159 593.868 98.5111C593.868 99.3062 593.834 100.134 593.768 100.996H556.297C556.562 104.839 557.888 107.854 560.273 110.041C562.725 112.227 565.673 113.321 569.119 113.321C571.703 113.321 573.857 112.757 575.579 111.631C577.368 110.438 578.694 108.914 579.555 107.059H592.476C591.548 110.173 589.991 113.022 587.805 115.607C585.684 118.125 583.034 120.112 579.853 121.57C576.739 123.028 573.194 123.757 569.218 123.757ZM569.318 82.4095C566.203 82.4095 563.453 83.304 561.068 85.0931C558.683 86.8159 557.159 89.4663 556.496 93.0445H581.046C580.847 89.7976 579.654 87.2134 577.468 85.2918C575.281 83.3703 572.564 82.4095 569.318 82.4095Z" fill="white"/>
<path d="M88.9863 51.6367V83.0889C88.9863 86.6788 86.0762 89.5889 82.4863 89.5889L51.0341 89.5889L51.0341 76.5889H66.7764L50.2363 60.0488L59.4287 50.8564L75.9863 67.4141L75.9863 51.6367L88.9863 51.6367Z" fill="white"/>
<path d="M127.383 90.0347H95.9307C92.3408 90.0347 89.4307 92.9448 89.4307 96.5347V127.987L102.431 127.987L102.431 112.243L118.972 128.784L128.164 119.592L111.607 103.035H127.383V90.0347Z" fill="white"/>
</svg>
