<svg width="451" height="165" viewBox="0 0 451 165" fill="none" xmlns="http://www.w3.org/2000/svg">
<path d="M162.589 107.972C157.528 107.972 153.054 106.978 149.167 104.989C145.28 102.955 142.275 100.086 140.151 96.3798C138.027 92.6739 136.965 88.3128 136.965 83.2964C136.965 78.2799 138.027 73.9188 140.151 70.213C142.275 66.4619 145.28 63.5922 149.167 61.6037C153.054 59.57 157.528 58.5531 162.589 58.5531C166.024 58.5531 169.052 58.9147 171.673 59.6378C174.34 60.3157 176.78 61.4003 178.994 62.8917V72.7212C177.006 71.0942 174.724 69.9192 172.148 69.1961C169.617 68.4278 166.725 68.0437 163.471 68.0437C160.443 68.0437 157.708 68.6764 155.268 69.9418C152.873 71.162 150.975 72.9245 149.574 75.2294C148.173 77.5342 147.472 80.2232 147.472 83.2964C147.472 86.4147 148.105 89.1489 149.37 91.4989C150.681 93.8038 152.511 95.5889 154.861 96.8543C157.211 98.1197 159.923 98.7524 162.996 98.7524C165.798 98.7524 168.238 98.2553 170.317 97.261V88.1094H162.657V80.517H180.282V103.362C175.808 106.435 169.911 107.972 162.589 107.972Z" fill="white"/>
<path d="M182.662 74.4159H192.559V79.0934C193.87 77.5117 195.7 76.314 198.05 75.5006C200.4 74.6419 203.067 74.2126 206.049 74.2126V82.0084C202.931 82.0084 200.174 82.4829 197.779 83.4319C195.429 84.381 193.802 85.8272 192.898 87.7705V106.955H182.662V74.4159Z" fill="white"/>
<path d="M225.721 107.972C219.484 107.972 214.58 106.48 211.01 103.498C207.44 100.47 205.655 96.2442 205.655 90.821C205.655 85.443 207.237 81.1949 210.4 78.0766C213.609 74.9582 218.173 73.3991 224.094 73.3991C227.98 73.3991 231.279 74.1222 233.991 75.5683C236.702 77.0145 238.759 79.0256 240.16 81.6016C241.561 84.1324 242.261 87.0022 242.261 90.2109V94.3461H215.417C216.14 98.5039 220.026 100.583 227.076 100.583C229.155 100.583 231.302 100.402 233.516 100.04C235.731 99.6789 237.652 99.1817 239.279 98.549V105.735C237.697 106.413 235.663 106.955 233.177 107.362C230.692 107.768 228.206 107.972 225.721 107.972ZM232.567 87.7027C232.432 85.5334 231.618 83.8613 230.127 82.6863C228.636 81.466 226.579 80.8559 223.958 80.8559C221.382 80.8559 219.348 81.466 217.857 82.6863C216.366 83.9065 215.552 85.5786 215.417 87.7027H232.567Z" fill="white"/>
<path d="M263.243 107.972C257.007 107.972 252.103 106.48 248.533 103.498C244.963 100.47 243.177 96.2442 243.177 90.821C243.177 85.443 244.759 81.1949 247.923 78.0766C251.131 74.9582 255.696 73.3991 261.616 73.3991C265.503 73.3991 268.802 74.1222 271.514 75.5683C274.225 77.0145 276.281 79.0256 277.682 81.6016C279.083 84.1324 279.784 87.0022 279.784 90.2109V94.3461H252.939C253.662 98.5039 257.549 100.583 264.599 100.583C266.678 100.583 268.825 100.402 271.039 100.04C273.253 99.6789 275.174 99.1817 276.801 98.549V105.735C275.219 106.413 273.186 106.955 270.7 107.362C268.214 107.768 265.729 107.972 263.243 107.972ZM270.09 87.7027C269.954 85.5334 269.141 83.8613 267.65 82.6863C266.158 81.466 264.102 80.8559 261.481 80.8559C258.905 80.8559 256.871 81.466 255.38 82.6863C253.888 83.9065 253.075 85.5786 252.939 87.7027H270.09Z" fill="white"/>
<path d="M282.056 74.4159H291.953V78.4155C293.445 76.7434 295.207 75.5006 297.241 74.6871C299.32 73.8284 301.489 73.3991 303.749 73.3991C308.178 73.3991 311.477 74.5967 313.646 76.9919C315.86 79.342 316.968 82.5281 316.968 86.5503V106.955H306.731V87.7027C306.731 83.4997 304.788 81.3983 300.901 81.3983C299.184 81.3983 297.58 81.8276 296.088 82.6863C294.597 83.4997 293.332 84.72 292.292 86.3469V106.955H282.056V74.4159Z" fill="white"/>
<path d="M325.999 69.3995C324.418 69.3995 323.085 68.8798 322 67.8403C320.915 66.8009 320.373 65.4903 320.373 63.9085C320.373 62.372 320.915 61.084 322 60.0445C323.085 58.9599 324.418 58.4176 325.999 58.4176C327.581 58.4176 328.914 58.9599 329.999 60.0445C331.084 61.084 331.626 62.372 331.626 63.9085C331.626 65.4903 331.084 66.8009 329.999 67.8403C328.914 68.8798 327.581 69.3995 325.999 69.3995ZM320.847 74.4159H331.152V106.955H320.847V74.4159Z" fill="white"/>
<path d="M348.609 107.972C346.169 107.972 343.548 107.701 340.746 107.158C337.989 106.661 335.82 105.938 334.238 104.989V96.9899C336.046 98.0745 338.215 98.9558 340.746 99.6337C343.277 100.312 345.627 100.651 347.796 100.651C349.649 100.651 351.005 100.492 351.863 100.176C352.722 99.8596 353.151 99.2721 353.151 98.4135C353.151 97.7356 352.903 97.1933 352.406 96.7865C351.909 96.3346 351.14 95.9504 350.101 95.6341C349.107 95.2725 347.434 94.7528 345.084 94.0749C342.328 93.2615 340.158 92.448 338.577 91.6345C337.04 90.7758 335.865 89.7138 335.052 88.4484C334.283 87.183 333.899 85.556 333.899 83.5675C333.899 80.178 335.232 77.6472 337.899 75.9751C340.61 74.2577 344.271 73.3991 348.881 73.3991C351.14 73.3991 353.468 73.6476 355.863 74.1448C358.303 74.5967 360.179 75.2068 361.49 75.9751V83.7709C360.179 82.9122 358.462 82.2117 356.337 81.6694C354.259 81.1271 352.225 80.8559 350.236 80.8559C348.383 80.8559 346.937 81.0367 345.898 81.3983C344.904 81.7598 344.406 82.4377 344.406 83.4319C344.406 84.2906 344.881 84.9459 345.83 85.3979C346.824 85.8498 348.655 86.4147 351.321 87.0926L352.677 87.4315C355.524 88.1998 357.738 89.0585 359.32 90.0075C360.902 90.9114 362.009 92.0186 362.642 93.3292C363.32 94.5946 363.659 96.199 363.659 98.1423C363.659 101.125 362.371 103.52 359.795 105.328C357.219 107.091 353.49 107.972 348.609 107.972Z" fill="white"/>
<path d="M366.025 56.8584H376.261V78.1444C377.798 76.5626 379.538 75.3876 381.481 74.6193C383.424 73.8058 385.503 73.3991 387.718 73.3991C392.147 73.3991 395.446 74.5967 397.615 76.9919C399.829 79.342 400.937 82.5281 400.937 86.5503V106.955H390.701V87.7027C390.701 83.4997 388.757 81.3983 384.871 81.3983C383.153 81.3983 381.549 81.8276 380.058 82.6863C378.566 83.4997 377.301 84.72 376.261 86.3469V106.955H366.025V56.8584Z" fill="white"/>
<path fill-rule="evenodd" clip-rule="evenodd" d="M102.006 66.45C102.006 75.061 95.0259 82.0416 86.4149 82.0416C77.8038 82.0416 70.8232 75.061 70.8232 66.45C70.8232 57.839 77.8038 50.8584 86.4149 50.8584C95.0259 50.8584 102.006 57.839 102.006 66.45ZM50.1475 80.9085C67.1342 79.7635 81.9386 92.4814 83.3176 109.504C83.4605 111.268 83.4536 113.01 83.3077 114.716C66.321 115.861 51.5166 103.143 50.1376 86.1206C49.9948 84.3567 50.0016 82.6151 50.1475 80.9085ZM94.2984 114.12C111.321 112.741 124.039 97.9369 122.894 80.9502C121.187 80.8043 119.446 80.7975 117.682 80.9404C100.659 82.3193 87.9413 97.1237 89.0863 114.11C90.7929 114.256 92.5344 114.263 94.2984 114.12Z" fill="white"/>
</svg>
