<svg width="451" height="178" viewBox="0 0 451 178" fill="none" xmlns="http://www.w3.org/2000/svg">
<path fill-rule="evenodd" clip-rule="evenodd" d="M63.1731 69.503C69.0583 61.5869 78.4825 56.4583 89.1045 56.4583C99.7889 56.4583 109.261 61.6474 115.139 69.6429C114.889 69.9002 114.661 70.1668 114.455 70.4331C113.378 71.8274 112.568 73.6234 111.919 75.4472C110.612 79.1153 109.615 83.9066 108.692 88.3933L108.61 88.7967C107.689 93.2751 106.833 97.4401 105.798 100.532C105.333 101.921 104.892 102.903 104.501 103.532C104.093 102.898 103.63 101.904 103.14 100.495C102.033 97.3144 101.102 92.9882 100.115 88.3689L100.083 88.2176L100.083 88.2175C99.1346 83.7805 98.1285 79.0727 96.8741 75.4691C96.2439 73.6589 95.4706 71.8809 94.4593 70.4995C93.4667 69.1438 91.8145 67.6138 89.3981 67.6138C86.9968 67.6138 85.337 69.1272 84.3301 70.4677C83.2992 71.8401 82.4955 73.6108 81.8334 75.4219C80.5001 79.069 79.41 83.8397 78.3955 88.3325L78.2907 88.7967L78.2907 88.7967C77.2861 93.2473 76.347 97.4082 75.281 100.506C74.874 101.689 74.49 102.589 74.1424 103.232C73.8027 102.592 73.4283 101.698 73.0324 100.525C72.0097 97.4932 71.1138 93.4488 70.1516 89.1048L69.9832 88.3446C68.9862 83.849 67.9046 79.0697 66.5523 75.4112C65.8804 73.5933 65.0586 71.8138 63.9951 70.4349C63.7543 70.1228 63.4806 69.806 63.1731 69.503ZM59.6112 75.5813C59.8915 76.1348 60.188 76.8208 60.4946 77.6503C61.6651 80.817 62.6568 85.1381 63.678 89.7429L63.8767 90.6401C64.8065 94.8418 65.7737 99.2124 66.9129 102.589C67.5188 104.385 68.2505 106.144 69.1916 107.511C70.0815 108.804 71.678 110.474 74.1329 110.474C76.5807 110.474 78.181 108.812 79.077 107.525C80.0261 106.161 80.7698 104.404 81.388 102.607C82.573 99.1635 83.5819 94.6904 84.5475 90.4096L84.5475 90.4093L84.6952 89.755C85.7356 85.1474 86.7371 80.8177 87.8991 77.6395C88.4374 76.167 88.9414 75.1412 89.3801 74.5048C89.796 75.1357 90.271 76.1452 90.7748 77.5924C91.882 80.7731 92.8122 85.0993 93.7994 89.7186L93.8317 89.8699L93.8317 89.8699C94.7799 94.3069 95.786 99.0148 97.0404 102.618C97.6706 104.429 98.4439 106.207 99.4552 107.588C100.448 108.944 102.1 110.474 104.516 110.474C106.945 110.474 108.591 108.93 109.572 107.562C110.568 106.174 111.317 104.39 111.922 102.582C113.085 99.1093 114.01 94.6033 114.891 90.3167L114.891 90.3166L115.018 89.6942C115.967 85.0805 116.878 80.7714 118.003 77.6142C118.247 76.9274 118.487 76.3418 118.716 75.8499C120.44 79.801 121.396 84.1639 121.396 88.75C121.396 106.584 106.939 121.042 89.1045 121.042C71.2703 121.042 56.8128 106.584 56.8128 88.75C56.8128 84.0597 57.8128 79.6029 59.6112 75.5813ZM89.1045 50C67.7035 50 50.3545 67.349 50.3545 88.75C50.3545 110.151 67.7035 127.5 89.1045 127.5C110.506 127.5 127.854 110.151 127.854 88.75C127.854 67.349 110.506 50 89.1045 50ZM89.8427 73.9642C89.8427 73.965 89.8352 73.971 89.8201 73.9798C89.8351 73.9678 89.8427 73.9634 89.8427 73.9642ZM88.9501 73.9686C88.9351 73.9594 88.9277 73.9531 88.9277 73.9523C88.9277 73.9515 88.9352 73.9561 88.9501 73.9686ZM104.025 104.145C104.025 104.145 104.032 104.138 104.046 104.129C104.032 104.141 104.025 104.146 104.025 104.145ZM104.964 104.119C104.979 104.128 104.987 104.134 104.987 104.135C104.987 104.136 104.979 104.131 104.964 104.119ZM73.4711 104.203C73.471 104.202 73.4803 104.193 73.4989 104.18C73.4805 104.197 73.4711 104.204 73.4711 104.203ZM74.779 104.186C74.7975 104.199 74.8067 104.208 74.8067 104.209C74.8066 104.21 74.7973 104.204 74.779 104.186Z" fill="white"/>
<path d="M149.251 111.691L139.854 79.5479H148.085L153.658 102.683L160.138 79.5479H169.34L175.821 102.683L181.459 79.5479H189.689L180.228 111.691H171.609L164.739 87.6485L157.87 111.691H149.251Z" fill="white"/>
<path d="M201.766 112.469C199.001 112.469 196.733 112.036 194.962 111.172C193.191 110.265 191.873 109.077 191.009 107.608C190.145 106.139 189.713 104.519 189.713 102.748C189.713 99.7669 190.879 97.3475 193.212 95.4898C195.545 93.6321 199.045 92.7032 203.711 92.7032H211.876V91.9255C211.876 89.7222 211.249 88.1021 209.997 87.0652C208.744 86.0283 207.188 85.5099 205.331 85.5099C203.646 85.5099 202.177 85.9203 200.924 86.7412C199.671 87.5189 198.893 88.6853 198.591 90.2406H190.49C190.707 87.9077 191.484 85.8771 192.823 84.149C194.206 82.4209 195.977 81.1032 198.137 80.196C200.298 79.2455 202.717 78.7703 205.395 78.7703C209.975 78.7703 213.582 79.9151 216.218 82.2049C218.853 84.4946 220.171 87.7349 220.171 91.9255V111.691H213.107L212.33 106.507C211.379 108.235 210.04 109.66 208.312 110.784C206.627 111.907 204.445 112.469 201.766 112.469ZM203.646 105.988C206.022 105.988 207.858 105.21 209.154 103.655C210.493 102.1 211.336 100.177 211.682 97.8875H204.618C202.414 97.8875 200.838 98.298 199.887 99.1188C198.937 99.8965 198.461 100.869 198.461 102.035C198.461 103.288 198.937 104.26 199.887 104.951C200.838 105.642 202.09 105.988 203.646 105.988Z" fill="white"/>
<path d="M233.229 111.691L221.435 79.5479H230.118L238.284 103.85L246.449 79.5479H255.133L243.274 111.691H233.229Z" fill="white"/>
<path d="M271.808 112.469C268.568 112.469 265.695 111.777 263.189 110.395C260.684 109.012 258.718 107.068 257.292 104.562C255.866 102.057 255.154 99.162 255.154 95.8786C255.154 92.552 255.845 89.5926 257.227 87.0004C258.653 84.4082 260.597 82.3993 263.06 80.9736C265.565 79.5047 268.503 78.7703 271.873 78.7703C275.027 78.7703 277.814 79.4615 280.233 80.844C282.652 82.2265 284.532 84.1274 285.871 86.5468C287.253 88.9229 287.945 91.5799 287.945 94.5177C287.945 94.993 287.923 95.4898 287.88 96.0082C287.88 96.5267 287.858 97.0667 287.815 97.6283H263.384C263.557 100.134 264.421 102.1 265.976 103.526C267.574 104.951 269.497 105.664 271.744 105.664C273.428 105.664 274.833 105.297 275.956 104.562C277.122 103.785 277.986 102.791 278.548 101.581H286.973C286.368 103.612 285.352 105.47 283.927 107.155C282.544 108.796 280.816 110.092 278.742 111.043C276.712 111.993 274.4 112.469 271.808 112.469ZM271.873 85.5099C269.843 85.5099 268.05 86.0932 266.494 87.2596C264.939 88.3829 263.945 90.111 263.513 92.444H279.52C279.39 90.327 278.613 88.6421 277.187 87.3892C275.761 86.1364 273.99 85.5099 271.873 85.5099Z" fill="white"/>
<path d="M292.329 111.691V65.0317H300.624V111.691H292.329Z" fill="white"/>
<path d="M322.125 112.469C318.885 112.469 316.012 111.777 313.506 110.395C311.001 109.012 309.035 107.068 307.609 104.562C306.183 102.057 305.471 99.162 305.471 95.8786C305.471 92.552 306.162 89.5926 307.544 87.0004C308.97 84.4082 310.914 82.3993 313.377 80.9736C315.883 79.5047 318.82 78.7703 322.19 78.7703C325.344 78.7703 328.131 79.4615 330.55 80.844C332.969 82.2265 334.849 84.1274 336.188 86.5468C337.57 88.9229 338.262 91.5799 338.262 94.5177C338.262 94.993 338.24 95.4898 338.197 96.0082C338.197 96.5267 338.175 97.0667 338.132 97.6283H313.701C313.874 100.134 314.738 102.1 316.293 103.526C317.891 104.951 319.814 105.664 322.061 105.664C323.745 105.664 325.15 105.297 326.273 104.562C327.439 103.785 328.303 102.791 328.865 101.581H337.29C336.685 103.612 335.669 105.47 334.244 107.155C332.861 108.796 331.133 110.092 329.059 111.043C327.029 111.993 324.718 112.469 322.125 112.469ZM322.19 85.5099C320.16 85.5099 318.367 86.0932 316.811 87.2596C315.256 88.3829 314.262 90.111 313.83 92.444H329.837C329.707 90.327 328.93 88.6421 327.504 87.3892C326.078 86.1364 324.307 85.5099 322.19 85.5099Z" fill="white"/>
<path d="M355.931 112.469C353.08 112.469 350.574 112.015 348.414 111.108C346.253 110.157 344.525 108.861 343.229 107.219C341.933 105.578 341.156 103.677 340.896 101.517H349.256C349.515 102.769 350.207 103.85 351.33 104.757C352.496 105.621 353.987 106.053 355.801 106.053C357.616 106.053 358.934 105.686 359.754 104.951C360.618 104.217 361.05 103.374 361.05 102.424C361.05 101.041 360.446 100.112 359.236 99.6373C358.026 99.1188 356.341 98.622 354.181 98.1468C352.799 97.8443 351.395 97.4771 349.969 97.0451C348.543 96.6131 347.226 96.073 346.016 95.425C344.849 94.7337 343.899 93.8697 343.164 92.8328C342.43 91.7527 342.063 90.435 342.063 88.8797C342.063 86.0283 343.186 83.6306 345.433 81.6865C347.722 79.7423 350.919 78.7703 355.024 78.7703C358.826 78.7703 361.85 79.6559 364.096 81.4272C366.386 83.1986 367.747 85.6395 368.179 88.7501H360.338C359.862 86.374 358.069 85.1859 354.959 85.1859C353.404 85.1859 352.194 85.4883 351.33 86.0932C350.509 86.698 350.099 87.454 350.099 88.3613C350.099 89.3118 350.725 90.0678 351.978 90.6295C353.231 91.1911 354.894 91.7095 356.968 92.1848C359.214 92.7032 361.266 93.2864 363.124 93.9345C365.025 94.5393 366.537 95.4682 367.661 96.7211C368.784 97.9307 369.345 99.6805 369.345 101.97C369.389 103.958 368.87 105.75 367.79 107.349C366.71 108.947 365.155 110.2 363.124 111.108C361.094 112.015 358.696 112.469 355.931 112.469Z" fill="white"/>
<path d="M387.386 112.469C384.535 112.469 382.029 112.015 379.869 111.108C377.709 110.157 375.981 108.861 374.685 107.219C373.389 105.578 372.611 103.677 372.352 101.517H380.712C380.971 102.769 381.662 103.85 382.785 104.757C383.952 105.621 385.442 106.053 387.257 106.053C389.071 106.053 390.389 105.686 391.21 104.951C392.074 104.217 392.506 103.374 392.506 102.424C392.506 101.041 391.901 100.112 390.691 99.6373C389.482 99.1188 387.797 98.622 385.637 98.1468C384.254 97.8443 382.85 97.4771 381.424 97.0451C379.999 96.6131 378.681 96.073 377.471 95.425C376.305 94.7337 375.354 93.8697 374.62 92.8328C373.885 91.7527 373.518 90.435 373.518 88.8797C373.518 86.0283 374.642 83.6306 376.888 81.6865C379.178 79.7423 382.375 78.7703 386.479 78.7703C390.281 78.7703 393.305 79.6559 395.552 81.4272C397.841 83.1986 399.202 85.6395 399.634 88.7501H391.793C391.318 86.374 389.525 85.1859 386.414 85.1859C384.859 85.1859 383.649 85.4883 382.785 86.0932C381.964 86.698 381.554 87.454 381.554 88.3613C381.554 89.3118 382.18 90.0678 383.433 90.6295C384.686 91.1911 386.349 91.7095 388.423 92.1848C390.67 92.7032 392.722 93.2864 394.58 93.9345C396.481 94.5393 397.993 95.4682 399.116 96.7211C400.239 97.9307 400.801 99.6805 400.801 101.97C400.844 103.958 400.326 105.75 399.246 107.349C398.165 108.947 396.61 110.2 394.58 111.108C392.549 112.015 390.151 112.469 387.386 112.469Z" fill="white"/>
</svg>
