<svg width="24" height="24" viewBox="0 0 24 24" fill="none" xmlns="http://www.w3.org/2000/svg">
<path fill-rule="evenodd" clip-rule="evenodd" d="M18 6.54004C16.8954 6.54004 16 5.64461 16 4.54004C16 3.43547 16.8954 2.54004 18 2.54004C19.1046 2.54004 20 3.43547 20 4.54004C20 5.64461 19.1046 6.54004 18 6.54004ZM15 17C15 19.76 12.76 22 10 22C7.24 22 5 19.76 5 17C5 14.24 7.24 12 10 12V14C8.35 14 7 15.35 7 17C7 18.65 8.35 20 10 20C11.65 20 13 18.65 13 17H15ZM18 13.5C19.1 13.5 20 14.4 20 15.5V20C20 20.55 19.55 21 19 21C18.45 21 18 20.55 18 20V16H13.02C11.56 16 10.57 14.43 11.17 13.1L13 9.00004H10.79L10.49 9.71004C10.29 10.18 9.78 10.43 9.29 10.29C8.72 10.13 8.4 9.52004 8.61 8.96004L8.89 8.20004C9.22 7.47004 9.95 7.00004 10.76 7.00004H15.96C17.44 7.00004 18.42 8.50004 17.81 9.83004L16.14 13.5H18Z" fill="#969696"/>
</svg>
