<svg width="24" height="24" viewBox="0 0 24 24" fill="none" xmlns="http://www.w3.org/2000/svg">
<path fill-rule="evenodd" clip-rule="evenodd" d="M10.04 6.29004C10.66 6.11004 11.32 6.00004 12 6.00004C15.86 6.00004 19 9.14004 19 13C19 13.68 18.89 14.34 18.71 14.96L20.27 16.52C20.74 15.44 21 14.25 21 13C21 8.03004 16.97 4.00004 12 4.00004C10.75 4.00004 9.56001 4.26004 8.47001 4.72004L10.04 6.29004V6.29004ZM3.71001 2.79004C3.33001 2.41004 2.71001 2.41004 2.32001 2.79004L2.30001 2.82004C1.91001 3.21004 1.91001 3.83004 2.30001 4.21004L2.98001 4.89004L2.81001 5.03004C2.39001 5.37004 2.34001 5.99004 2.68001 6.41004L2.71001 6.44004C3.06001 6.86004 3.67001 6.91004 4.09001 6.56004L4.40001 6.31004L5.20001 7.11004C3.83001 8.69004 3.00001 10.75 3.00001 13C3.00001 17.97 7.03001 22 12 22C14.25 22 16.31 21.17 17.89 19.8L19.3 21.21C19.68 21.59 20.3 21.59 20.69 21.21L20.72 21.18C21.1 20.8 21.1 20.18 20.72 19.79L3.71001 2.79004ZM12 20C8.14001 20 5.00001 16.86 5.00001 13C5.00001 11.3 5.61001 9.74004 6.62001 8.53004L16.47 18.38C15.26 19.39 13.7 20 12 20ZM19.91 6.56004C20.33 6.91004 20.94 6.85004 21.29 6.44004L21.32 6.41004C21.67 5.99004 21.61 5.38004 21.2 5.03004L18.1 2.44004C17.68 2.09004 17.07 2.15004 16.72 2.56004L16.69 2.59004C16.34 3.01004 16.4 3.62004 16.81 3.97004L19.91 6.56004ZM7.43001 3.68004C7.61001 3.34004 7.58001 2.91004 7.32001 2.59004L7.29001 2.56004C6.99001 2.20004 6.49001 2.13004 6.09001 2.34004L7.43001 3.68004V3.68004Z" fill="#969696"/>
</svg>
