<svg width="24" height="24" viewBox="0 0 24 24" fill="none" xmlns="http://www.w3.org/2000/svg">
<path d="M8 7.73244C8.5978 7.38663 9 6.74028 9 6C9 4.89543 8.10457 4 7 4C5.89543 4 5 4.89543 5 6C5 6.74028 5.4022 7.38663 6 7.73244V16.2676C5.4022 16.6134 5 17.2597 5 18C5 19.1046 5.89543 20 7 20C8.10457 20 9 19.1046 9 18C9 17.2597 8.5978 16.6134 8 16.2676V13H16C17.1046 13 18 12.1046 18 11V7.73244C18.5978 7.38663 19 6.74028 19 6C19 4.89543 18.1046 4 17 4C15.8954 4 15 4.89543 15 6C15 6.74028 15.4022 7.38663 16 7.73244V11H8V7.73244Z" fill="#969696"/>
</svg>
