<svg width="24" height="24" viewBox="0 0 24 24" fill="none" xmlns="http://www.w3.org/2000/svg">
<path fill-rule="evenodd" clip-rule="evenodd" d="M16.4285 3C16.4778 2.99935 16.527 2.99935 16.5764 3H16.4285ZM12 5.09013V5.09006C11.878 4.94722 11.7487 4.81025 11.613 4.67962C9.79357 2.92767 6.80573 2.30748 4.35081 3.98275C4.34717 3.98522 4.34354 3.98769 4.33991 3.99017C2.92991 4.95017 2.05991 6.58017 1.99991 8.28017C1.99965 8.28797 1.9994 8.29578 1.99917 8.30358C1.87431 12.1578 5.28414 15.2558 10.4896 19.9853L10.55 20.0402L10.65 20.1302C11.0313 20.4763 11.5157 20.6488 11.9999 20.6464M12 5.09013C13.76 3.03016 17.02 2.19018 19.66 3.99017C21.06 4.95017 21.94 6.57017 22 8.27017C22.0011 8.30503 22.002 8.33984 22.0026 8.37458C22.0052 8.49454 22.0043 8.61378 22 8.73237V8.69388C21.8761 12.3804 18.5075 15.4347 13.45 20.0202L13.34 20.1202C12.9613 20.469 12.4808 20.6439 12 20.6464M12 18.6501V7.36017H12.94C13.46 5.99017 14.96 5.00017 16.5 5.00017C18.5 5.00017 20 6.50017 20 8.50017C20 11.3902 16.86 14.2402 12.1 18.5502L12 18.6501Z" fill="#969696"/>
</svg>
