<svg width="24" height="24" viewBox="0 0 24 24" fill="none" xmlns="http://www.w3.org/2000/svg">
<path fill-rule="evenodd" clip-rule="evenodd" d="M20.5 19H3.5C2.95 19 2.5 19.45 2.5 20C2.5 20.55 2.95 21 3.5 21H20.5C21.05 21 21.5 20.55 21.5 20C21.5 19.45 21.05 19 20.5 19ZM3.51 11.61L19.34 15.85C20.14 16.06 20.96 15.59 21.18 14.79C21.39 13.99 20.92 13.17 20.12 12.95L14.81 11.53L12.23 3.07999C12.12 2.71999 11.84 2.44999 11.48 2.34999C10.8 2.16999 10.13 2.67999 10.13 3.38999V10.27L5.15 8.94999L4.4 7.08999C4.28 6.79999 4.04 6.57999 3.73 6.49999L3.4 6.40999C3.08 6.31999 2.77 6.55999 2.77 6.88999V10.64C2.77 11.1 3.07 11.49 3.51 11.61Z" fill="#969696"/>
</svg>
