<svg width="24" height="24" viewBox="0 0 24 24" fill="none" xmlns="http://www.w3.org/2000/svg">
<path fill-rule="evenodd" clip-rule="evenodd" d="M2 21H12C12.55 21 13 21.45 13 22C13 22.55 12.55 23 12 23H2C1.45 23 1 22.55 1 22C1 21.45 1.45 21 2 21ZM5.24 8.07005L8.07 5.24005L20.8 17.97C21.58 18.75 21.58 20.0201 20.8 20.8001C20.02 21.5801 18.75 21.5801 17.97 20.8001L5.24 8.07005ZM13.73 2.41005L16.56 5.24005C17.34 6.02005 17.34 7.29005 16.56 8.07005L15.14 9.49005L9.49 3.83005L10.9 2.42005C11.68 1.63005 12.95 1.63005 13.73 2.41005V2.41005ZM3.83 9.48005L9.49 15.14L8.08 16.5501C7.3 17.3301 6.03 17.3301 5.25 16.5501L2.42 13.72C1.64 12.94 1.64 11.6701 2.42 10.8901L3.83 9.48005Z" fill="#969696"/>
</svg>
