<svg width="24" height="24" viewBox="0 0 24 24" fill="none" xmlns="http://www.w3.org/2000/svg">
<path fill-rule="evenodd" clip-rule="evenodd" d="M12 2C6.47715 2 2 6.47715 2 12C2 17.5228 6.47715 22 12 22C17.5228 22 22 17.5228 22 12C22 6.47715 17.5228 2 12 2ZM13 9.75C13 9.34 12.66 9 12.25 9C11.84 9 11.5 9.34 11.5 9.75V14.25C11.5 14.66 11.84 15 12.25 15C12.66 15 13 14.66 13 14.25V9.75ZM9.25 9C9.66 9 10 9.34 10 9.75C10 10.16 9.66 10.5 9.25 10.5H6.5V13.5H8.5V12.75C8.5 12.34 8.84 12 9.25 12C9.66 12 10 12.34 10 12.75V14C10 14.5 9.6 15 9 15H6C5.4 15 5 14.5 5 14V10C5 9.5 5.4 9 6 9H9.25ZM18.25 9C18.66 9 19 9.34 19 9.75C19 10.16 18.66 10.5 18.25 10.5H16V11.5H17.25C17.66 11.5 18 11.84 18 12.25C18 12.66 17.66 13 17.25 13H16V14.25C16 14.66 15.66 15 15.25 15C14.84 15 14.5 14.66 14.5 14.25V10C14.5 9.45 14.95 9 15.5 9H18.25Z" fill="#969696"/>
</svg>
