<svg width="24" height="24" viewBox="0 0 24 24" fill="none" xmlns="http://www.w3.org/2000/svg">
<path fill-rule="evenodd" clip-rule="evenodd" d="M17.66 7.99996L12.71 3.05996C12.32 2.66996 11.69 2.66996 11.3 3.05996L6.34 7.99996C4.78 9.55996 4 11.64 4 13.64C4 15.64 4.78 17.75 6.34 19.31C7.9 20.87 9.95 21.66 12 21.66C14.05 21.66 16.1 20.87 17.66 19.31C19.22 17.75 20 15.64 20 13.64C20 11.64 19.22 9.55996 17.66 7.99996ZM6 14C6.01 12 6.62 10.73 7.76 9.59996L12 5.26996L16.24 9.64996C17.38 10.77 17.99 12 18 14H6Z" fill="#969696"/>
</svg>
