<svg width="24" height="24" viewBox="0 0 24 24" fill="none" xmlns="http://www.w3.org/2000/svg">
<path fill-rule="evenodd" clip-rule="evenodd" d="M14.58 2.58L19.41 7.41C19.79 7.79 20 8.3 20 8.83V20C20 21.1 19.1 22 18 22H6C4.9 22 4 21.1 4 20V4C4 2.9 4.9 2 6 2H13.17C13.7 2 14.21 2.21 14.58 2.58ZM14.33 18.74C14.72 19.13 15.35 19.13 15.74 18.74C16.13 18.35 16.13 17.72 15.74 17.33L14.56 16.15C15.37 14.64 15.02 12.68 13.47 11.6C12.3 10.79 10.68 10.79 9.52 11.6C7.67 12.89 7.5 15.45 9.02 16.97C10.14 18.09 11.82 18.27 13.15 17.56L14.33 18.74ZM13 8C13 8.55 13.45 9 14 9H18.5L13 3.5V8ZM13 14.5C13 15.3284 12.3284 16 11.5 16C10.6716 16 10 15.3284 10 14.5C10 13.6716 10.6716 13 11.5 13C12.3284 13 13 13.6716 13 14.5Z" fill="#969696"/>
</svg>
