<svg width="24" height="24" viewBox="0 0 24 24" fill="none" xmlns="http://www.w3.org/2000/svg">
<path d="M12.1464 3.8535L10 5.99995L12.1464 8.1464C12.4614 8.46138 13 8.2383 13 7.79284V6.99995H16V16.2675C15.4022 16.6133 15 17.2597 15 18C15 19.1045 15.8954 20 17 20C18.1046 20 19 19.1045 19 18C19 17.2597 18.5978 16.6133 18 16.2675V6.99995C18 5.89538 17.1046 4.99995 16 4.99995H13V4.20706C13 3.7616 12.4614 3.53852 12.1464 3.8535Z" fill="#969696"/>
<path d="M9 5.99995C9 6.74023 8.5978 7.38658 8 7.73239V16.2675C8.5978 16.6133 9 17.2597 9 18C9 19.1045 8.10457 20 7 20C5.89543 20 5 19.1045 5 18C5 17.2597 5.4022 16.6133 6 16.2675V7.73239C5.4022 7.38658 5 6.74023 5 5.99995C5 4.89538 5.89543 3.99995 7 3.99995C8.10457 3.99995 9 4.89538 9 5.99995Z" fill="#969696"/>
</svg>
