<svg width="24" height="24" viewBox="0 0 24 24" fill="none" xmlns="http://www.w3.org/2000/svg">
<path d="M15.83 10.2899L13.71 8.1699C13.32 7.7799 13.32 7.1499 13.71 6.7599C14.1 6.3699 14.73 6.3699 15.12 6.7599L16.53 8.1699L20.07 4.6299C20.46 4.2399 21.09 4.2399 21.48 4.6299C21.87 5.0199 21.87 5.6499 21.48 6.0399L17.24 10.2799C16.85 10.6799 16.22 10.6799 15.83 10.2899ZM10 6.9999H3C2.45 6.9999 2 7.4499 2 7.9999C2 8.5499 2.45 8.9999 3 8.9999H10C10.55 8.9999 11 8.5499 11 7.9999C11 7.4499 10.55 6.9999 10 6.9999ZM20.29 12.7099C19.9 12.3199 19.27 12.3199 18.88 12.7099L17 14.5899L15.12 12.7099C14.73 12.3199 14.1 12.3199 13.71 12.7099C13.32 13.0999 13.32 13.7299 13.71 14.1199L15.59 15.9999L13.71 17.8799C13.32 18.2699 13.32 18.8999 13.71 19.2899C14.1 19.6799 14.73 19.6799 15.12 19.2899L17 17.4099L18.88 19.2899C19.27 19.6799 19.9 19.6799 20.29 19.2899C20.68 18.8999 20.68 18.2699 20.29 17.8799L18.41 15.9999L20.29 14.1199C20.68 13.7299 20.68 13.0999 20.29 12.7099ZM10 14.9999H3C2.45 14.9999 2 15.4499 2 15.9999C2 16.5499 2.45 16.9999 3 16.9999H10C10.55 16.9999 11 16.5499 11 15.9999C11 15.4499 10.55 14.9999 10 14.9999Z" fill="#969696"/>
</svg>
