<svg width="24" height="24" viewBox="0 0 24 24" fill="none" xmlns="http://www.w3.org/2000/svg">
<path fill-rule="evenodd" clip-rule="evenodd" d="M14.71 14.0001H15.5L19.74 18.2601C20.15 18.6701 20.15 19.3401 19.74 19.7501C19.33 20.1601 18.66 20.1601 18.25 19.7501L14 15.5001V14.7101L13.73 14.4301C12.48 15.5101 10.81 16.1101 9.01003 15.9801L9.00003 15.9701V13.9501C9.04522 13.9555 9.08971 13.9615 9.13386 13.9675C9.25581 13.984 9.37522 14.0001 9.50003 14.0001C11.99 14.0001 14 11.9901 14 9.50015C14 6.95015 11.65 4.80015 9.11003 5.02015C6.97003 5.20015 5.29003 6.88015 5.05003 9.00015H3.03003C3.30003 5.38015 6.54003 2.58015 10.33 3.05015C13.12 3.40015 15.44 5.61015 15.91 8.39015C16.25 10.4201 15.63 12.3301 14.43 13.7301L14.71 14.0001ZM4.00002 13.29L6.12002 11.17C6.32002 10.98 6.63002 10.98 6.83002 11.17C7.03002 11.37 7.03002 11.68 6.83002 11.88L4.71002 14L6.83002 16.12C7.03002 16.32 7.03002 16.63 6.83002 16.83C6.63002 17.03 6.32002 17.03 6.12002 16.83L4.00002 14.71L1.88002 16.83C1.68002 17.03 1.37002 17.03 1.17002 16.83C0.97002 16.63 0.97002 16.32 1.17002 16.12L3.29002 14L1.17002 11.88C0.97002 11.68 0.97002 11.37 1.17002 11.17C1.37002 10.97 1.68002 10.97 1.88002 11.17L4.00002 13.29Z" fill="#969696"/>
</svg>
