<svg width="24" height="24" viewBox="0 0 24 24" fill="none" xmlns="http://www.w3.org/2000/svg">
<path fill-rule="evenodd" clip-rule="evenodd" d="M14 11.9999C14 10.8999 13.1 9.99995 12 9.99995C10.9 9.99995 10 10.8999 10 11.9999C10 13.0999 10.9 13.9999 12 13.9999C13.1 13.9999 14 13.0999 14 11.9999ZM12.26 2.99995C7.17003 2.85995 3.00003 6.94995 3.00003 12H1.21003C0.760031 12 0.540031 12.5399 0.860031 12.8499L3.65003 15.6399C3.85003 15.8399 4.16003 15.8399 4.36003 15.6399L7.15003 12.8499C7.46003 12.5399 7.24003 12 6.79003 12H5.00003C5.00003 8.09995 8.18003 4.94995 12.1 4.99995C15.82 5.04995 18.95 8.17995 19 11.9C19.05 15.81 15.9 19 12 19C10.75 19 9.58003 18.66 8.56003 18.09C8.17003 17.87 7.69003 17.9499 7.38003 18.2699C6.92003 18.7299 7.01003 19.52 7.58003 19.84C8.89003 20.57 10.39 21 12 21C17.05 21 21.14 16.83 21 11.74C20.87 7.04995 16.95 3.12995 12.26 2.99995Z" fill="#969696"/>
</svg>
