<svg width="24" height="24" viewBox="0 0 24 24" fill="none" xmlns="http://www.w3.org/2000/svg">
<path fill-rule="evenodd" clip-rule="evenodd" d="M6.83008 4H20.0001C21.1001 4 22.0001 4.9 22.0001 6V18C22.0001 18.34 21.9101 18.65 21.7601 18.93L16.8301 14H19.0001C19.5501 14 20.0001 13.55 20.0001 13C20.0001 12.45 19.5501 12 19.0001 12H14.8301L6.83008 4ZM12.5425 15.1325L18.5425 21.1325L19.3725 21.9725C19.7625 22.3625 19.7625 22.9925 19.3725 23.3825C18.9825 23.7725 18.3525 23.7725 17.9625 23.3825L15.7125 21.1325H2.5425C1.4425 21.1325 0.5425 20.2325 0.5425 19.1325V7.1325C0.5425 6.7925 0.6325 6.4825 0.7825 6.1925L0.2925 5.7025C-0.0975 5.3125 -0.0975 4.6825 0.2925 4.2925C0.6825 3.9025 1.3125 3.9025 1.7025 4.2925L10.5425 13.1325L10.8325 13.4225L12.5425 15.1325ZM5.5425 15.1325C6.0925 15.1325 6.5425 14.6825 6.5425 14.1325C6.5425 13.5825 6.0925 13.1325 5.5425 13.1325H3.5425C2.9925 13.1325 2.5425 13.5825 2.5425 14.1325C2.5425 14.6825 2.9925 15.1325 3.5425 15.1325H5.5425ZM11.5425 19.1325C12.0925 19.1325 12.5425 18.6825 12.5425 18.1325C12.5425 18.0773 12.5282 18.0316 12.5128 17.9822C12.5058 17.9601 12.4987 17.9373 12.4925 17.9125L11.7525 17.1725C11.7251 17.1686 11.6993 17.1616 11.6732 17.1546C11.6326 17.1436 11.5912 17.1325 11.5425 17.1325H3.5425C2.9925 17.1325 2.5425 17.5825 2.5425 18.1325C2.5425 18.6825 2.9925 19.1325 3.5425 19.1325H11.5425Z" fill="#969696"/>
</svg>
