<svg width="24" height="24" viewBox="0 0 24 24" fill="none" xmlns="http://www.w3.org/2000/svg">
<path fill-rule="evenodd" clip-rule="evenodd" d="M18.1399 3.85977L16.6999 5.29977C18.4399 6.85977 19.5499 9.10977 19.5499 11.6198C19.5499 13.9198 18.6299 15.9998 17.1499 17.5298C16.7899 17.8998 16.1899 17.5398 16.3099 17.0398C16.4699 16.4298 16.5499 15.7798 16.5499 15.1198C16.5499 12.4798 15.2699 10.1598 13.2999 8.69977L11.8499 10.1498C11.5399 10.4698 10.9999 10.2498 10.9999 9.79977V3.50977C10.9999 3.22977 11.2199 3.00977 11.4999 3.00977H17.7899C18.2299 3.00977 18.4599 3.53977 18.1399 3.85977ZM10.7 15.3L12.15 13.86C12.46 13.54 13 13.77 12.99 14.21V20.5C12.99 20.78 12.77 21 12.49 21H6.19995C5.75995 21 5.52995 20.47 5.84995 20.15L7.28995 18.71C5.54995 17.15 4.44995 14.9 4.44995 12.38C4.44995 10.08 5.36995 8 6.84995 6.47C7.20995 6.1 7.80995 6.46 7.68995 6.96C7.52995 7.57 7.44995 8.22 7.44995 8.88C7.44995 11.52 8.72995 13.84 10.7 15.3Z" fill="#969696"/>
</svg>
