<svg width="24" height="24" viewBox="0 0 24 24" fill="none" xmlns="http://www.w3.org/2000/svg">
<path fill-rule="evenodd" clip-rule="evenodd" d="M5 4H19C20.11 4 21 4.9 21 6V18C21 19.1 20.1 20 19 20H5C3.89 20 3 19.1 3 18V6C3 4.9 3.89 4 5 4ZM18 18C18.55 18 19 17.55 19 17V8H5V17C5 17.55 5.45 18 6 18H18ZM11.64 15.8299C11.25 16.2199 10.62 16.2199 10.23 15.8299L8.09997 13.6999C7.70997 13.3099 7.69997 12.6799 8.09997 12.2899C8.49997 11.8999 9.12997 11.8999 9.51997 12.2899L10.93 13.6999L14.47 10.1699C14.86 9.77994 15.49 9.77994 15.88 10.1699C16.27 10.5699 16.27 11.1999 15.88 11.5899L11.64 15.8299Z" fill="white"/>
</svg>
