<svg width="24" height="24" viewBox="0 0 24 24" fill="none" xmlns="http://www.w3.org/2000/svg">
<path fill-rule="evenodd" clip-rule="evenodd" d="M14.48 11.95C14.65 11.97 14.82 12 15 12C17.21 12 19 10.21 19 8C19 5.79 17.21 4 15 4C12.79 4 11 5.79 11 8C11 8.18 11.03 8.35 11.05 8.52L14.48 11.95ZM16.69 14.16L22.43 19.9C22.76 19.73 23 19.4 23 19V18C23 15.86 19.44 14.5 16.69 14.16ZM2.11998 2.42C1.72998 2.03 1.09998 2.03 0.70998 2.42C0.31998 2.81 0.31998 3.44 0.70998 3.83L3.99998 7.12V10H1.99998C1.44998 10 0.99998 10.45 0.99998 11C0.99998 11.55 1.44998 12 1.99998 12H3.99998V14C3.99998 14.55 4.44998 15 4.99998 15C5.54998 15 5.99998 14.55 5.99998 14V12H8.87998L11.39 14.51C9.18998 15.11 6.99998 16.3 6.99998 18V19C6.99998 19.55 7.44998 20 7.99998 20H16.88L20.17 23.29C20.56 23.68 21.19 23.68 21.58 23.29C21.97 22.9 21.97 22.27 21.58 21.88L2.11998 2.42ZM5.99998 10V9.12L6.87998 10H5.99998Z" fill="white"/>
</svg>
