<svg width="24" height="24" viewBox="0 0 24 24" fill="none" xmlns="http://www.w3.org/2000/svg">
<path fill-rule="evenodd" clip-rule="evenodd" d="M23 18H21.8L23.59 19.79C23.83 19.61 24 19.33 24 19C24 18.45 23.55 18 23 18ZM3.23 2.27999C2.84 1.88999 2.2 1.88999 1.81 2.27999C1.42 2.66999 1.42 3.29999 1.81 3.68999L2.65 4.54999C2.65 4.54999 1.99 5.11999 1.99 6.01999C2 6.91999 2 16 2 16L2.01 16.01C2.01 17.1 2.89 17.99 3.98 18H1C0.45 18 0 18.45 0 19C0 19.55 0.45 20 1 20H18.13L20.13 22C20.52 22.39 21.15 22.39 21.54 22C21.93 21.61 21.93 20.98 21.54 20.59L3.23 2.27999ZM7 15C7.31 13.52 7.94 12.07 9.08 10.95L10.67 12.54C9.13 12.92 7.96 13.71 7 15ZM13 9.12999V8.14999C13 7.70999 13.52 7.48999 13.84 7.77999L15 8.86999L16.61 10.37C16.82 10.57 16.82 10.9 16.61 11.1L15.72 11.93L21.3 17.51C21.73 17.14 22 16.61 22 16V5.99999C22 4.90999 21.11 4.01999 20.02 4.01999H7.8L12.94 9.14999C12.96 9.13999 12.98 9.12999 13 9.12999Z" fill="white"/>
</svg>
