<svg width="24" height="24" viewBox="0 0 24 24" fill="none" xmlns="http://www.w3.org/2000/svg">
<path fill-rule="evenodd" clip-rule="evenodd" d="M9.05004 5.77L13.08 11.42C13.33 11.77 13.33 12.23 13.09 12.58L9.05004 18.23C8.71004 18.71 8.15004 19 7.56004 19C6.07004 19 5.20004 17.32 6.07004 16.11L9.00004 12L6.07004 7.89C5.20004 6.68 6.07004 5 7.56004 5C8.15004 5 8.70004 5.29 9.05004 5.77ZM16.04 5.77L20.08 11.42C20.33 11.77 20.33 12.23 20.09 12.58L16.05 18.23C15.71 18.71 15.15 19 14.56 19C13.07 19 12.2 17.32 13.07 16.11L16 12L13.07 7.89C12.21 6.68 13.07 5 14.56 5C15.15 5 15.7 5.29 16.04 5.77Z" fill="white"/>
</svg>
