<svg width="24" height="24" viewBox="0 0 24 24" fill="none" xmlns="http://www.w3.org/2000/svg">
<path fill-rule="evenodd" clip-rule="evenodd" d="M20 13H21C21.55 13 22 13.45 22 14V19C22 20.1 21.1 21 20 21C20 21.55 19.55 22 19 22H5C4.45 22 4 21.55 4 21C2.9 21 2 20.1 2 19V14C2 13.45 2.45 13 3 13H5V12.25C5 11.01 6 10.01 7.24 10C7.59 10 7.93 10.08 8.24 10.23C8.5 10.35 8.74 10.52 8.93 10.73L10.33 12.28C10.58 12.55 10.85 12.79 11.15 13H18V4.83C18 4.37 17.63 4 17.17 4C16.95 4 16.74 4.09 16.59 4.24L15.34 5.49C15.38 5.66 15.41 5.82 15.41 6C15.41 6.4 15.29 6.77 15.09 7.08L12.33 4.32C12.64 4.12 13.01 4 13.41 4C13.59 4 13.76 4.03 13.92 4.08L15.17 2.83C15.7 2.3 16.42 2 17.17 2C18.73 2 20 3.27 20 4.83V13ZM9 7C9 8.10457 8.10457 9 7 9C5.89543 9 5 8.10457 5 7C5 5.89543 5.89543 5 7 5C8.10457 5 9 5.89543 9 7Z" fill="black"/>
</svg>
