<svg width="24" height="24" viewBox="0 0 24 24" fill="none" xmlns="http://www.w3.org/2000/svg">
<path fill-rule="evenodd" clip-rule="evenodd" d="M20 15.31L22.6 12.71C22.99 12.32 22.99 11.69 22.6 11.3L20 8.69V5C20 4.45 19.55 4 19 4H15.31L12.71 1.4C12.32 1.01 11.69 1.01 11.3 1.4L8.68998 4H4.99998C4.44998 4 3.99998 4.45 3.99998 5V8.69L1.39998 11.29C1.00998 11.68 1.00998 12.31 1.39998 12.7L3.99998 15.3V19C3.99998 19.55 4.44998 20 4.99998 20H8.68998L11.29 22.6C11.68 22.99 12.31 22.99 12.7 22.6L15.3 20H19C19.55 20 20 19.55 20 19V15.31ZM12 16.9V7.1C12 6.49 12.55 5.99 13.15 6.11C15.91 6.65 18 9.08 18 12C18 14.92 15.91 17.35 13.15 17.89C12.55 18.01 12 17.51 12 16.9Z" fill="black"/>
</svg>
