<svg width="24" height="24" viewBox="0 0 24 24" fill="none" xmlns="http://www.w3.org/2000/svg">
<path fill-rule="evenodd" clip-rule="evenodd" d="M20 8.69V5C20 4.45 19.55 4 19 4H15.31L12.71 1.4C12.32 1.01 11.69 1.01 11.3 1.4L8.68998 4H4.99998C4.44998 4 3.99998 4.45 3.99998 5V8.69L1.39998 11.29C1.00998 11.68 1.00998 12.31 1.39998 12.7L3.99998 15.3V19C3.99998 19.55 4.44998 20 4.99998 20H8.68998L11.29 22.6C11.68 22.99 12.31 22.99 12.7 22.6L15.3 20H19C19.55 20 20 19.55 20 19V15.31L22.6 12.71C22.99 12.32 22.99 11.69 22.6 11.3L20 8.69ZM12 18C8.68998 18 5.99998 15.31 5.99998 12C5.99998 8.69 8.68998 6 12 6C15.31 6 18 8.69 18 12C18 15.31 15.31 18 12 18ZM12 8C9.78998 8 7.99998 9.79 7.99998 12C7.99998 14.21 9.78998 16 12 16C14.21 16 16 14.21 16 12C16 9.79 14.21 8 12 8Z" fill="black"/>
</svg>
