<svg width="24" height="24" viewBox="0 0 24 24" fill="none" xmlns="http://www.w3.org/2000/svg">
<path fill-rule="evenodd" clip-rule="evenodd" d="M11.15 3.4C11.54 2.76 12.46 2.76 12.85 3.4L16.56 9.48C16.97 10.14 16.49 11 15.71 11H8.28C7.5 11 7.02 10.14 7.43 9.48L11.15 3.4ZM17.5 22C15.0147 22 13 19.9853 13 17.5C13 15.0147 15.0147 13 17.5 13C19.9853 13 22 15.0147 22 17.5C22 19.9853 19.9853 22 17.5 22ZM4 21.5C3.45 21.5 3 21.05 3 20.5V14.5C3 13.95 3.45 13.5 4 13.5H10C10.55 13.5 11 13.95 11 14.5V20.5C11 21.05 10.55 21.5 10 21.5H4Z" fill="black"/>
</svg>
