<svg width="24" height="24" viewBox="0 0 24 24" fill="none" xmlns="http://www.w3.org/2000/svg">
<path fill-rule="evenodd" clip-rule="evenodd" d="M11.47 9.46996L15.06 5.87996C15.54 5.39996 15.54 4.59996 15.06 4.10996L13.47 2.51996L14.53 1.45996L16.12 3.04996C17.19 4.11996 17.19 5.86996 16.12 6.93996L12.53 10.53L11.47 9.46996ZM9.46997 7.46996L10.06 6.87996C10.54 6.39996 10.54 5.59996 10.06 5.11996L9.46997 4.52996L10.53 3.45996L11.12 4.04996C12.19 5.11996 12.19 6.86996 11.12 7.93996L10.53 8.52996L9.46997 7.46996ZM14.53 12.5299L20.12 6.93989C20.61 6.44989 21.4 6.44989 21.89 6.93989L22.48 7.52989L23.54 6.46989L22.95 5.87989C21.88 4.80989 20.13 4.80989 19.06 5.87989L13.47 11.4699L14.53 12.5299ZM2 22L16 17L7 8L2 22ZM17.06 11.8799L15.47 13.4699L16.53 14.5299L18.12 12.9399C18.61 12.4499 19.4 12.4499 19.89 12.9399L21.5 14.5499L22.56 13.4899L20.95 11.8799C19.87 10.8099 18.13 10.8099 17.06 11.8799Z" fill="black"/>
</svg>
