<svg width="24" height="24" viewBox="0 0 24 24" fill="none" xmlns="http://www.w3.org/2000/svg">
<path fill-rule="evenodd" clip-rule="evenodd" d="M12 21C9.79086 21 8 19.2091 8 17C8 14.7909 9.79086 13 12 13C14.2091 13 16 14.7909 16 17C16 19.2091 14.2091 21 12 21ZM12 3C15.51 3 18.72 4.28 21.18 6.4C21.63 6.78 21.67 7.46 21.25 7.88L17.65 11.48C17.3 11.84 16.74 11.87 16.34 11.56C15.14 10.63 13.64 10.07 12 10.07C10.37 10.07 8.86 10.63 7.66 11.57C7.26 11.88 6.7 11.85 6.34 11.49L2.74 7.89C2.32 7.47 2.36 6.79 2.8 6.41C5.28 4.29 8.49 3 12 3Z" fill="black"/>
</svg>
