<svg width="24" height="24" viewBox="0 0 24 24" fill="none" xmlns="http://www.w3.org/2000/svg">
<path fill-rule="evenodd" clip-rule="evenodd" d="M13.49 5.48C14.59 5.48 15.49 4.58 15.49 3.48C15.49 2.38 14.59 1.48 13.49 1.48C12.39 1.48 11.49 2.38 11.49 3.48C11.49 4.58 12.39 5.48 13.49 5.48ZM10.32 17.48L10.89 14.98L12.99 16.98V21.98C12.99 22.53 13.44 22.98 13.99 22.98C14.54 22.98 14.99 22.53 14.99 21.98V16.34C14.99 15.79 14.77 15.27 14.37 14.89L12.89 13.48L13.49 10.48C14.56 11.72 16.11 12.61 17.85 12.89C18.45 12.98 18.99 12.5 18.99 11.89C18.99 11.4 18.63 10.99 18.14 10.91C16.62 10.66 15.36 9.76 14.69 8.58L13.69 6.98C13.29 6.38 12.69 5.98 11.99 5.98C11.69 5.98 11.49 6.08 11.19 6.08L7.20998 7.76C6.46998 8.08 5.98998 8.8 5.98998 9.61V11.98C5.98998 12.53 6.43998 12.98 6.98998 12.98C7.53998 12.98 7.98998 12.53 7.98998 11.98V9.58L9.78998 8.88L8.18998 16.98L4.26998 16.18C3.72998 16.07 3.19998 16.42 3.08998 16.96V17C2.97998 17.54 3.32998 18.07 3.86998 18.18L7.97998 19C9.03998 19.21 10.08 18.54 10.32 17.48Z" fill="black"/>
</svg>
