<svg width="24" height="24" viewBox="0 0 24 24" fill="none" xmlns="http://www.w3.org/2000/svg">
<path fill-rule="evenodd" clip-rule="evenodd" d="M21 9.72V11.18C22.16 11.6 23 12.7 23.01 14C23.01 15.66 21.67 17 20.01 17C18.7 17 17.6 16.16 17.19 15H8.82C8.4 16.16 7.3 17 6 17C4.7 17 3.6 16.16 3.18 15H3C1.9 15 1 14.1 1 13V5C1 3.9 1.9 3 3 3H15.06C15.66 3 16.22 3.26 16.6 3.72L20.54 8.44C20.84 8.8 21 9.25 21 9.72ZM16 9H18.4L16 6.12V9ZM7 5H4C3.45 5 3 5.45 3 6V9H7V5ZM5 14C5 14.55 5.45 15 6 15C6.55 15 7 14.55 7 14C7 13.45 6.55 13 6 13C5.45 13 5 13.45 5 14ZM9 11V13H14V6C14 5.45 13.55 5 13 5H9V9H11C11.55 9 12 9.45 12 10C12 10.55 11.55 11 11 11H9ZM19 14C19 14.55 19.45 15 20 15C20.55 15 21 14.55 21 14C21 13.45 20.55 13 20 13C19.45 13 19 13.45 19 14ZM11 18V20H7L13 23V21H17L11 18Z" fill="black"/>
</svg>
