<svg width="24" height="24" viewBox="0 0 24 24" fill="none" xmlns="http://www.w3.org/2000/svg">
<path fill-rule="evenodd" clip-rule="evenodd" d="M9 3H20C21.1 3 22 3.9 22 5V8C22 9.1 21.1 10 20 10H18V13C18 15.21 16.21 17 14 17H8C5.79 17 4 15.21 4 13V5C4 3.9 4.9 3 6 3H8V5.4L6.19 6.85C6.07 6.94 6 7.09 6 7.24V11.5C6 11.78 6.22 12 6.5 12H10.5C10.78 12 11 11.78 11 11.5V7.24C11 7.09 10.93 6.94 10.81 6.85L9 5.4V3ZM18 8H20V5H18V8ZM2 20C2 19.45 2.45 19 3 19H19C19.55 19 20 19.45 20 20C20 20.55 19.55 21 19 21H3C2.45 21 2 20.55 2 20Z" fill="black"/>
</svg>
