<svg width="24" height="24" viewBox="0 0 24 24" fill="none" xmlns="http://www.w3.org/2000/svg">
<path fill-rule="evenodd" clip-rule="evenodd" d="M19.5 8L20.6 5.6L23 4.5L20.6 3.4L19.5 1L18.4 3.4L16 4.5L18.4 5.6L19.5 8ZM19.85 10.59L20.77 8.58L21.1 7.87C21.67 9.13 22 10.53 22 12C22 17.52 17.52 22 12 22C6.48 22 2 17.52 2 12C2 6.48 6.48 2 12 2C13.47 2 14.87 2.33 16.13 2.91L15.42 3.23L12.63 4.5L15.42 5.77L17.35 6.65L18.23 8.58L18.83 9.9C18.39 9.96 17.95 10 17.5 10C14.37 10 11.58 8.56 9.74 6.31C8.69 8.87 6.6 10.88 4 11.86C4.00659 11.8864 4.00449 11.9171 4.0023 11.9492C4.00116 11.9659 4 11.9829 4 12C4 16.41 7.59 20 12 20C16.41 20 20 16.41 20 12C20 11.52 19.94 11.05 19.85 10.59ZM10.25 13C10.25 13.6904 9.69036 14.25 9 14.25C8.30964 14.25 7.75 13.6904 7.75 13C7.75 12.3096 8.30964 11.75 9 11.75C9.69036 11.75 10.25 12.3096 10.25 13ZM15 14.25C15.6904 14.25 16.25 13.6904 16.25 13C16.25 12.3096 15.6904 11.75 15 11.75C14.3096 11.75 13.75 12.3096 13.75 13C13.75 13.6904 14.3096 14.25 15 14.25Z" fill="black"/>
</svg>
