<svg width="24" height="24" viewBox="0 0 24 24" fill="none" xmlns="http://www.w3.org/2000/svg">
<path d="M10.8 3.9L4.8 8.4C4.3 8.78 4 9.37 4 10V19C4 20.1 4.9 21 6 21H18C19.1 21 20 20.1 20 19V10C20 9.37 19.7 8.78 19.2 8.4L13.2 3.9C12.49 3.37 11.51 3.37 10.8 3.9ZM12.5 12.5C12.5 13.33 11.83 14 11 14V17.5C11 17.78 10.78 18 10.5 18C10.22 18 10 17.78 10 17.5V14C9.17 14 8.5 13.33 8.5 12.5V10C8.5 9.72 8.72 9.5 9 9.5C9.28 9.5 9.5 9.72 9.5 10V12.5H10V10C10 9.72 10.22 9.5 10.5 9.5C10.78 9.5 11 9.72 11 10V12.5H11.5V10C11.5 9.72 11.72 9.5 12 9.5C12.28 9.5 12.5 9.72 12.5 10V12.5ZM14.5 18C14.22 18 14 17.78 14 17.5V14.5H13.5C13.22 14.5 13 14.28 13 14V11.5C13 10.62 13.57 9.87 14.36 9.61C14.67 9.5 15 9.75 15 10.09V17.5C15 17.78 14.78 18 14.5 18Z" fill="black"/>
</svg>
