<svg width="24" height="24" viewBox="0 0 24 24" fill="none" xmlns="http://www.w3.org/2000/svg">
<path fill-rule="evenodd" clip-rule="evenodd" d="M8.17 17C8.68 17 9.15 16.71 9.37 16.26L10.79 13.42C10.93 13.14 11 12.84 11 12.53V8C11 7.45 10.55 7 10 7H6C5.45 7 5 7.45 5 8V12C5 12.55 5.45 13 6 13H8L6.97 15.06C6.52 15.95 7.17 17 8.17 17ZM16.17 17C16.68 17 17.15 16.71 17.37 16.26L18.79 13.42C18.93 13.14 19 12.84 19 12.53V8C19 7.45 18.55 7 18 7H14C13.45 7 13 7.45 13 8V12C13 12.55 13.45 13 14 13H16L14.97 15.06C14.52 15.95 15.17 17 16.17 17Z" fill="black"/>
</svg>
