<svg width="24" height="24" viewBox="0 0 24 24" fill="none" xmlns="http://www.w3.org/2000/svg">
<path fill-rule="evenodd" clip-rule="evenodd" d="M12 3H20C20.55 3 21 3.45 21 4V20C21 20.55 20.55 21 20 21H17V19H19V17H17V15H19V13H17V12.35C17 11.5 16.64 10.68 16.01 10.12L11.01 5.62L11 5.61V4C11 3.45 11.45 3 12 3ZM13 7H15V5H13V7ZM17 11H19V9H17V11ZM17 7H19V5H17V7ZM15 12.3501V20.0001C15 20.5501 14.55 21.0001 14 21.0001H12C11.45 21.0001 11 20.5501 11 20.0001V16.0001H7V20.0001C7 20.5501 6.55 21.0001 6 21.0001H4C3.45 21.0001 3 20.5501 3 20.0001V12.3501C3 12.0601 3.12 11.7901 3.33 11.6101L8.33 7.1101C8.52 6.9401 8.76 6.8501 9 6.8501C9.24 6.8501 9.48 6.9301 9.67 7.1101L14.67 11.6101C14.88 11.8001 15 12.0701 15 12.3501Z" fill="black"/>
</svg>
