<svg width="24" height="24" viewBox="0 0 24 24" fill="none" xmlns="http://www.w3.org/2000/svg">
<path fill-rule="evenodd" clip-rule="evenodd" d="M5 3H19C20.1 3 21 3.9 21 5V19C21 20.1 20.1 21 19 21H5C3.9 21 3 20.1 3 19V5C3 3.9 3.9 3 5 3ZM6 12C6 15.31 8.69 18 12 18C15.31 18 18 15.31 18 12C18 8.69 15.31 6 12 6C8.69 6 6 8.69 6 12ZM9.37988 9C10.0899 8.39 10.9899 8 11.9999 8C13.0099 8 13.9099 8.39 14.6199 9H9.37988ZM8.56006 14H15.4501C15.7101 13.55 15.8901 13.04 15.9601 12.5H8.06006C8.12006 13.04 8.29006 13.55 8.56006 14ZM11.9999 16C13.0099 16 13.9099 15.61 14.6199 15H9.37988C10.0899 15.61 10.9899 16 11.9999 16ZM8.56005 10C8.30005 10.45 8.12005 10.96 8.05005 11.5H15.95C15.88 10.96 15.71 10.45 15.44 10H8.56005Z" fill="black"/>
</svg>
