<svg width="24" height="24" viewBox="0 0 24 24" fill="none" xmlns="http://www.w3.org/2000/svg">
<path fill-rule="evenodd" clip-rule="evenodd" d="M20.12 12.04C20.62 11.99 21 11.56 21 11.05C21 10.46 20.49 9.98999 19.9 10.05C18.4 10.2 17 10.66 15.74 11.35L17.22 12.83C18.12 12.42 19.09 12.14 20.12 12.04V12.04ZM21 15.09C21 14.48 20.46 14 19.86 14.09C19.48 14.15 19.11 14.25 18.75 14.37L20.37 15.99C20.74 15.84 21 15.5 21 15.09V15.09ZM13.97 4.13999C14.03 3.54999 13.57 3.02999 12.97 3.02999C12.47 3.02999 12.03 3.39999 11.98 3.89999C11.88 4.92999 11.6 5.90999 11.19 6.80999L12.67 8.28999C13.36 7.02999 13.82 5.62999 13.97 4.13999V4.13999ZM9.93003 4.15999C10.03 3.55999 9.54003 3.01999 8.93003 3.01999C8.52003 3.01999 8.18003 3.27999 8.03003 3.63999L9.65003 5.25999C9.78003 4.90999 9.87003 4.53999 9.93003 4.15999V4.15999ZM20.44 18.88L5.12003 3.55999C4.73003 3.16999 4.10003 3.16999 3.71003 3.55999C3.32003 3.94999 3.32003 4.57999 3.71003 4.96999L5.86003 7.11999C5.27003 7.52999 4.60003 7.81999 3.87003 7.93999C3.39003 8.03999 3.03003 8.43999 3.03003 8.93999C3.03003 9.54999 3.57003 10.03 4.17003 9.93999C5.34003 9.74999 6.40003 9.25999 7.30003 8.56999L8.73003 9.99999C7.39003 11.1 5.73003 11.82 3.92003 11.99C3.42003 12.04 3.04003 12.47 3.04003 12.98C3.04003 13.57 3.55003 14.04 4.14003 13.98C6.42003 13.75 8.50003 12.83 10.15 11.42L12.63 13.9C11.23 15.55 10.3 17.62 10.07 19.9C10.01 20.49 10.47 21.01 11.07 21.01C11.57 21.01 12.01 20.64 12.06 20.14C12.24 18.32 12.96 16.66 14.05 15.32L15.48 16.75C14.79 17.65 14.3 18.71 14.11 19.88C14.01 20.48 14.5 21.02 15.11 21.02C15.6 21.02 16.01 20.66 16.09 20.17C16.21 19.44 16.51 18.77 16.91 18.18L19.04 20.31C19.43 20.7 20.06 20.7 20.45 20.31C20.83 19.9 20.83 19.27 20.44 18.88V18.88Z" fill="black"/>
</svg>
