<svg width="24" height="24" viewBox="0 0 24 24" fill="none" xmlns="http://www.w3.org/2000/svg">
<path fill-rule="evenodd" clip-rule="evenodd" d="M12 17C10.3431 17 9 15.6568 9 14C9 12.3431 10.3431 11 12 11C13.6569 11 15 12.3431 15 14C15 15.6568 13.6569 17 12 17ZM16.6 3.36999C16.26 3.32999 16 3.04999 16 2.70999C16 2.31999 16.34 1.99999 16.73 2.04999C19.45 2.37999 21.62 4.54999 21.95 7.26999C22 7.65999 21.68 7.99999 21.29 7.99999C20.95 7.99999 20.67 7.73999 20.63 7.39999C20.37 5.29999 18.7 3.63999 16.6 3.36999V3.36999ZM19.23 7.18999C19.33 7.59999 19.01 7.99999 18.58 7.99999C18.28 7.99999 18.01 7.80999 17.94 7.51999C17.77 6.79999 17.2 6.23999 16.48 6.05999C16.19 5.98999 16 5.70999 16 5.41999C16 4.98999 16.4 4.66999 16.81 4.76999C18 5.06999 18.93 5.99999 19.23 7.18999V7.18999ZM17 8.99999H20C21.1 8.99999 22 9.89999 22 11V20C22 21.1 21.1 22 20 22H4C2.9 22 2 21.1 2 20V7.99999C2 6.89999 2.9 5.99999 4 5.99999H7.17L8.4 4.64999C8.78 4.23999 9.32 3.99999 9.88 3.99999H14C14.55 3.99999 15 4.44999 15 4.99999V6.99999C16.1 6.99999 17 7.89999 17 8.99999ZM12 19C14.76 19 17 16.76 17 14C17 11.24 14.76 8.99999 12 8.99999C9.24 8.99999 7 11.24 7 14C7 16.76 9.24 19 12 19Z" fill="black"/>
</svg>
