<svg width="24" height="24" viewBox="0 0 24 24" fill="none" xmlns="http://www.w3.org/2000/svg">
<path fill-rule="evenodd" clip-rule="evenodd" d="M21.36 6.28L21.3 6.22C20.91 5.83 20.27 5.85 19.91 6.26L17.73 8.71C15.68 6.4 12.83 5 9.60997 5C7.10997 5 4.77997 5.87 2.85997 7.3C2.38997 7.65 2.33997 8.34 2.74997 8.75L2.80997 8.81C3.13997 9.14 3.66997 9.2 4.03997 8.92C5.62997 7.72 7.53997 7 9.60997 7C12.35 7 14.7 8.26 16.38 10.24L13.5 13.48L10.21 10.19C9.81997 9.8 9.18997 9.8 8.79997 10.19L2.67997 16.32C2.30997 16.69 2.30997 17.3 2.67997 17.67L2.82997 17.82C3.19997 18.19 3.80997 18.19 4.17997 17.82L9.49997 12.49L12.75 15.74C13.16 16.15 13.82 16.13 14.2 15.7L17.55 11.94C18.17 13.06 18.63 14.33 18.87 15.67C18.95 16.14 19.34 16.49 19.82 16.49H19.91C20.51 16.49 20.96 15.94 20.85 15.35C20.53 13.5 19.87 11.81 18.96 10.35L21.4 7.6C21.74 7.22 21.72 6.64 21.36 6.28Z" fill="black"/>
</svg>
