<svg width="24" height="24" viewBox="0 0 24 24" fill="none" xmlns="http://www.w3.org/2000/svg">
<path fill-rule="evenodd" clip-rule="evenodd" d="M19 8.99996L22.47 11.6C22.74 11.8 22.74 12.2 22.47 12.4L19 15V13H14.94C14.48 17.69 10.78 21.42 6.11 21.94C5.52 22.01 5 21.54 5 20.94C5 20.44 5.37 20.01 5.87 19.95C9.88 19.52 13 16.13 13 12C13 7.86996 9.88 4.47996 5.87 4.04996C5.37 3.98996 5 3.55996 5 3.05996C5 2.45996 5.52 1.99996 6.12 2.05996C10.79 2.57996 14.48 6.30996 14.95 11H19V8.99996ZM11 13H6.82C6.4 14.16 5.3 15 4 15C2.34 15 1 13.66 1 12C1 10.34 2.34 9 4 9C5.3 9 6.4 9.84 6.82 11H11V13ZM3 12C3 12.55 3.45 13 4 13C4.55 13 5 12.55 5 12C5 11.45 4.55 11 4 11C3.45 11 3 11.45 3 12Z" fill="black"/>
</svg>
