<svg width="24" height="24" viewBox="0 0 24 24" fill="none" xmlns="http://www.w3.org/2000/svg">
<path fill-rule="evenodd" clip-rule="evenodd" d="M4.5 12C3.11929 12 2 10.8807 2 9.5C2 8.11929 3.11929 7 4.5 7C5.88071 7 7 8.11929 7 9.5C7 10.8807 5.88071 12 4.5 12ZM9 8C7.61929 8 6.5 6.88071 6.5 5.5C6.5 4.11929 7.61929 3 9 3C10.3807 3 11.5 4.11929 11.5 5.5C11.5 6.88071 10.3807 8 9 8ZM15 8C13.6193 8 12.5 6.88071 12.5 5.5C12.5 4.11929 13.6193 3 15 3C16.3807 3 17.5 4.11929 17.5 5.5C17.5 6.88071 16.3807 8 15 8ZM19.5 12C18.1193 12 17 10.8807 17 9.5C17 8.11929 18.1193 7 19.5 7C20.8807 7 22 8.11929 22 9.5C22 10.8807 20.8807 12 19.5 12ZM17.34 14.86C18.65 16.17 20.26 17.62 19.95 19.66C19.66 20.67 18.93 21.69 17.62 21.98C16.89 22.12 14.56 21.54 12.08 21.54H11.9C9.42 21.54 7.09 22.13 6.36 21.98C5.05 21.69 4.32 20.68 4.03 19.66C3.73 17.63 5.34 16.18 6.65 14.87C7.53 13.85 8.26 12.98 9.13 11.96C9.6 11.42 10.18 10.88 10.88 10.64C10.99 10.6 11.1 10.57 11.21 10.55C11.47 10.5 11.74 10.5 12 10.5C12.26 10.5 12.53 10.5 12.78 10.54C12.89 10.56 13 10.59 13.11 10.63C13.81 10.87 14.4 11.41 14.86 11.95C15.74 12.97 16.47 13.84 17.34 14.86V14.86Z" fill="black"/>
</svg>
