<svg width="24" height="24" viewBox="0 0 24 24" fill="none" xmlns="http://www.w3.org/2000/svg">
<path d="M13 18H11V16H13V18ZM8.99998 15V19C8.99998 19.55 9.44998 20 9.99998 20H14C14.55 20 15 19.55 15 19V15C15 14.45 14.55 14 14 14H9.99998C9.44998 14 8.99998 14.45 8.99998 15ZM19 9.3V5C19 4.45 18.55 4 18 4H17C16.45 4 16 4.45 16 5V6.6L12.67 3.6C12.29 3.26 11.71 3.26 11.33 3.6L2.96998 11.13C2.62998 11.43 2.83998 12 3.29998 12H4.60998C4.85998 12 5.09998 11.91 5.27998 11.74L12 5.69L18.71 11.74C18.9 11.91 19.14 12 19.38 12H20.69C21.15 12 21.37 11.43 21.02 11.13L19 9.3Z" fill="black"/>
</svg>
