<svg width="24" height="24" viewBox="0 0 24 24" fill="none" xmlns="http://www.w3.org/2000/svg">
<path fill-rule="evenodd" clip-rule="evenodd" d="M5.92995 7.83L2.27995 11.49C1.49995 12.27 1.49995 13.54 2.27995 14.32L5.93995 17.98C6.71995 18.76 7.98995 18.76 8.76995 17.98L12.4299 14.33C13.2099 13.55 13.2099 12.28 12.4299 11.5L8.75995 7.82C7.96995 7.04 6.70995 7.04 5.92995 7.83ZM4.39995 12.19L6.64995 9.94C7.03995 9.55 7.66995 9.55 8.06995 9.94L10.3099 12.18C10.6999 12.57 10.6999 13.2 10.3099 13.59L8.05995 15.84C7.66995 16.23 7.03995 16.23 6.63995 15.84L4.39995 13.61C4.00995 13.22 4.00995 12.58 4.39995 12.19ZM19.3599 6.64C17.6099 4.88 15.2999 4 12.9999 4V3.17C12.9999 2.28 11.9199 1.83 11.2899 2.46L9.46995 4.29C9.07995 4.68 9.07995 5.31 9.46995 5.7L11.2999 7.53C11.9199 8.16 12.9999 7.72 12.9999 6.83V6C15.0199 6 17.0299 6.86 18.4499 8.61C20.4999 11.13 20.4999 14.88 18.4499 17.4C17.0299 19.14 15.0199 20 12.9999 20C12.2199 20 11.4499 19.87 10.7099 19.61C10.3499 19.49 9.95995 19.6 9.68995 19.87C9.18995 20.37 9.34995 21.26 10.0299 21.49C10.9899 21.83 11.9899 22 12.9999 22C15.2999 22 17.6099 21.12 19.3599 19.36C22.8799 15.85 22.8799 10.15 19.3599 6.64V6.64Z" fill="black"/>
</svg>
