<svg width="24" height="24" viewBox="0 0 24 24" fill="none" xmlns="http://www.w3.org/2000/svg">
<path fill-rule="evenodd" clip-rule="evenodd" d="M19.8 9.70004L5.15 4.35004C4.63 4.16004 4.05 4.43004 3.85 4.95004C3.66 5.48004 3.93 6.06004 4.45 6.25004L17.6 11H5C3.9 11 3 11.9 3 13V17C3 18.1 3.9 19 5 19H19C20.1 19 21 18.1 21 17V11.5C21 10.7 20.5 9.90004 19.8 9.70004ZM7 16H5V14H7V16ZM18 16H10C9.45 16 9 15.55 9 15C9 14.45 9.45 14 10 14H18C18.55 14 19 14.45 19 15C19 15.55 18.55 16 18 16Z" fill="black"/>
</svg>
