<svg width="24" height="24" viewBox="0 0 24 24" fill="none" xmlns="http://www.w3.org/2000/svg">
<path fill-rule="evenodd" clip-rule="evenodd" d="M20.5 13H22V16H20.5V13ZM18 13H19.5V16H18V13ZM17 14.5C17 13.67 16.33 13 15.5 13H14.66L16.84 15.18C16.94 14.97 17 14.74 17 14.5ZM18.85 4.73C19.23 4.35 19.52 3.89 19.69 3.38C19.85 2.88 19.5 2.37 18.98 2.36C18.64 2.37 18.37 2.61 18.26 2.94C18.08 3.49 17.64 3.93 17.09 4.11C16.75 4.22 16.5 4.5 16.5 4.85V5C16.5 5.37 16.77 5.69 17.14 5.75C19.07 6.06 20.5 7.75 20.5 9.77V11.25C20.5 11.66 20.84 12 21.25 12C21.66 12 22 11.66 22 11.25V9.76C22 7.54 20.72 5.62 18.85 4.73V4.73ZM14.61 8.65H16.03C17.08 8.65 18 9.39 18 10.7V11.25C18 11.66 18.33 12 18.75 12H18.76C19.17 12 19.51 11.67 19.51 11.25V10.36C19.51 8.55 17.91 7.2 16.04 7.2H14.74C13.72 7.2 12.8 6.47 12.67 5.45C12.55 4.5 13.13 3.75 13.97 3.52C14.29 3.43 14.51 3.14 14.51 2.8C14.51 2.31 14.05 1.94 13.58 2.08C12.16 2.49 11.13 3.81 11.16 5.36C11.18 7.21 12.77 8.65 14.61 8.65ZM4.12 5.29C3.73 4.9 3.1 4.9 2.71 5.29C2.32 5.68 2.32 6.31 2.71 6.7L9 13H3.5C2.67 13 2 13.67 2 14.5C2 15.33 2.67 16 3.5 16H12L18.29 22.29C18.68 22.68 19.31 22.68 19.7 22.29C20.09 21.9 20.09 21.27 19.7 20.88L4.12 5.29Z" fill="black"/>
</svg>
