<svg width="24" height="24" viewBox="0 0 24 24" fill="none" xmlns="http://www.w3.org/2000/svg">
<path fill-rule="evenodd" clip-rule="evenodd" d="M10 11H12.63L8.91001 15.35C8.36001 16 8.82001 17 9.67001 17H14C14.55 17 15 16.55 15 16C15 15.45 14.55 15 14 15H11.37L15.09 10.65C15.64 10 15.18 9.00002 14.33 9.00002H10C9.45001 9.00002 9.00001 9.45002 9.00001 10C9.00001 10.55 9.45001 11 10 11ZM21.3 6.42002C20.95 6.84002 20.32 6.90002 19.89 6.55002L16.82 3.99002C16.4 3.63002 16.34 3.00002 16.7 2.58002C17.05 2.16002 17.68 2.10002 18.11 2.45002L21.18 5.01002C21.6 5.37002 21.66 6.00002 21.3 6.42002ZM2.70001 6.42002C3.05001 6.85002 3.68001 6.90002 4.10001 6.55002L7.17001 3.99002C7.60001 3.63002 7.66001 3.00002 7.30001 2.58002C6.95001 2.15002 6.32001 2.10002 5.90001 2.45002L2.82001 5.01002C2.40001 5.37002 2.34001 6.00002 2.70001 6.42002ZM12 6.00002C15.86 6.00002 19 9.14002 19 13C19 16.86 15.86 20 12 20C8.14001 20 5.00001 16.86 5.00001 13C5.00001 9.14002 8.14001 6.00002 12 6.00002V6.00002ZM12 4.00002C7.03001 4.00002 3.00001 8.03002 3.00001 13C3.00001 17.97 7.03001 22 12 22C16.97 22 21 17.97 21 13C21 8.03002 16.97 4.00002 12 4.00002Z" fill="black"/>
</svg>
