<svg width="24" height="24" viewBox="0 0 24 24" fill="none" xmlns="http://www.w3.org/2000/svg">
<path fill-rule="evenodd" clip-rule="evenodd" d="M19.2907 10.4904C19.3029 10.3148 19.3614 10.1455 19.46 9.99976C19.5559 9.84834 19.6907 9.72547 19.8504 9.64402C20.0101 9.56257 20.1887 9.52553 20.3676 9.53677C20.5464 9.54802 20.719 9.60713 20.8672 9.70793C21.0154 9.80874 21.1338 9.94752 21.21 10.1098C21.8115 11.5333 22.0749 13.0769 21.9794 14.6194C21.884 16.1618 21.4324 17.6612 20.66 18.9998C20.4838 19.305 20.2301 19.5582 19.9245 19.7338C19.619 19.9094 19.2724 20.0012 18.92 19.9998H5.07C4.72098 19.9977 4.37858 19.9042 4.07683 19.7288C3.77509 19.5534 3.52451 19.302 3.35 18.9998C2.295 17.1818 1.83965 15.0776 2.04865 12.9861C2.25765 10.8946 3.12037 8.92218 4.51426 7.34894C5.90815 5.7757 7.76232 4.68167 9.81341 4.22226C11.8645 3.76285 14.0082 3.96142 15.94 4.78976C16.1082 4.8589 16.2544 4.9726 16.3628 5.11864C16.4712 5.26468 16.5377 5.43751 16.5552 5.61854C16.5727 5.79958 16.5405 5.98195 16.462 6.14603C16.3836 6.31012 16.2619 6.4497 16.11 6.54976C15.9642 6.6484 15.795 6.70682 15.6194 6.71911C15.4438 6.7314 15.2681 6.69713 15.11 6.61976C14.4369 6.3337 13.7264 6.14514 13 6.05976C11.5644 5.87255 10.1049 6.07843 8.77709 6.65545C7.44928 7.23247 6.30294 8.159 5.46028 9.33626C4.61762 10.5135 4.11023 11.8974 3.99219 13.3403C3.87414 14.7833 4.14988 16.2312 4.79 17.5298C4.87447 17.6928 5.0022 17.8294 5.1592 17.9247C5.31619 18.02 5.49638 18.0701 5.68 18.0698H18.33C18.5126 18.0711 18.6921 18.0224 18.849 17.929C19.0059 17.8355 19.1342 17.7009 19.22 17.5398C19.9267 16.0703 20.1674 14.4199 19.91 12.8098C19.8129 12.1871 19.6382 11.579 19.39 10.9998C19.3126 10.8417 19.2784 10.6659 19.2907 10.4904ZM10.0039 14.0052C10.0039 13.4744 10.2147 12.9655 10.59 12.5902L19.08 6.93018L13.42 15.4202C13.0447 15.7955 12.5357 16.0063 12.005 16.0063C11.7422 16.0063 11.482 15.9545 11.2392 15.854C10.9964 15.7534 10.7758 15.606 10.59 15.4202C10.4042 15.2344 10.2568 15.0138 10.1562 14.771C10.0557 14.5282 10.0039 14.268 10.0039 14.0052Z" fill="black"/>
</svg>
