<svg width="24" height="24" viewBox="0 0 24 24" fill="none" xmlns="http://www.w3.org/2000/svg">
<path fill-rule="evenodd" clip-rule="evenodd" d="M17.6501 4L13.6001 12.84L15.0001 16H19.0001V20L14.3101 19.99C13.9301 19.99 13.5901 19.78 13.4201 19.44L12.0001 16.34L11.9201 16.16L10.4001 12.84L6.3501 4H9.7001L12.0001 9.21L12.0501 9.07L12.5401 7.97L14.3001 4H17.6501ZM5 16.0001H9L9.86 14.0601L11.45 17.5401L10.58 19.4401C10.41 19.7801 10.07 19.9901 9.69 19.9901L5 20.0001V16.0001ZM2 20V17C2 16.45 2.45 16 3 16H4V20H2ZM21.71 16.29C21.53 16.11 21.28 16 21 16H20V20H22V17C22 16.72 21.89 16.47 21.71 16.29Z" fill="black"/>
</svg>
