<svg width="24" height="24" viewBox="0 0 24 24" fill="none" xmlns="http://www.w3.org/2000/svg">
<path fill-rule="evenodd" clip-rule="evenodd" d="M12.98 4.0201C17.4 3.7301 21.55 6.8101 21.96 11.2201C22.41 15.9901 18.67 20.0001 14 20.0001H4C2.9 20.0001 2 19.1001 2 18.0001V17.2001C2 17.2001 2 16.3101 2.21 15.0001H10.38C12.37 15.0001 13.99 13.3801 13.99 11.3901C13.99 9.9401 13.12 8.6401 11.79 8.0701L7.05 6.0601C8.54 4.9601 10.47 4.1801 12.98 4.0201ZM11.0201 9.91005C11.6101 10.16 12.0001 10.74 12.0001 11.39C12.0001 12.28 11.2801 13 10.3901 13H2.64014C3.12014 11.25 3.96014 9.23005 5.44014 7.55005L11.0201 9.91005Z" fill="black"/>
</svg>
