<svg width="24" height="24" viewBox="0 0 24 24" fill="none" xmlns="http://www.w3.org/2000/svg">
<path fill-rule="evenodd" clip-rule="evenodd" d="M4.99995 6H19C19.55 6 20 5.55 20 5C20 4.45 19.55 4 19 4H4.99995C4.44995 4 3.99995 4.45 3.99995 5C3.99995 5.55 4.44995 6 4.99995 6ZM20.16 7.8C20.07 7.34 19.66 7 19.18 7H4.81995C4.33995 7 3.92995 7.34 3.83995 7.8L2.83995 12.8C2.71995 13.42 3.18995 14 3.81995 14H3.99995V19C3.99995 19.55 4.44995 20 4.99995 20H13C13.55 20 14 19.55 14 19V14H18V19C18 19.55 18.45 20 19 20C19.55 20 20 19.55 20 19V14H20.18C20.81 14 21.28 13.42 21.16 12.8L20.16 7.8ZM12 18H5.99995V14H12V18Z" fill="black"/>
</svg>
