<svg width="24" height="24" viewBox="0 0 24 24" fill="none" xmlns="http://www.w3.org/2000/svg">
<path fill-rule="evenodd" clip-rule="evenodd" d="M19.5799 3.08L3.14995 19.51C3.23995 19.85 3.41995 20.16 3.65995 20.41C3.90995 20.65 4.21995 20.83 4.55995 20.92L20.9999 4.49C20.8099 3.8 20.2699 3.26 19.5799 3.08ZM11.9499 3L3.06995 11.88V14.71L14.7799 3H11.9499ZM5.06995 3C3.96995 3 3.06995 3.9 3.06995 5V7L7.06995 3H5.06995ZM19.0699 21C19.6199 21 20.1199 20.78 20.4799 20.41C20.8499 20.05 21.0699 19.55 21.0699 19V17L17.0699 21H19.0699ZM9.35995 21H12.1899L21.0699 12.12V9.29L9.35995 21Z" fill="black"/>
</svg>
