<svg width="24" height="24" viewBox="0 0 24 24" fill="none" xmlns="http://www.w3.org/2000/svg">
<path fill-rule="evenodd" clip-rule="evenodd" d="M11 9V3H22V9.5C22 12.54 19.54 15 16.5 15C15.6 15 14.75 14.77 14 14.39V14V11.5H19C19 10.67 17.88 10 16.5 10C15.12 10 14 10.67 14 11.5V9H11ZM13 7.08C13 7.63 13.45 8.08 14 8.08C14.55 8.08 15 7.64 15 7.08C15 6.53 14.55 6.08 14 6.08C13.45 6.08 13 6.53 13 7.08ZM18 7.08C18 7.63 18.45 8.08 19 8.08C19.55 8.08 20 7.64 20 7.08C20 6.53 19.55 6.08 19 6.08C18.45 6.08 18 6.53 18 7.08ZM7.5 22C4.46 22 2 19.54 2 16.5V10H13V16.5C13 19.54 10.54 22 7.5 22ZM5 17C5 17.83 6.12 18.5 7.5 18.5C8.88 18.5 10 17.83 10 17H5ZM11 14C11 13.45 10.55 13 10 13C9.45 13 9 13.45 9 14C9 14.55 9.45 15 10 15C10.55 15 11 14.55 11 14ZM6 14C6 13.45 5.55 13 5 13C4.45 13 4 13.45 4 14C4 14.55 4.45 15 5 15C5.55 15 6 14.55 6 14Z" fill="black"/>
</svg>
