<svg width="24" height="24" viewBox="0 0 24 24" fill="none" xmlns="http://www.w3.org/2000/svg">
<path fill-rule="evenodd" clip-rule="evenodd" d="M9.00002 9.24V5.5C9.00002 4.12 10.12 3 11.5 3C12.88 3 14 4.12 14 5.5V9.24C15.21 8.43 16 7.06 16 5.5C16 3.01 13.99 1 11.5 1C9.01002 1 7.00002 3.01 7.00002 5.5C7.00002 7.06 7.79002 8.43 9.00002 9.24ZM14.5 11.71C14.22 11.57 13.92 11.5 13.61 11.5H13V5.5C13 4.67 12.33 4 11.5 4C10.67 4 10 4.67 10 5.5V16.24L6.56002 15.52C6.19002 15.44 5.80002 15.56 5.53002 15.83C5.10002 16.27 5.10002 16.97 5.53002 17.41L9.54002 21.42C9.92002 21.79 10.43 22 10.96 22H17.06C18.06 22 18.9 21.27 19.04 20.28L19.67 15.81C19.79 14.96 19.35 14.12 18.58 13.74L14.5 11.71V11.71Z" fill="black"/>
</svg>
