<svg width="24" height="24" viewBox="0 0 24 24" fill="none" xmlns="http://www.w3.org/2000/svg">
<path fill-rule="evenodd" clip-rule="evenodd" d="M4 6H20C20.55 6 21 6.45 21 7V11H23V6C23 4.9 22.1 4 21 4H3C1.9 4 1 4.9 1 6V18C1 19.1 1.9 20 3 20H12V18H4C3.45 18 3 17.55 3 17V7C3 6.45 3.45 6 4 6ZM15 12L9 8V16L15 12ZM22.72 17.57C22.75 17.85 22.74 18.14 22.71 18.43L23.77 19.28C23.87 19.36 23.89 19.49 23.83 19.6L22.8 21.39C22.74 21.5 22.61 21.55 22.49 21.5L21.21 21C20.98 21.16 20.73 21.31 20.47 21.42L20.27 22.78C20.25 22.9 20.14 22.99 20.02 22.99H17.95C17.82 22.99 17.72 22.9 17.7 22.78L17.5 21.42C17.23 21.31 16.98 21.17 16.75 21L15.48 21.5C15.36 21.54 15.23 21.5 15.17 21.39L14.14 19.6C14.08 19.49 14.1 19.36 14.2 19.28L15.27 18.43C15.24 18.15 15.25 17.86 15.28 17.57L14.21 16.71C14.11 16.63 14.09 16.5 14.15 16.39L15.18 14.6C15.24 14.49 15.37 14.44 15.49 14.49L16.77 14.99C17 14.83 17.25 14.68 17.51 14.57L17.71 13.21C17.73 13.09 17.84 13 17.96 13H20.03C20.16 13 20.26 13.09 20.28 13.22L20.48 14.58C20.75 14.69 21 14.83 21.23 15L22.51 14.5C22.63 14.46 22.76 14.5 22.82 14.61L23.85 16.4C23.91 16.51 23.89 16.64 23.79 16.72L22.72 17.57ZM17.5 18C17.5 18.83 18.17 19.5 19 19.5C19.83 19.5 20.5 18.83 20.5 18C20.5 17.17 19.83 16.5 19 16.5C18.17 16.5 17.5 17.17 17.5 18Z" fill="black"/>
</svg>
