<svg width="24" height="24" viewBox="0 0 24 24" fill="none" xmlns="http://www.w3.org/2000/svg">
<path fill-rule="evenodd" clip-rule="evenodd" d="M12.72 2.02995C6.63001 1.59995 1.60001 6.62995 2.03001 12.7199C2.39001 18.0099 7.01001 21.9999 12.31 21.9999H16C16.55 21.9999 17 21.5499 17 20.9999C17 20.4499 16.55 19.9999 16 19.9999H12.33C8.60001 19.9999 5.18001 17.5799 4.25001 13.9699C2.76001 8.16995 8.16001 2.75995 13.96 4.25995C17.58 5.17995 20 8.59995 20 12.3299V13.4299C20 14.2199 19.29 14.9999 18.5 14.9999C17.71 14.9999 17 14.2199 17 13.4299V12.1799C17 9.66995 15.22 7.40995 12.74 7.05995C9.34001 6.56995 6.47001 9.50995 7.08001 12.9299C7.42001 14.8399 8.91001 16.4199 10.8 16.8699C12.64 17.2999 14.39 16.7099 15.54 15.5399C16.43 16.7599 18.21 17.3999 19.84 16.7499C21.18 16.2199 22 14.8499 22 13.4099V12.3199C22 7.00995 18.01 2.38995 12.72 2.02995ZM12 14.9999C10.34 14.9999 9.00001 13.6599 9.00001 11.9999C9.00001 10.3399 10.34 8.99995 12 8.99995C13.66 8.99995 15 10.3399 15 11.9999C15 13.6599 13.66 14.9999 12 14.9999Z" fill="#969696"/>
</svg>
