<svg width="24" height="24" viewBox="0 0 24 24" fill="none" xmlns="http://www.w3.org/2000/svg">
<path fill-rule="evenodd" clip-rule="evenodd" d="M4.50997 15.48L6.50997 13.89C6.98997 13.51 7.26997 12.93 7.26997 12.32V9.71999C10.29 8.73999 13.56 8.72999 16.59 9.71999V12.33C16.59 12.94 16.87 13.52 17.35 13.9L19.34 15.48C20.14 16.11 21.28 16.05 22 15.33L23.22 14.11C24.02 13.31 24.02 11.98 23.17 11.23C16.76 5.56999 7.09997 5.56999 0.689974 11.23C-0.160026 11.98 -0.160026 13.31 0.639974 14.11L1.85997 15.33C2.56997 16.05 3.70997 16.11 4.50997 15.48Z" fill="#969696"/>
</svg>
