<svg width="24" height="24" viewBox="0 0 24 24" fill="none" xmlns="http://www.w3.org/2000/svg">
<path fill-rule="evenodd" clip-rule="evenodd" d="M8.40999 22H20C21.1 22 22 21.1 22 20V8.39C22 7.5 20.92 7.05 20.29 7.68L7.69999 20.29C7.06999 20.92 7.51999 22 8.40999 22Z" fill="#969696"/>
<path fill-rule="evenodd" clip-rule="evenodd" d="M7.71 20.29C7.08 20.92 7.52 22 8.41 22H18V9.98004L7.71 20.29ZM9.07 11.07L11 13L12.93 11.07C11.86 10.01 10.14 10.01 9.07 11.07V11.07ZM8.37 9.30004C9.94 8.18004 12.07 8.18004 13.64 9.30004C14 9.56004 14.49 9.52004 14.8 9.20004C15.19 8.81004 15.15 8.14004 14.7 7.82004C12.5 6.25004 9.51 6.25004 7.3 7.82004C6.85 8.14004 6.8 8.81004 7.2 9.20004C7.52 9.52004 8.01 9.56004 8.37 9.30004ZM16.21 6.69004C16.55 6.97004 17.04 6.97004 17.35 6.66004L17.47 6.54004C17.82 6.19004 17.78 5.62004 17.39 5.30004C13.72 2.25004 8.37 2.23004 4.69 5.24004C4.26 5.59004 4.22 6.23004 4.61 6.61004C4.93 6.94004 5.45 6.98004 5.8 6.69004C8.81 4.21004 13.2 4.21004 16.21 6.69004V6.69004Z" fill="#969696"/>
</svg>
