<svg width="24" height="24" viewBox="0 0 24 24" fill="none" xmlns="http://www.w3.org/2000/svg">
<path fill-rule="evenodd" clip-rule="evenodd" d="M12 5.10001V9.15001L19.4 16.55C20.55 13.67 19.99 10.27 17.65 7.94001L12.71 2.99001C12.32 2.60001 11.69 2.60001 11.3 2.99001L8.56002 5.71001L9.97002 7.12001L12 5.10001ZM3.69002 5.08001C3.30002 5.47001 3.30002 6.10001 3.69002 6.49001L5.77002 8.57001C3.23002 11.71 3.42002 16.32 6.34002 19.25C7.90002 20.8 9.95002 21.58 12 21.58C13.78 21.58 15.56 20.99 17.02 19.81L19.02 21.81C19.41 22.2 20.04 22.2 20.43 21.81C20.82 21.42 20.82 20.79 20.43 20.4L5.11002 5.08001C4.72002 4.69001 4.08002 4.69001 3.69002 5.08001ZM12 19.59C10.4 19.59 8.89002 18.97 7.76002 17.83C6.62002 16.69 6.00002 15.19 6.00002 13.59C6.00002 12.27 6.43002 11.03 7.21002 10L12 14.79V19.59Z" fill="#969696"/>
</svg>
