<svg width="24" height="24" viewBox="0 0 24 24" fill="none" xmlns="http://www.w3.org/2000/svg">
<path fill-rule="evenodd" clip-rule="evenodd" d="M14.48 11.9499C14.65 11.9699 14.82 11.9999 15 11.9999C17.21 11.9999 19 10.2099 19 7.99994C19 5.78994 17.21 3.99994 15 3.99994C12.79 3.99994 11 5.78994 11 7.99994C11 8.17994 11.03 8.34994 11.05 8.51994L14.48 11.9499ZM16.69 14.1599L22.43 19.8999C22.76 19.7299 23 19.3999 23 18.9999V17.9999C23 15.8599 19.44 14.4999 16.69 14.1599ZM2.12 2.41994C1.73 2.02994 1.1 2.02994 0.710003 2.41994C0.320003 2.80994 0.320003 3.43994 0.710003 3.82994L4 7.11994V9.99994H2C1.45 9.99994 1 10.4499 1 10.9999C1 11.5499 1.45 11.9999 2 11.9999H4V13.9999C4 14.5499 4.45 14.9999 5 14.9999C5.55 14.9999 6 14.5499 6 13.9999V11.9999H8.88L11.39 14.5099C9.19 15.1099 7 16.2999 7 17.9999V18.9999C7 19.5499 7.45 19.9999 8 19.9999H16.88L20.17 23.2899C20.56 23.6799 21.19 23.6799 21.58 23.2899C21.97 22.8999 21.97 22.2699 21.58 21.8799L2.12 2.41994ZM6 9.99994V9.11994L6.88 9.99994H6Z" fill="#969696"/>
</svg>
