<svg width="24" height="24" viewBox="0 0 24 24" fill="none" xmlns="http://www.w3.org/2000/svg">
<path fill-rule="evenodd" clip-rule="evenodd" d="M21 9H14C13.45 9 13 8.55 13 8C13 7.45 13.45 7 14 7H21C21.55 7 22 7.45 22 8C22 8.55 21.55 9 21 9ZM14 15H21C21.55 15 22 15.45 22 16C22 16.55 21.55 17 21 17H14C13.45 17 13 16.55 13 16C13 15.45 13.45 15 14 15ZM21 11H17C16.45 11 16 11.45 16 12C16 12.55 16.45 13 17 13H21C21.55 13 22 12.55 22 12C22 11.45 21.55 11 21 11ZM8 8.21018C8 7.76018 8.54 7.54018 8.85 7.85018L12.64 11.6402C12.84 11.8402 12.84 12.1502 12.64 12.3502L8.85 16.1402C8.54 16.4602 8 16.2402 8 15.7902V13.0002H3C2.45 13.0002 2 12.5502 2 12.0002C2 11.4502 2.45 11.0002 3 11.0002H8V8.21018Z" fill="#969696"/>
</svg>
