<svg width="24" height="24" viewBox="0 0 24 24" fill="none" xmlns="http://www.w3.org/2000/svg">
<path fill-rule="evenodd" clip-rule="evenodd" d="M7.75999 7.83L7.77999 7.85C8.12999 8.2 8.66999 8.23 9.07999 7.94C9.90999 7.37 10.92 7.02 12 7.02C13.08 7.02 14.09 7.37 14.92 7.95C15.32 8.24 15.87 8.21 16.22 7.86L16.24 7.84C16.66 7.42 16.63 6.7 16.15 6.35C14.98 5.5 13.55 5 12 5C10.45 5 9.01999 5.5 7.85999 6.34C7.36999 6.69 7.33999 7.41 7.75999 7.83ZM12 1C9.37999 1 6.96999 1.93 5.07999 3.47C4.61999 3.84 4.56999 4.53 4.99999 4.96C5.35999 5.32 5.92999 5.35 6.31999 5.03C7.85999 3.76 9.84999 3 12 3C14.15 3 16.14 3.76 17.69 5.03C18.08 5.35 18.65 5.32 19.01 4.96C19.43 4.54 19.39 3.85 18.93 3.47C17.03 1.93 14.62 1 12 1ZM14.86 10.01L9.13999 10C8.50999 10 7.99999 10.51 7.99999 11.14V20.85C7.99999 21.48 8.50999 21.99 9.13999 21.99H14.85C15.48 21.99 15.99 21.48 15.99 20.85V11.14C16 10.51 15.49 10.01 14.86 10.01V10.01ZM15 20H8.99999V12H15V20Z" fill="#969696"/>
</svg>
