<svg width="24" height="24" viewBox="0 0 24 24" fill="none" xmlns="http://www.w3.org/2000/svg">
<path fill-rule="evenodd" clip-rule="evenodd" d="M17.65 4.35002L14.86 7.14002C14.54 7.46002 14.76 8.00002 15.21 8.00002H17V14.88C17 15.88 16.33 16.81 15.34 16.97C14.09 17.18 13 16.21 13 15V8.17002C13 6.08002 11.47 4.22002 9.39 4.02002C7.01 3.79002 5 5.66002 5 8.00002V15H3.21C2.76 15 2.54 15.54 2.86 15.85L5.65 18.64C5.85 18.84 6.16 18.84 6.36 18.64L9.15 15.85C9.46 15.54 9.24 15 8.79 15H7V8.12002C7 7.12002 7.67 6.19002 8.66 6.03002C9.91 5.82002 11 6.79002 11 8.00002V14.83C11 16.92 12.53 18.78 14.61 18.98C16.99 19.21 19 17.34 19 15V8.00002H20.79C21.24 8.00002 21.46 7.46002 21.14 7.15002L18.35 4.36002C18.16 4.16002 17.84 4.16002 17.65 4.35002V4.35002Z" fill="#969696"/>
</svg>
