<svg width="24" height="24" viewBox="0 0 24 24" fill="none" xmlns="http://www.w3.org/2000/svg">
<path fill-rule="evenodd" clip-rule="evenodd" d="M11.52 4V2.21C11.52 1.76 11.0016 1.54 10.704 1.86L8.01603 4.65C7.82403 4.85 7.82403 5.16 8.01603 5.36L10.6944 8.15C11.0016 8.46 11.52 8.24 11.52 7.79V6C14.6976 6 17.28 8.69 17.28 12C17.28 12.79 17.136 13.56 16.8576 14.25C16.7136 14.61 16.8192 15.02 17.0784 15.29C17.568 15.8 18.3936 15.62 18.6528 14.95C19.008 14.04 19.2 13.04 19.2 12C19.2 7.58 15.7632 4 11.52 4ZM11.52 18C8.34243 18 5.76003 15.31 5.76003 12C5.76003 11.21 5.90403 10.44 6.18243 9.75C6.32643 9.39 6.22083 8.98 5.96163 8.71C5.47203 8.2 4.64643 8.38 4.38723 9.05C4.03203 9.96 3.84003 10.96 3.84003 12C3.84003 16.42 7.27683 20 11.52 20V21.79C11.52 22.24 12.0384 22.46 12.336 22.14L15.0144 19.35C15.2064 19.15 15.2064 18.84 15.0144 18.64L12.336 15.85C12.0384 15.54 11.52 15.76 11.52 16.21V18Z" fill="black"/>
</svg>
