<svg width="24" height="24" viewBox="0 0 24 24" fill="none" xmlns="http://www.w3.org/2000/svg">
<path fill-rule="evenodd" clip-rule="evenodd" d="M5.28003 21V14.5H4.80003C4.27203 14.5 3.84003 14.05 3.84003 13.5V9C3.84003 7.9 4.70403 7 5.76003 7H8.64003C9.69603 7 10.56 7.9 10.56 9V13.5C10.56 14.05 10.128 14.5 9.60003 14.5H9.12003V21C9.12003 21.55 8.68803 22 8.16003 22H6.24003C5.71203 22 5.28003 21.55 5.28003 21ZM17.28 21V16H18.8256C19.4784 16 19.9392 15.33 19.7376 14.68L17.7216 8.37C17.4528 7.55 16.7232 7 15.8976 7H15.7824C14.9568 7 14.2176 7.55 13.9584 8.37L11.9424 14.68C11.7312 15.33 12.192 16 12.8544 16H14.4V21C14.4 21.55 14.832 22 15.36 22H16.32C16.848 22 17.28 21.55 17.28 21ZM7.20003 6C8.26563 6 9.12003 5.11 9.12003 4C9.12003 2.89 8.26563 2 7.20003 2C6.13443 2 5.28003 2.89 5.28003 4C5.28003 5.11 6.13443 6 7.20003 6ZM15.84 6C16.9056 6 17.76 5.11 17.76 4C17.76 2.89 16.9056 2 15.84 2C14.7744 2 13.92 2.89 13.92 4C13.92 5.11 14.7744 6 15.84 6Z" fill="black"/>
</svg>
