<svg width="24" height="24" viewBox="0 0 24 24" fill="none" xmlns="http://www.w3.org/2000/svg">
<path d="M8 7.73244C8.5978 7.38663 9 6.74028 9 6C9 4.89543 8.10457 4 7 4C5.89543 4 5 4.89543 5 6C5 6.74028 5.4022 7.38663 6 7.73244V11C6 12.1046 6.89543 13 8 13H11V16.2676C10.4022 16.6134 10 17.2597 10 18C10 19.1046 10.8954 20 12 20C13.1046 20 14 19.1046 14 18C14 17.2597 13.5978 16.6134 13 16.2676V13H16C17.1046 13 18 12.1046 18 11V7.73244C18.5978 7.38663 19 6.74028 19 6C19 4.89543 18.1046 4 17 4C15.8954 4 15 4.89543 15 6C15 6.74028 15.4022 7.38663 16 7.73244V11H8V7.73244Z" fill="black"/>
</svg>
