<svg width="24" height="24" viewBox="0 0 24 24" fill="none" xmlns="http://www.w3.org/2000/svg">
<path fill-rule="evenodd" clip-rule="evenodd" d="M9 4C8.45 4 8 4.45 8 5V5.17L6.13 3.3C6.42 2.54 7.14 2 8 2H16C17.1 2 18 2.89 18 4V7.18C18 7.71 17.79 8.22 17.41 8.6L14.41 11.59L13.16 10.34L16 7.5V5C16 4.45 15.55 4 15 4H9ZM1.40002 2.81008C1.79002 2.42008 2.42002 2.42008 2.81002 2.81008L21.19 21.2001C21.58 21.5901 21.58 22.2201 21.19 22.6101C20.8 23.0001 20.17 23.0001 19.78 22.6101L17.87 20.7001C17.58 21.4601 16.86 22.0001 16 22.0001H8.00002C6.90002 22.0001 6.00002 21.1001 6.00002 20.0001V16.8401C6.00002 16.3101 6.21002 15.8001 6.58002 15.4201L9.58002 12.4101L1.39002 4.22008C1.00002 3.83008 1.00002 3.20008 1.40002 2.81008ZM15 20.0001C15.55 20.0001 16 19.5501 16 19.0001V18.8301L10.84 13.6601L8.00002 16.5001V19.0001C8.00002 19.5501 8.45002 20.0001 9.00002 20.0001H15Z" fill="black"/>
</svg>
