<svg width="24" height="24" viewBox="0 0 24 24" fill="none" xmlns="http://www.w3.org/2000/svg">
<path fill-rule="evenodd" clip-rule="evenodd" d="M14 4C14.55 4 15 3.55 15 3C15 2.45 14.55 2 14 2H11.5L10.79 1.29C10.61 1.11 10.35 1 10.09 1H5.91C5.65 1 5.39 1.11 5.21 1.29L4.5 2H2C1.45 2 1 2.45 1 3C1 3.55 1.45 4 2 4H14ZM16 9C15.3 9 14.63 9.1 14 9.29V7C14 5.9 13.1 5 12 5H4C2.9 5 2 5.9 2 7V17C2 18.1 2.9 19 4 19H9.68C10.8 21.36 13.21 23 16 23C19.87 23 23 19.87 23 16C23 12.13 19.87 9 16 9ZM16 21C13.24 21 11 18.76 11 16C11 13.24 13.24 11 16 11C18.76 11 21 13.24 21 16C21 18.76 18.76 21 16 21ZM15 13.75C15 13.34 15.34 13 15.75 13C16.16 13 16.5 13.34 16.5 13.75V17.2L18.74 18.52C19.1 18.73 19.21 19.2 18.98 19.54C18.77 19.85 18.35 19.95 18.02 19.76L15.5 18.29C15.19 18.11 15 17.79 15 17.43V13.75Z" fill="#969696"/>
</svg>
