<svg width="24" height="24" viewBox="0 0 24 24" fill="none" xmlns="http://www.w3.org/2000/svg">
<path fill-rule="evenodd" clip-rule="evenodd" d="M12 6C10.8954 6 10 5.10457 10 4C10 2.89543 10.8954 2 12 2C13.1046 2 14 2.89543 14 4C14 5.10457 13.1046 6 12 6ZM19 11.9C19 12.53 18.42 13 17.8 12.87C16.4 12.59 15 11.88 14 11.05V14.5H17C18.1 14.5 19 15.4 19 16.5V21C19 21.55 18.55 22 18 22C17.45 22 17 21.55 17 21V17H12C10.9 17 10 16.1 10 15V9.1C10 8.07 10.73 7.15 11.75 7.03C12.22 6.97 12.63 7.07 13 7.28H13.01C13.02 7.28 13.02 7.29 13.03 7.29C13.26 7.4 13.47 7.55 13.64 7.74L14.93 9.17C15.73 10.05 16.91 10.72 18.16 10.93C18.64 11.01 19 11.41 19 11.9ZM12.83 18H14.9C14.44 20.28 12.42 22 10 22C7.24 22 5 19.76 5 17C5 14.58 6.72 12.56 9 12.1V14.17C7.84 14.59 7 15.69 7 17C7 18.66 8.34 20 10 20C11.31 20 12.42 19.16 12.83 18Z" fill="white"/>
</svg>
