<svg width="24" height="24" viewBox="0 0 24 24" fill="none" xmlns="http://www.w3.org/2000/svg">
<path d="M10 10C10 9.45 10.45 9 11 9C11.55 9 12 9.45 12 10V17H10V10ZM19 13C18.45 13 18 13.45 18 14V19H4V5H9C9.55 5 10 4.55 10 4C10 3.45 9.55 3 9 3H4C2.9 3 2 3.9 2 5V19C2 20.1 2.9 21 4 21H18C19.1 21 20 20.1 20 19V14C20 13.45 19.55 13 19 13ZM20 5H18V3C18 2.45 17.55 2 17 2C16.45 2 16 2.45 16 3V5H14C13.45 5 13 5.45 13 6C13 6.55 13.45 7 14 7H16V9C16 9.55 16.45 10 17 10C17.55 10 18 9.55 18 9V7H20C20.55 7 21 6.55 21 6C21 5.45 20.55 5 20 5ZM15 13C14.45 13 14 13.45 14 14V17H16V14C16 13.45 15.55 13 15 13ZM6 12V17H8V12C8 11.45 7.55 11 7 11C6.45 11 6 11.45 6 12Z" fill="white"/>
</svg>
