<svg width="24" height="24" viewBox="0 0 24 24" fill="none" xmlns="http://www.w3.org/2000/svg">
<path fill-rule="evenodd" clip-rule="evenodd" d="M17 10.905C16.67 10.855 16.34 10.815 16 10.815C12.69 10.815 10 13.505 10 16.815C10 18.095 10.41 19.285 11.1 20.265C10.58 20.495 10.05 20.685 9.5 20.815C5.2 19.785 2 15.535 2 10.995V7.395C2 6.605 2.47 5.885 3.2 5.565L8.7 3.165C9.21 2.945 9.79 2.945 10.3 3.165L15.8 5.565C16.53 5.875 17 6.595 17 7.395V10.905ZM13 17C13 14.79 14.79 13 17 13C19.21 13 21 14.79 21 17C21 19.21 19.21 21 17 21C14.79 21 13 19.21 13 17ZM18.12 15.5C18.12 14.89 17.62 14.38 17 14.38C16.38 14.38 15.88 14.89 15.88 15.5C15.88 16.11 16.39 16.62 17 16.62C17.61 16.62 18.12 16.11 18.12 15.5ZM14.76 18.58C15.26 19.29 16.07 19.75 17 19.75C17.93 19.75 18.74 19.29 19.24 18.58C19.19 17.86 17.73 17.5 17 17.5C16.27 17.5 14.81 17.86 14.76 18.58Z" fill="white"/>
</svg>
