<svg width="24" height="24" viewBox="0 0 24 24" fill="none" xmlns="http://www.w3.org/2000/svg">
<path d="M13 13C12.44 13.56 11.55 13.56 11 13.01V13C10.45 12.45 10.45 11.56 11 11.01V11C11.55 10.45 12.44 10.45 12.99 11H13C13.55 11.55 13.55 12.45 13 13ZM12 5.99996L14.12 8.11996L16.62 5.61996L13.42 2.41996C12.64 1.63996 11.37 1.63996 10.59 2.41996L7.38996 5.61996L9.88996 8.11996L12 5.99996ZM5.99996 12L8.11996 9.87996L5.61996 7.37996L2.41996 10.58C1.63996 11.36 1.63996 12.63 2.41996 13.41L5.61996 16.61L8.11996 14.11L5.99996 12ZM18 12L15.88 14.12L18.38 16.62L21.58 13.42C22.36 12.64 22.36 11.37 21.58 10.59L18.38 7.38996L15.88 9.88996L18 12ZM12 18L9.87996 15.88L7.37996 18.38L10.58 21.58C11.36 22.36 12.63 22.36 13.41 21.58L16.61 18.38L14.11 15.88L12 18Z" fill="white"/>
</svg>
