<svg width="24" height="24" viewBox="0 0 24 24" fill="none" xmlns="http://www.w3.org/2000/svg">
<path fill-rule="evenodd" clip-rule="evenodd" d="M7 18H17V17H19V18V19V21C19 22.1 18.1 23 17 23H7C5.9 23 5 22.1 5 21V3C5 1.9 5.9 1 7 1H17C18.1 1 19 1.9 19 3V5V6V7H17V6H7V18ZM14 12C14 9.79 15.79 8 18 8C20.21 8 22 9.79 22 12C22 14.21 20.21 16 18 16C15.79 16 14 14.21 14 12ZM18 9.5C16.62 9.5 15.5 10.62 15.5 12C15.5 12.42 15.61 12.8 15.79 13.15L19.15 9.79C18.8 9.61 18.42 9.5 18 9.5ZM16.85 14.21C17.2 14.39 17.58 14.5 18 14.5C19.38 14.5 20.5 13.38 20.5 12C20.5 11.58 20.39 11.2 20.21 10.85L16.85 14.21Z" fill="white"/>
</svg>
