<svg width="24" height="24" viewBox="0 0 24 24" fill="none" xmlns="http://www.w3.org/2000/svg">
<path fill-rule="evenodd" clip-rule="evenodd" d="M12.09 2.91002C10.08 0.900015 7.07 0.490015 4.65 1.67002L8.28 5.30002C8.67 5.69002 8.67 6.32002 8.28 6.71002L6.69 8.30002C6.3 8.70002 5.67 8.70002 5.28 8.30002L1.65 4.67002C0.480003 7.10002 0.890003 10.09 2.9 12.1C4.76 13.96 7.48 14.45 9.79 13.58L17.75 21.54C18.78 22.57 20.44 22.57 21.46 21.54C22.49 20.51 22.49 18.85 21.46 17.83L13.54 9.90001C14.46 7.56001 13.98 4.80002 12.09 2.91002Z" fill="white"/>
</svg>
