<svg width="24" height="24" viewBox="0 0 24 24" fill="none" xmlns="http://www.w3.org/2000/svg">
<path fill-rule="evenodd" clip-rule="evenodd" d="M20.47 5.62999C20.86 6.01999 20.86 6.63999 20.47 7.02999L9.12995 18.37C8.73995 18.76 8.11995 18.76 7.72995 18.37L3.52995 14.17C3.13995 13.78 3.13995 13.16 3.52995 12.77C3.91995 12.38 4.53995 12.38 4.92995 12.77L8.42995 16.27L19.07 5.62999C19.46 5.23999 20.08 5.23999 20.47 5.62999ZM18.36 3.50999L8.42995 13.44L5.63995 10.65C4.85995 9.86999 3.58995 9.86999 2.80995 10.65L1.40995 12.05C0.629951 12.83 0.629951 14.1 1.40995 14.88L7.00995 20.48C7.78995 21.26 9.05995 21.26 9.83995 20.48L22.59 7.73999C23.37 6.95999 23.37 5.68999 22.59 4.90999L21.19 3.50999C20.4 2.72999 19.14 2.72999 18.36 3.50999Z" fill="white"/>
</svg>
