<svg width="24" height="24" viewBox="0 0 24 24" fill="none" xmlns="http://www.w3.org/2000/svg">
<path fill-rule="evenodd" clip-rule="evenodd" d="M5 5C4.45 5 4 4.55 4 4C4 3.45 4.45 3 5 3H19C19.55 3 20 3.45 20 4C20 4.55 19.55 5 19 5H5ZM19 7H5C4.45 7 4 7.45 4 8C4 8.55 4.45 9 5 9H19C19.55 9 20 8.55 20 8C20 7.45 19.55 7 19 7ZM19 13H5C4.45 13 4 12.55 4 12C4 11.45 4.45 11 5 11H19C19.55 11 20 11.45 20 12C20 12.55 19.55 13 19 13ZM5 17H10C10.55 17 11 16.55 11 16C11 15.45 10.55 15 10 15H5C4.45 15 4 15.45 4 16C4 16.55 4.45 17 5 17ZM10 21H5C4.45 21 4 20.55 4 20C4 19.45 4.45 19 5 19H10C10.55 19 11 19.45 11 20C11 20.55 10.55 21 10 21ZM15.4101 18.17L14.7001 17.46C14.3101 17.07 13.6801 17.07 13.2901 17.46C12.9001 17.85 12.9001 18.48 13.2901 18.87L14.7101 20.29C15.1001 20.68 15.7301 20.68 16.1201 20.29L19.2901 17.12C19.6801 16.73 19.6801 16.1 19.2901 15.71C18.9001 15.32 18.2701 15.32 17.8801 15.71L15.4101 18.17Z" fill="white"/>
</svg>
