<svg width="24" height="24" viewBox="0 0 24 24" fill="none" xmlns="http://www.w3.org/2000/svg">
<path d="M17 2H13.82C13.4 0.84 12.3 0 11 0C9.7 0 8.6 0.84 8.18 2H5C3.9 2 3 2.9 3 4V19C3 20.1 3.9 21 5 21H11.11C10.52 20.43 10.04 19.75 9.69 19H5V4H7V5C7 6.1 7.9 7 9 7H13C14.1 7 15 6.1 15 5V4H17V9.08C17.71 9.18 18.38 9.39 19 9.68V4C19 2.9 18.1 2 17 2ZM11 4C10.45 4 10 3.55 10 3C10 2.45 10.45 2 11 2C11.55 2 12 2.45 12 3C12 3.55 11.55 4 11 4ZM16 11C13.24 11 11 13.24 11 16C11 18.76 13.24 21 16 21C18.76 21 21 18.76 21 16C21 13.24 18.76 11 16 11ZM17.29 18L15.64 16.35C15.55 16.26 15.49 16.13 15.49 16V13.51C15.49 13.23 15.71 13.01 15.99 13.01C16.27 13.01 16.49 13.23 16.49 13.51V15.8L17.99 17.3C18.19 17.5 18.19 17.81 17.99 18.01C17.8 18.2 17.49 18.2 17.29 18Z" fill="white"/>
</svg>
