<svg width="24" height="24" viewBox="0 0 24 24" fill="none" xmlns="http://www.w3.org/2000/svg">
<path fill-rule="evenodd" clip-rule="evenodd" d="M9 13C6.79086 13 5 11.2091 5 8.99998C5 6.79084 6.79086 4.99998 9 4.99998C11.2091 4.99998 13 6.79084 13 8.99998C13 11.2091 11.2091 13 9 13ZM9 15C11.67 15 17 16.34 17 19V20C17 20.55 16.55 21 16 21H2C1.45 21 1 20.55 1 20V19C1 16.34 6.33 15 9 15ZM15.47 7.76998C15.28 7.29998 15.36 6.75998 15.7 6.40998L15.71 6.39998C16.3 5.80998 17.3 5.94998 17.68 6.68998C18.46 8.19998 18.46 9.89998 17.7 11.35C17.32 12.08 16.33 12.2 15.75 11.62L15.72 11.59C15.36 11.23 15.28 10.7 15.47 10.23C15.79 9.43998 15.79 8.55998 15.47 7.76998ZM19.18 2.88998C19.67 2.39998 20.51 2.43998 20.93 2.98998C23.69 6.63998 23.68 11.47 20.93 15.01C20.51 15.56 19.68 15.6 19.19 15.11L19.16 15.08C18.77 14.69 18.7 14.07 19.02 13.62C21.01 10.78 21.02 7.10998 19.05 4.36998C18.72 3.90998 18.78 3.28998 19.18 2.88998Z" fill="white"/>
</svg>
