<svg width="24" height="24" viewBox="0 0 24 24" fill="none" xmlns="http://www.w3.org/2000/svg">
<path d="M12.1464 3.85356L10 6.00001L12.1464 8.14646C12.4614 8.46144 13 8.23836 13 7.7929V7.00001H16V16.2676C15.4022 16.6134 15 17.2597 15 18C15 19.1046 15.8954 20 17 20C18.1046 20 19 19.1046 19 18C19 17.2597 18.5978 16.6134 18 16.2676V7.00001C18 5.89544 17.1046 5.00001 16 5.00001H13V4.20712C13 3.76167 12.4614 3.53858 12.1464 3.85356Z" fill="white"/>
<path d="M9 6.00001C9 6.74029 8.5978 7.38664 8 7.73245V16.2676C8.5978 16.6134 9 17.2597 9 18C9 19.1046 8.10457 20 7 20C5.89543 20 5 19.1046 5 18C5 17.2597 5.4022 16.6134 6 16.2676V7.73245C5.4022 7.38664 5 6.74029 5 6.00001C5 4.89544 5.89543 4.00001 7 4.00001C8.10457 4.00001 9 4.89544 9 6.00001Z" fill="white"/>
</svg>
