<svg width="24" height="24" viewBox="0 0 24 24" fill="none" xmlns="http://www.w3.org/2000/svg">
<path fill-rule="evenodd" clip-rule="evenodd" d="M7.00005 6.12C6.57005 5.77 5.94005 5.82 5.59005 6.25L1.35005 11.36C1.04005 11.73 1.04005 12.27 1.35005 12.64L5.59005 17.75C5.94005 18.18 6.57005 18.23 7.00005 17.88C7.43005 17.53 7.48005 16.9 7.13005 16.47L3.42005 12L7.13005 7.53C7.48005 7.1 7.43005 6.47 7.00005 6.12ZM7.00005 13H9.00005V11H7.00005V13ZM17.0001 11H15.0001V13H17.0001V11ZM11.0001 13H13.0001V11H11.0001V13ZM17.0001 6.12C16.5701 6.47 16.5201 7.1 16.8701 7.53L20.5801 12L16.8701 16.47C16.5201 16.9 16.5801 17.53 17.0001 17.88C17.4301 18.23 18.0601 18.18 18.4101 17.75L22.6501 12.64C22.9601 12.27 22.9601 11.73 22.6501 11.36L18.4101 6.25C18.0601 5.83 17.4201 5.77 17.0001 6.12V6.12Z" fill="white"/>
</svg>
