<svg width="24" height="24" viewBox="0 0 24 24" fill="none" xmlns="http://www.w3.org/2000/svg">
<path fill-rule="evenodd" clip-rule="evenodd" d="M11 22H13V24H11V22ZM7 22H9V24H7V22ZM15 22H17V24H15V22ZM13.41 9.99997L17.03 6.37997C17.22 6.18997 17.32 5.93997 17.32 5.66997C17.32 5.39997 17.21 5.14997 17.03 4.95997L12.7 0.649974C12.41 0.359974 11.98 0.279974 11.61 0.429974C11.24 0.579974 11 0.949974 11 1.34997V7.57997L7.14 3.72997C6.75 3.33997 6.12 3.33997 5.73 3.72997C5.34 4.11997 5.34 4.74997 5.73 5.13997L10.58 9.99997L5.73 14.85C5.34 15.24 5.34 15.87 5.73 16.26C6.12 16.65 6.75 16.65 7.14 16.26L11 12.41V18.64C11 19.04 11.24 19.41 11.62 19.56C11.74 19.61 11.87 19.64 12 19.64C12.26 19.64 12.52 19.54 12.71 19.35L17.03 15.03C17.22 14.84 17.32 14.59 17.32 14.32C17.32 14.05 17.21 13.8 17.03 13.61L13.41 9.99997ZM13 3.76997L14.91 5.67997L13 7.57997V3.76997ZM13 16.23V12.41L14.91 14.32L13 16.23Z" fill="white"/>
</svg>
