<svg width="24" height="24" viewBox="0 0 24 24" fill="none" xmlns="http://www.w3.org/2000/svg">
<path fill-rule="evenodd" clip-rule="evenodd" d="M14 12C14 10.9 13.1 10 12 10C10.9 10 10 10.9 10 12C10 13.1 10.9 14 12 14C13.1 14 14 13.1 14 12ZM12.26 3.00001C7.17003 2.86001 3.00003 6.95001 3.00003 12H1.21003C0.760031 12 0.540031 12.54 0.860031 12.85L3.65003 15.64C3.85003 15.84 4.16003 15.84 4.36003 15.64L7.15003 12.85C7.46003 12.54 7.24003 12 6.79003 12H5.00003C5.00003 8.10001 8.18003 4.95001 12.1 5.00001C15.82 5.05001 18.95 8.18001 19 11.9C19.05 15.81 15.9 19 12 19C10.75 19 9.58003 18.66 8.56003 18.09C8.17003 17.87 7.69003 17.95 7.38003 18.27C6.92003 18.73 7.01003 19.52 7.58003 19.84C8.89003 20.57 10.39 21 12 21C17.05 21 21.14 16.83 21 11.74C20.87 7.05001 16.95 3.13001 12.26 3.00001Z" fill="white"/>
</svg>
