<svg width="24" height="24" viewBox="0 0 24 24" fill="none" xmlns="http://www.w3.org/2000/svg">
<path fill-rule="evenodd" clip-rule="evenodd" d="M18.32 5.67999C17.96 6.03999 17.93 6.59999 18.25 6.99999C19.7 8.81999 20.46 11.31 19.78 13.92C18.99 16.97 16.6 19.25 13.57 19.86C8.46999 20.87 3.99999 16.93 3.99999 12C3.99999 7.91999 7.04999 4.55999 11 4.06999V6.08999C7.86999 6.61999 5.56999 9.54999 6.06999 12.92C6.45999 15.53 8.62999 17.63 11.25 17.95C14.89 18.4 18 15.56 18 12C18 10.75 17.62 9.59999 16.97 8.63999C16.63 8.13999 15.9 8.10999 15.47 8.52999L15.46 8.53999C15.12 8.87999 15.09 9.40999 15.35 9.80999C15.95 10.73 16.19 11.91 15.84 13.13C15.45 14.5 14.3 15.59 12.9 15.9C10.3 16.47 7.99999 14.51 7.99999 12C7.99999 10.14 9.27999 8.58999 11 8.13999V10.28C10.4 10.63 9.99999 11.26 9.99999 12C9.99999 13.1 10.9 14 12 14C13.1 14 14 13.1 14 12C14 11.26 13.6 10.62 13 10.28V2.70999C13 2.31999 12.68 1.99999 12.29 1.99999C6.92999 1.79999 2.30999 6.05999 2.01999 11.4C1.65999 17.95 7.42999 23.22 14.03 21.8C17.91 20.97 20.91 18 21.78 14.13C22.49 10.97 21.58 7.96999 19.81 5.75999C19.44 5.28999 18.74 5.25999 18.32 5.67999Z" fill="white"/>
</svg>
