<svg width="24" height="24" viewBox="0 0 24 24" fill="none" xmlns="http://www.w3.org/2000/svg">
<path fill-rule="evenodd" clip-rule="evenodd" d="M15.72 6.40998C15.37 6.75998 15.28 7.28998 15.47 7.75998C15.77 8.50998 15.79 9.33998 15.52 10.1C15.36 10.56 15.46 11.08 15.81 11.42C16.41 12.02 17.47 11.89 17.83 11.11C18.47 9.71998 18.43 8.11998 17.71 6.69998C17.31 5.94998 16.3 5.81998 15.72 6.40998ZM19.18 2.88998C18.78 3.28998 18.72 3.90998 19.05 4.36998C20.98 7.04998 21 10.62 19.14 13.44C18.83 13.9 18.91 14.52 19.3 14.91C19.81 15.42 20.68 15.37 21.11 14.78C23.68 11.27 23.63 6.57998 20.94 3.00998C20.51 2.44998 19.68 2.38998 19.18 2.88998V2.88998ZM9.43 5.03998L12.96 8.56998C12.76 6.70998 11.29 5.23998 9.43 5.03998V5.03998ZM3.71 3.55998C3.32 3.94998 3.32 4.57998 3.71 4.96998L5.62 6.87998C5.06 7.76998 4.83 8.88998 5.15 10.08C5.51 11.41 6.59 12.48 7.92 12.85C9.11 13.18 10.23 12.94 11.12 12.38L15.52 16.78C13.74 15.6 10.78 15 9 15C6.33 15 1 16.34 1 19V20C1 20.55 1.45 21 2 21H16C16.55 21 17 20.55 17 20V19C17 18.63 16.89 18.3 16.71 17.98L19.02 20.29C19.41 20.68 20.04 20.68 20.43 20.29C20.82 19.9 20.82 19.27 20.43 18.88L5.12 3.55998C4.73 3.16998 4.1 3.16998 3.71 3.55998Z" fill="white"/>
</svg>
