<svg width="24" height="24" viewBox="0 0 24 24" fill="none" xmlns="http://www.w3.org/2000/svg">
<path fill-rule="evenodd" clip-rule="evenodd" d="M12 2C8.14 2 5 5.14 5 9C5 13.17 9.42 18.92 11.24 21.11C11.64 21.59 12.37 21.59 12.77 21.11C14.58 18.92 19 13.17 19 9C19 5.14 15.86 2 12 2ZM15 10H13V12C13 12.55 12.55 13 12 13C11.45 13 11 12.55 11 12V10H9C8.45 10 8 9.55 8 9C8 8.45 8.45 8 9 8H11V6C11 5.45 11.45 5 12 5C12.55 5 13 5.45 13 6V8H15C15.55 8 16 8.45 16 9C16 9.55 15.55 10 15 10Z" fill="black"/>
</svg>
