<svg width="24" height="24" viewBox="0 0 24 24" fill="none" xmlns="http://www.w3.org/2000/svg">
<path fill-rule="evenodd" clip-rule="evenodd" d="M22 12.73C21.28 12.25 20.43 11.97 19.5 11.97C17.19 11.97 15.3 13.73 15.05 15.97H11.91C11.96 15.64 12 15.31 12 14.97C12 13.43 11.41 12.03 10.46 10.97H11C12.1 10.97 13 10.07 13 8.96999V6.67999L11.94 5.61999L10.88 6.67999C10.68 6.87999 10.37 6.87999 10.17 6.67999C9.97002 6.47999 9.97002 6.16999 10.17 5.96999L13 3.13999C13.2 2.93999 13.51 2.93999 13.71 3.13999C13.91 3.33999 13.91 3.64999 13.71 3.84999L12.65 4.90999L13.71 5.96999H20C21.1 5.96999 22 6.86999 22 7.96999V12.73ZM16 16.47C16 14.54 17.57 12.97 19.5 12.97C21.43 12.97 23 14.54 23 16.47C23 18.4 21.43 19.97 19.5 19.97C17.57 19.97 16 18.4 16 16.47ZM18 16.47C18 17.3 18.67 17.97 19.5 17.97C20.33 17.97 21 17.3 21 16.47C21 15.64 20.33 14.97 19.5 14.97C18.67 14.97 18 15.64 18 16.47ZM4 8.96997H9C9 7.86997 8.1 6.96997 7 6.96997H4C3.45 6.96997 3 7.41997 3 7.96997C3 8.52997 3.45 8.96997 4 8.96997ZM9.65 13.32L9.83 13.79L10.74 13.44C10.89 13.92 11 14.43 11 14.96C11 15.6 10.87 16.21 10.65 16.78L9.75 16.38L9.54 16.84L10.43 17.24C9.91 18.27 9.06 19.09 8 19.55L7.65 18.62L7.18 18.8L7.53 19.71C7.05 19.86 6.54 19.97 6.01 19.97C5.37 19.97 4.76 19.84 4.19 19.62L4.59 18.72L4.13 18.51L3.73 19.4C2.7 18.88 1.88 18.03 1.42 16.97L2.35 16.62L2.17 16.15L1.26 16.49C1.11 16.01 1 15.5 1 14.97C1 14.33 1.13 13.72 1.35 13.17L2.25 13.57L2.46 13.11L1.57 12.71C2.09 11.68 2.94 10.86 4 10.4L4.35 11.32L4.82 11.14L4.48 10.23C4.96 10.08 5.47 9.96997 6 9.96997C6.64 9.96997 7.26 10.11 7.81 10.32L7.41 11.22L7.87 11.43L8.27 10.54C9.3 11.06 10.12 11.91 10.58 12.97L9.65 13.32ZM3.23 16.13C3.86 17.66 5.62 18.38 7.15 17.75C8.68 17.11 9.41 15.36 8.77 13.83C8.14 12.3 6.38 11.58 4.85 12.21C3.32 12.84 2.6 14.6 3.23 16.13Z" fill="black"/>
</svg>
