<svg width="24" height="24" viewBox="0 0 24 24" fill="none" xmlns="http://www.w3.org/2000/svg">
<path d="M21.16 11H17.16V7.5C17.16 6.67 16.49 6 15.66 6C14.83 6 14.16 6.67 14.16 7.5V11H10.16V4.5C10.16 3.67 9.49 3 8.66 3C7.83 3 7.16 3.67 7.16 4.5V11H3C2.45 11 2 11.45 2 12C2 12.55 2.45 13 3 13H7.16V19.5C7.16 20.33 7.83 21 8.66 21C9.49 21 10.16 20.33 10.16 19.5V13H14.16V16.5C14.16 17.33 14.83 18 15.66 18C16.49 18 17.16 17.33 17.16 16.5V13H21.16C21.71 13 22.16 12.55 22.16 12C22.16 11.45 21.71 11 21.16 11Z" fill="black"/>
</svg>
