<svg width="24" height="24" viewBox="0 0 24 24" fill="none" xmlns="http://www.w3.org/2000/svg">
<path d="M14.0664 4.90625C14.6289 4.22656 15.0273 3.30078 15.0273 2.36328C15.0273 2.23438 15.0156 2.10547 14.9922 2C14.0781 2.03516 12.9766 2.60938 12.3203 3.38281C11.8047 3.96875 11.3242 4.90625 11.3242 5.84375C11.3242 5.98438 11.3477 6.125 11.3594 6.17188C11.418 6.18359 11.5117 6.19531 11.6055 6.19531C12.4258 6.19531 13.457 5.64453 14.0664 4.90625ZM14.7109 6.39453C13.3398 6.39453 12.2266 7.22656 11.5117 7.22656C10.75 7.22656 9.75391 6.44141 8.55859 6.44141C6.29688 6.44141 4 8.31641 4 11.8438C4 14.0469 4.84375 16.3672 5.89844 17.8672C6.80078 19.1328 7.58594 20.1758 8.72266 20.1758C9.84766 20.1758 10.3398 19.4258 11.7344 19.4258C13.1523 19.4258 13.4688 20.1523 14.7109 20.1523C15.9414 20.1523 16.7617 19.0273 17.5352 17.9141C18.4023 16.6367 18.7656 15.3945 18.7773 15.3359C18.707 15.3125 16.3516 14.3516 16.3516 11.6562C16.3516 9.32422 18.2031 8.28125 18.3086 8.19922C17.0898 6.44141 15.2266 6.39453 14.7109 6.39453Z" fill="black"/>
</svg>
