<svg width="24" height="24" viewBox="0 0 24 24" fill="none" xmlns="http://www.w3.org/2000/svg">
<path fill-rule="evenodd" clip-rule="evenodd" d="M2 20.16H22C23.1 20.16 24 21.024 24 22.08C24 23.136 23.1 24 22 24H2C0.9 24 0 23.136 0 22.08C0 21.024 0.9 20.16 2 20.16Z" fill="black"/>
<path fill-rule="evenodd" clip-rule="evenodd" d="M17.75 7.67998L14 4.07998L4.15 13.536C4.05 13.632 4 13.7472 4 13.8816V16.8C4 17.0688 4.22 17.28 4.5 17.28H7.54C7.67 17.28 7.8 17.232 7.89 17.136L17.75 7.67998ZM20.71 4.83838C21.1 4.46398 21.1 3.85918 20.71 3.48478L18.37 1.23838C17.98 0.863981 17.35 0.863981 16.96 1.23838L15 3.11998L18.75 6.71998L20.71 4.83838Z" fill="black"/>
</svg>
