<svg width="24" height="24" viewBox="0 0 24 24" fill="none" xmlns="http://www.w3.org/2000/svg">
<path fill-rule="evenodd" clip-rule="evenodd" d="M2.59001 3.95C2.94001 3.6 3.51001 3.6 3.86001 3.95L20.05 20.15C20.4 20.5 20.4 21.07 20.05 21.42C19.7 21.77 19.13 21.77 18.78 21.42L17.36 20H5.00001C3.90001 20 3.00001 19.1 3.00001 18V5.64L2.59001 5.22C2.24001 4.87 2.24001 4.3 2.59001 3.95ZM5.00001 7.64V18H15.36L5.00001 7.64ZM19 16.5V6H8.5L6.5 4H19C20.1 4 21 4.9 21 6V18C21 18.15 20.98 18.3 20.95 18.45L19 16.5Z" fill="black"/>
</svg>
