<svg width="24" height="24" viewBox="0 0 24 24" fill="none" xmlns="http://www.w3.org/2000/svg">
<path fill-rule="evenodd" clip-rule="evenodd" d="M13.81 2.86C13.98 2.56 13.81 2.16 13.46 2.12C10.84 1.75 8.16001 2.4 6.02001 3.98C5.83001 4.13 5.77001 4.41 5.90001 4.63L8.91001 9.85C9.10001 10.18 9.58001 10.18 9.78001 9.85L13.81 2.86V2.86ZM21.3 8.33C20.32 5.86 18.38 3.87 15.95 2.83C15.72 2.73 15.45 2.83 15.32 3.05L12.31 8.26C12.12 8.58 12.36 9 12.75 9H20.83C21.18 9 21.43 8.65 21.3 8.33V8.33ZM21.37 10H15.17C14.79 10 14.54 10.42 14.74 10.75L19 18.14C19.17 18.44 19.6 18.49 19.82 18.22C21.56 16.04 22.3 13.19 21.87 10.43C21.84 10.18 21.62 10 21.37 10ZM4.18001 5.79C2.45001 7.98 1.70001 10.81 2.13001 13.58C2.16001 13.82 2.38001 14 2.63001 14H8.83001C9.21001 14 9.46001 13.58 9.26001 13.25L5.00001 5.87C4.82001 5.57 4.39001 5.52 4.18001 5.79ZM2.70001 15.67C3.68001 18.14 5.62001 20.13 8.05001 21.17C8.28001 21.27 8.55001 21.17 8.68001 20.95L11.69 15.74C11.88 15.41 11.64 14.99 11.26 14.99H3.17001C2.82001 15 2.57001 15.35 2.70001 15.67V15.67ZM10.53 21.89C13.15 22.26 15.83 21.61 17.97 20.03C18.17 19.88 18.23 19.59 18.1 19.37L15.09 14.15C14.9 13.82 14.42 13.82 14.22 14.15L10.18 21.14C10.01 21.44 10.19 21.84 10.53 21.89V21.89Z" fill="black"/>
</svg>
