<svg width="24" height="24" viewBox="0 0 24 24" fill="none" xmlns="http://www.w3.org/2000/svg">
<path fill-rule="evenodd" clip-rule="evenodd" d="M14.5 11.75C13.8096 11.75 13.25 11.1904 13.25 10.5C13.25 9.80964 13.8096 9.25 14.5 9.25C15.1904 9.25 15.75 9.80964 15.75 10.5C15.75 11.1904 15.1904 11.75 14.5 11.75ZM9.5 11.75C8.80964 11.75 8.25 11.1904 8.25 10.5C8.25 9.80964 8.80964 9.25 9.5 9.25C10.1904 9.25 10.75 9.80964 10.75 10.5C10.75 11.1904 10.1904 11.75 9.5 11.75ZM16.1 14C16.28 14 16.41 14.2 16.33 14.37C15.5 15.94 13.87 17 12 17C10.13 17 8.5 15.94 7.67 14.37C7.58 14.2 7.71 14 7.9 14H16.1V14ZM22.94 11.34C22.98 11.55 23 11.77 23 12C23 12.23 22.98 12.45 22.94 12.66C22.69 14.18 21.58 15.4 20.14 15.83C19.62 16.93 18.87 17.92 17.97 18.72C16.38 20.14 14.29 21 12 21C9.71 21 7.62 20.14 6.04 18.72C5.14 17.92 4.39 16.94 3.87 15.83C2.42 15.4 1.31 14.17 1.06 12.66C1.02 12.45 1 12.23 1 12C1 11.77 1.02 11.55 1.06 11.34C1.31 9.82 2.42 8.6 3.87 8.17C4.39 7.06 5.14 6.07 6.06 5.26C7.64 3.85 9.72 3 12 3C14.28 3 16.36 3.85 17.94 5.26C18.85 6.07 19.6 7.05 20.13 8.17C21.58 8.6 22.69 9.83 22.94 11.34ZM19 14C20.1 14 21 13.1 21 12C21 10.9 20.1 10 19 10C18.9 10 18.81 10.02 18.71 10.03C18.51 9.36 18.22 8.74 17.85 8.17C16.6 6.26 14.45 5 12 5C9.55 5 7.4 6.26 6.15 8.17C5.78 8.74 5.49 9.36 5.29 10.03C5.19 10.02 5.1 10 5 10C3.9 10 3 10.9 3 12C3 13.1 3.9 14 5 14C5.1 14 5.19 13.98 5.29 13.97C5.49 14.64 5.78 15.26 6.15 15.83C7.4 17.74 9.55 19 12 19C14.45 19 16.6 17.74 17.85 15.83C18.22 15.26 18.51 14.64 18.71 13.97C18.81 13.98 18.9 14 19 14Z" fill="black"/>
</svg>
