<svg width="24" height="24" viewBox="0 0 24 24" fill="none" xmlns="http://www.w3.org/2000/svg">
<path fill-rule="evenodd" clip-rule="evenodd" d="M16 8.64V13.44H18V7.68C18 6.624 17.1 5.76 16 5.76H10V7.68H15C15.55 7.68 16 8.112 16 8.64ZM19 15.36H8.99999C8.44999 15.36 7.99999 14.928 7.99999 14.4V4.8C7.99999 4.272 7.55 3.84 6.99999 3.84C6.44999 3.84 5.99999 4.272 5.99999 4.8V5.76H4.99999C4.44999 5.76 3.99999 6.192 3.99999 6.72C3.99999 7.248 4.44999 7.68 4.99999 7.68H5.99999V15.36C5.99999 16.416 6.89999 17.28 7.99999 17.28H16V18.24C16 18.768 16.45 19.2 17 19.2C17.55 19.2 18 18.768 18 18.24V17.28H19C19.55 17.28 20 16.848 20 16.32C20 15.792 19.55 15.36 19 15.36ZM17.66 1.344C15.99 0.489597 13.83 -0.105604 11.39 0.0383965L15.2 3.696L16.53 2.4192C19.62 3.8208 21.87 6.6144 22.42 9.9648C22.48 10.3584 22.86 10.6272 23.28 10.56C23.69 10.5024 23.97 10.128 23.9 9.7344C23.3 6.0864 20.94 3.0144 17.66 1.344V1.344ZM7.47 20.6304C4.38 19.2288 2.13 16.4352 1.58 13.0848C1.52 12.6912 1.13999 12.4224 0.719995 12.4896C0.309995 12.5472 0.029995 12.9216 0.099995 13.3152C0.699995 16.9728 3.05999 20.0448 6.33999 21.7152C8.00999 22.5696 10.17 23.1648 12.61 23.0208L8.8 19.3536L7.47 20.6304V20.6304Z" fill="black"/>
</svg>
