<svg width="24" height="24" viewBox="0 0 24 24" fill="none" xmlns="http://www.w3.org/2000/svg">
<path fill-rule="evenodd" clip-rule="evenodd" d="M19 7C19 5.9 18.1 5 17 5H14V7H17V9.65L13.52 14H10V9H6C3.79 9 2 10.79 2 13V16H4C4 17.66 5.34 19 7 19C8.66 19 10 17.66 10 16H14.48L19 10.35V7ZM7 17C6.45 17 6 16.55 6 16H8C8 16.55 7.55 17 7 17ZM10 6H5V8H10V6ZM16 16C16 14.34 17.34 13 19 13C20.66 13 22 14.34 22 16C22 17.66 20.66 19 19 19C17.34 19 16 17.66 16 16ZM18 16C18 16.55 18.45 17 19 17C19.55 17 20 16.55 20 16C20 15.45 19.55 15 19 15C18.45 15 18 15.45 18 16Z" fill="black"/>
</svg>
