<svg width="24" height="24" viewBox="0 0 24 24" fill="none" xmlns="http://www.w3.org/2000/svg">
<path fill-rule="evenodd" clip-rule="evenodd" d="M20.7099 5.63011C21.0999 6.02011 21.0999 6.65011 20.7099 7.04011L18.8799 8.87011L15.1299 5.12011L16.9599 3.29011C17.2499 3.00011 17.8999 2.82011 18.3699 3.29011L20.7099 5.63011ZM17.81 9.94017L16.24 11.5102L20.37 15.6302C21.15 16.4102 21.15 17.6802 20.37 18.4602L18.47 20.3602C18.4 20.4302 16.96 21.6802 15.64 20.3602L11.51 16.2302L6.89 20.8502C6.8 20.9502 6.67 21.0002 6.54 21.0002H3.5C3.22 21.0002 3 20.7802 3 20.5002V17.4602C3 17.3202 3.05 17.2002 3.15 17.1002L7.75 12.4902L3.62 8.36017C2.84 7.58017 2.84 6.31017 3.62 5.53017L5.52 3.63017C6.3 2.85017 7.57 2.85017 8.35 3.63017L12.49 7.76017L14.06 6.19017L17.81 9.94017ZM5.04 6.94017L9.18 11.0702L11.07 9.18017L9.62 7.73017L9.14 8.21017C8.75 8.60017 8.12 8.60017 7.73 8.21017C7.34 7.82017 7.34 7.19017 7.73 6.80017L8.2 6.31017L6.93 5.04017L5.04 6.94017ZM12.93 14.8302L17.06 18.9602L18.96 17.0602L17.69 15.7902L17.21 16.2702C16.82 16.6602 16.19 16.6602 15.8 16.2702C15.41 15.8802 15.41 15.2502 15.8 14.8602L16.28 14.3802L14.83 12.9302L12.93 14.8302Z" fill="black"/>
</svg>
