<svg width="24" height="24" viewBox="0 0 24 24" fill="none" xmlns="http://www.w3.org/2000/svg">
<path fill-rule="evenodd" clip-rule="evenodd" d="M21.71 11.29L12.71 2.29C12.32 1.9 11.69 1.9 11.3 2.29L2.30001 11.29C1.91001 11.68 1.91001 12.31 2.30001 12.7L11.3 21.7C11.69 22.09 12.32 22.09 12.71 21.7L21.71 12.7C22.1 12.32 22.1 11.69 21.71 11.29ZM14 14.5V12H10V14C10 14.55 9.55001 15 9.00001 15C8.45001 15 8.00001 14.55 8.00001 14V11C8.00001 10.45 8.45001 10 9.00001 10H14V7.5L17.15 10.65C17.35 10.85 17.35 11.16 17.15 11.36L14 14.5Z" fill="black"/>
</svg>
