<svg width="24" height="24" viewBox="0 0 24 24" fill="none" xmlns="http://www.w3.org/2000/svg">
<path d="M19.56 11.3599L13 8.43993V6.99994C13 6.44994 12.55 5.99994 12 5.99994C11.45 5.99994 11 5.54994 11 4.99994C11 4.44994 11.45 3.99994 12 3.99994C12.55 3.99994 13 4.44994 13 4.99994H15C15 3.15994 13.34 1.69994 11.44 2.04994C10.26 2.26994 9.29 3.21994 9.06 4.39994C8.76 5.95994 9.66 7.33994 11 7.81994V8.44993L4.44 11.3699C3.56 11.7499 3 12.6199 3 13.5699V13.5799C3 14.9199 4.08 15.9999 5.42 15.9999H7V21.9999H17V15.9999H18.58C19.92 15.9999 21 14.9199 21 13.5799V13.5699C21 12.6199 20.44 11.7499 19.56 11.3599ZM18.58 13.9999H17V12.9999H7V13.9999H5.42C5.19 13.9999 5 13.8099 5 13.5699C5 13.3999 5.1 13.2499 5.25 13.1899L12 10.1899L18.75 13.1899C18.9 13.2599 19 13.4099 19 13.5799C19 13.8099 18.81 13.9999 18.58 13.9999Z" fill="black"/>
</svg>
