<svg width="24" height="24" viewBox="0 0 24 24" fill="none" xmlns="http://www.w3.org/2000/svg">
<g clip-path="url(#clip0_5_1564)">
<path fill-rule="evenodd" clip-rule="evenodd" d="M6 19C6 19.55 5.55 20 5 20C4.45 20 4 19.55 4 19V5C4 4.45 4.45 4 5 4C5.55 4 6 4.45 6 5V19ZM16 5C16 4.45 16.45 4 17 4C17.55 4 18 4.45 18 5V9.9L16 11.9V5ZM11 8C11.55 8 12 7.55 12 7V5C12 4.45 11.55 4 11 4C10.45 4 10 4.45 10 5V7C10 7.55 10.45 8 11 8ZM12 13C12 13.55 11.55 14 11 14C10.45 14 10 13.55 10 13V11C10 10.45 10.45 10 11 10C11.55 10 12 10.45 12 11V13ZM11 20C11.55 20 12 19.55 12 19V17C12 16.45 11.55 16 11 16C10.45 16 10 16.45 10 17V19C10 19.55 10.45 20 11 20ZM22.41 11.4425L23.56 12.5925C24.15 13.1725 24.15 14.1225 23.56 14.7125L18.27 20.0025H15.5C15.22 20.0025 15 19.7825 15 19.5025V16.7325L20.29 11.4425C20.87 10.8525 21.82 10.8525 22.41 11.4425ZM16.55 18.4525H17.58L21.03 15.0025L20 13.9725L16.55 17.4225V18.4525Z" fill="black"/>
</g>
<defs>
<clipPath id="clip0_5_1564">
<rect width="24" height="24" fill="white"/>
</clipPath>
</defs>
</svg>
