<svg width="24" height="24" viewBox="0 0 24 24" fill="none" xmlns="http://www.w3.org/2000/svg">
<path fill-rule="evenodd" clip-rule="evenodd" d="M7 11C5.9 11 5 11.9 5 13C5 14.1 5.9 15 7 15H9V17H7C4.79 17 3 15.21 3 13C3 10.79 4.79 9 7 9H8.5C9.33 9 10 8.33 10 7.5C10 6.67 9.33 6 8.5 6H5C4.45 6 4 5.55 4 5C4 4.45 4.45 4 5 4H8.5C10.43 4 12 5.57 12 7.5C12 9.43 10.43 11 8.5 11H7ZM16 12H14C12.9 12 12 12.9 12 14H11C10.45 14 10 14.45 10 15V17C10 17.55 10.45 18 11 18H12C12 19.1 12.9 20 14 20H16C16.55 20 17 19.55 17 19V13C17 12.45 16.55 12 16 12ZM20 13C20.55 13 21 13.45 21 14C21 14.55 20.55 15 20 15H18V13H20ZM18 17H20C20.55 17 21 17.45 21 18C21 18.55 20.55 19 20 19H18V17Z" fill="black"/>
</svg>
