<svg width="24" height="24" viewBox="0 0 24 24" fill="none" xmlns="http://www.w3.org/2000/svg">
<path fill-rule="evenodd" clip-rule="evenodd" d="M17 3C18.1 3 19 3.9 19 5V8.35L14.48 14H10C10 15.66 8.66 17 7 17C5.34 17 4 15.66 4 14H2V11C2 8.79 3.79 7 6 7H9C9.55 7 10 7.45 10 8V12H13.52L17 7.65V5H15C14.45 5 14 4.55 14 4C14 3.45 14.45 3 15 3H17ZM6 14C6 14.55 6.45 15 7 15C7.55 15 8 14.55 8 14H6ZM6 4H9C9.55 4 10 4.45 10 5C10 5.55 9.55 6 9 6H6C5.45 6 5 5.55 5 5C5 4.45 5.45 4 6 4ZM19 11C17.34 11 16 12.34 16 14C16 15.66 17.34 17 19 17C20.66 17 22 15.66 22 14C22 12.34 20.66 11 19 11ZM19 15C18.45 15 18 14.55 18 14C18 13.45 18.45 13 19 13C19.55 13 20 13.45 20 14C20 14.55 19.55 15 19 15ZM11 18V20H7L13 23V21H17L11 18Z" fill="black"/>
</svg>
