<svg width="24" height="24" viewBox="0 0 24 24" fill="none" xmlns="http://www.w3.org/2000/svg">
<path fill-rule="evenodd" clip-rule="evenodd" d="M18.18 7H19C21.8 7 24 9.2 24 11.99C24 14.8 21.55 17.12 18.75 16.99C16.41 16.88 14.54 15.23 14.1 13H9.9C9.45 15.31 7.46 17 5 17C2.2 17 0 14.8 0 12C0 9.2 2.45 6.87 5.25 7.01C7.59 7.12 9.46 8.77 9.9 11H10.57L8.75 6H8C7.45 6 7 5.55 7 5C7 4.45 7.45 4 8 4H10.98C11.53 4 11.98 4.45 11.98 5C11.98 5.55 11.53 6 10.98 6H10.89L11.25 7H16.06L14.6 3H13C12.45 3 12 2.55 12 2C12 1.45 12.45 1 13 1H14.6C15.44 1 16.19 1.53 16.48 2.32L18.18 7ZM7.82 13H6C5.45 13 5 12.55 5 12C5 11.45 5.45 11 6 11H7.82C7.42 9.83 6.33 9 5 9C3.27 9 1.93 10.39 2 12.14C2.07 13.64 3.31 14.9 4.8 14.99C6.22 15.08 7.4 14.23 7.82 13ZM12.7 11H14.1C14.24 10.25 14.56 9.58 15 9H11.97L12.7 11ZM16 12.08C16.04 13.63 17.34 14.94 18.88 15C20.62 15.06 22 13.72 22 12C22 10.29 20.64 8.96 18.93 9L18.92 9.01L19.55 10.74C19.74 11.26 19.47 11.83 18.95 12.02C18.43 12.21 17.86 11.94 17.67 11.42L17.05 9.72C16.39 10.28 15.98 11.12 16 12.08ZM7 20H11V18L17 21H13V23L7 20Z" fill="black"/>
</svg>
