<svg width="24" height="24" viewBox="0 0 24 24" fill="none" xmlns="http://www.w3.org/2000/svg">
<path fill-rule="evenodd" clip-rule="evenodd" d="M17.5 1C18.16 1 18.72 1.42 18.92 2.01L20.89 7.68C20.96 7.89 21 8.12 21 8.34V15.5C21 16.33 20.32 17 19.5 17C18.67 17 18 16.32 18 15.5V15H6V15.5C6 16.33 5.33 17 4.5 17C3.67 17 3 16.33 3 15.5V8.34C3 8.11 3.04 7.89 3.11 7.68L5.08 2.01C5.29 1.42 5.84 1 6.5 1H17.5ZM5 10.5C5 11.33 5.67 12 6.5 12C7.33 12 8 11.33 8 10.5C8 9.67 7.33 9 6.5 9C5.67 9 5 9.67 5 10.5ZM16 10.5C16 11.33 16.67 12 17.5 12C18.33 12 19 11.33 19 10.5C19 9.67 18.33 9 17.5 9C16.67 9 16 9.67 16 10.5ZM6.27 3.18L5 7H19L17.73 3.18C17.59 2.78 17.21 2.5 16.78 2.5H7.22C6.79 2.5 6.41 2.78 6.27 3.18ZM11 20H7L13 23V21H17L11 18V20Z" fill="black"/>
</svg>
