<svg width="24" height="24" viewBox="0 0 24 24" fill="none" xmlns="http://www.w3.org/2000/svg">
<path d="M15.3859 18.5C12.8759 18.5 10.7059 17.08 9.62594 15H14.7659C15.1459 15 15.4959 14.79 15.6559 14.45C15.9859 13.79 15.5059 13 14.7659 13H8.96594C8.91594 12.67 8.88594 12.34 8.88594 12C8.88594 11.66 8.91594 11.33 8.96594 11H14.7659C15.1459 11 15.4959 10.79 15.6559 10.45C15.9959 9.78 15.5159 9 14.7659 9H9.62594C10.7059 6.92 12.8859 5.5 15.3859 5.5C16.6359 5.5 17.8059 5.86 18.8059 6.47C19.3059 6.78 19.9559 6.73 20.3759 6.31C20.9559 5.73 20.8259 4.78 20.1259 4.35C18.7459 3.5 17.1159 3 15.3859 3C11.4659 3 8.14594 5.51 6.90594 9H4.00594C3.62594 9 3.27594 9.21 3.10594 9.55C2.77594 10.22 3.25594 11 4.00594 11H6.44594C6.40594 11.33 6.38594 11.66 6.38594 12C6.38594 12.34 6.40594 12.67 6.44594 13H4.00594C3.62594 13 3.27594 13.21 3.11594 13.55C2.77594 14.22 3.25594 15 4.00594 15H6.90594C8.14594 18.49 11.4659 21 15.3859 21C17.1259 21 18.7459 20.51 20.1259 19.65C20.8159 19.22 20.9459 18.26 20.3659 17.68C19.9459 17.26 19.2959 17.21 18.7959 17.53C17.8059 18.15 16.6459 18.5 15.3859 18.5Z" fill="black"/>
</svg>
