<svg width="24" height="24" viewBox="0 0 24 24" fill="none" xmlns="http://www.w3.org/2000/svg">
<path fill-rule="evenodd" clip-rule="evenodd" d="M20 4.00001H16L12.71 0.710011C12.32 0.320011 11.69 0.320011 11.3 0.710011L8 4.00001H4C2.9 4.00001 2 4.90001 2 6.00001V20C2 21.1 2.9 22 4 22H20C21.1 22 22 21.1 22 20V6.00001C22 4.90001 21.1 4.00001 20 4.00001ZM19 20H5C4.45 20 4 19.55 4 19V7.00001C4 6.45001 4.45 6.00001 5 6.00001H8.52L12.04 2.50001L15.52 6.00001H19C19.55 6.00001 20 6.45001 20 7.00001V19C20 19.55 19.55 20 19 20ZM17 8.00001H7C6.45 8.00001 6 8.45001 6 9.00001V17C6 17.55 6.45 18 7 18H17C17.55 18 18 17.55 18 17V9.00001C18 8.45001 17.55 8.00001 17 8.00001Z" fill="black"/>
</svg>
