<svg width="24" height="24" viewBox="0 0 24 24" fill="none" xmlns="http://www.w3.org/2000/svg">
<path fill-rule="evenodd" clip-rule="evenodd" d="M11 3.23001C11 2.59001 10.41 2.10001 9.78998 2.24001C8.66998 2.50001 7.60998 2.94001 6.66998 3.54001C6.13998 3.88001 6.05998 4.64001 6.50998 5.09001C6.82998 5.41001 7.33998 5.49001 7.71998 5.25001C8.48998 4.76001 9.33998 4.40001 10.26 4.20001C10.7 4.10001 11 3.69001 11 3.23001V3.23001ZM17.33 3.55001C16.39 2.95001 15.33 2.51001 14.21 2.25001C13.59 2.11001 13 2.59001 13 3.23001C13 3.68001 13.3 4.10001 13.74 4.19001C14.65 4.39001 15.51 4.76001 16.27 5.24001C16.66 5.48001 17.16 5.41001 17.48 5.08001C17.94 4.64001 17.87 3.89001 17.33 3.55001V3.55001ZM20.77 11C21.41 11 21.9 10.41 21.76 9.79001C21.5 8.67001 21.06 7.61001 20.46 6.67001C20.12 6.14001 19.36 6.06001 18.91 6.51001C18.59 6.83001 18.51 7.34001 18.75 7.72001C19.24 8.49001 19.6 9.34001 19.8 10.25C19.9 10.7 20.31 11 20.77 11V11ZM5.09998 6.51001C4.63998 6.06001 3.88998 6.13001 3.54998 6.67001C2.94998 7.61001 2.50998 8.67001 2.24998 9.79001C2.10998 10.41 2.58998 11 3.22998 11C3.67998 11 4.09998 10.7 4.18998 10.26C4.38998 9.35001 4.75998 8.49001 5.23998 7.73001C5.49998 7.34001 5.41998 6.83001 5.09998 6.51001ZM3.22998 13C2.58998 13 2.09998 13.59 2.23998 14.21C2.49998 15.33 2.93998 16.38 3.53998 17.33C3.87998 17.87 4.63998 17.94 5.08998 17.49C5.40998 17.17 5.48998 16.66 5.23998 16.28C4.74998 15.52 4.38998 14.67 4.18998 13.75C4.09998 13.3 3.68998 13 3.22998 13ZM15 12C15 10.34 13.66 9.00001 12 9.00001C10.34 9.00001 8.99998 10.34 8.99998 12C8.99998 13.66 10.34 15 12 15C13.66 15 15 13.66 15 12ZM18.9 17.49C19.35 17.94 20.11 17.87 20.45 17.34C21.05 16.4 21.49 15.34 21.75 14.23C21.89 13.61 21.4 13.02 20.77 13.02C20.32 13.02 19.9 13.32 19.81 13.76C19.61 14.67 19.24 15.52 18.76 16.29C18.5 16.66 18.58 17.17 18.9 17.49ZM13 20.77C13 21.41 13.59 21.9 14.21 21.76C15.33 21.5 16.38 21.06 17.33 20.46C17.87 20.12 17.94 19.36 17.49 18.91C17.17 18.59 16.66 18.51 16.28 18.76C15.52 19.25 14.67 19.61 13.75 19.81C13.3 19.9 13 20.31 13 20.77ZM6.66998 20.45C7.61998 21.05 8.66998 21.49 9.78998 21.75C10.41 21.89 11 21.4 11 20.77C11 20.32 10.7 19.9 10.26 19.81C9.34998 19.61 8.48998 19.24 7.72998 18.76C7.33998 18.52 6.83998 18.59 6.51998 18.92C6.05998 19.36 6.12998 20.11 6.66998 20.45Z" fill="black"/>
</svg>
