<svg width="24" height="24" viewBox="0 0 24 24" fill="none" xmlns="http://www.w3.org/2000/svg">
<path fill-rule="evenodd" clip-rule="evenodd" d="M18.7 12.4C18.42 12.24 18.13 12.11 17.84 12C18.13 11.89 18.42 11.76 18.7 11.6C20.62 10.49 21.69 8.48 21.7 6.41C19.91 5.38 17.63 5.3 15.7 6.41C15.42 6.57 15.16 6.76 14.92 6.95C14.97 6.64 15 6.32 15 6C15 3.78 13.79 1.85 12 0.809998C10.21 1.85 8.99999 3.78 8.99999 6C8.99999 6.32 9.02999 6.64 9.07999 6.95C8.83999 6.75 8.57999 6.56 8.29999 6.4C6.37999 5.29 4.09999 5.37 2.29999 6.4C2.29999 8.47 3.36999 10.48 5.29999 11.59C5.57999 11.75 5.86999 11.88 6.15999 11.99C5.86999 12.1 5.57999 12.23 5.29999 12.39C3.37999 13.5 2.30999 15.51 2.29999 17.58C4.08999 18.61 6.36999 18.69 8.29999 17.58C8.57999 17.42 8.83999 17.23 9.07999 17.04C9.02999 17.36 8.99999 17.68 8.99999 18C8.99999 20.22 10.21 22.15 12 23.19C13.79 22.15 15 20.22 15 18C15 17.68 14.97 17.36 14.92 17.05C15.16 17.25 15.42 17.43 15.7 17.59C17.62 18.7 19.9 18.62 21.7 17.59C21.69 15.52 20.62 13.51 18.7 12.4ZM12 16C9.78999 16 7.99999 14.21 7.99999 12C7.99999 9.79 9.78999 8 12 8C14.21 8 16 9.79 16 12C16 14.21 14.21 16 12 16Z" fill="black"/>
</svg>
