<svg width="24" height="24" viewBox="0 0 24 24" fill="none" xmlns="http://www.w3.org/2000/svg">
<path fill-rule="evenodd" clip-rule="evenodd" d="M20.57 14.86L21.29 14.14C21.68 13.75 21.68 13.12 21.29 12.73L21.27 12.71C20.88 12.32 20.25 12.32 19.86 12.71L17 15.57L8.42998 7.00001L11.29 4.14001C11.68 3.75001 11.68 3.12001 11.29 2.73001L11.27 2.71001C10.88 2.32001 10.25 2.32001 9.85998 2.71001L9.13998 3.43001L8.41998 2.71001C8.02998 2.32001 7.38998 2.32001 6.99998 2.71001L5.56998 4.14001L4.84998 3.42001C4.45998 3.03001 3.80998 3.03001 3.41998 3.42001C3.02998 3.81001 3.02998 4.46001 3.41998 4.85001L4.13998 5.57001L2.70998 7.00001C2.31998 7.39001 2.31998 8.02001 2.70998 8.41001L3.42998 9.13001L2.70998 9.86001C2.31998 10.25 2.31998 10.88 2.70998 11.27L2.72998 11.29C3.11998 11.68 3.74998 11.68 4.13998 11.29L6.99998 8.43001L15.57 17L12.71 19.86C12.32 20.25 12.32 20.88 12.71 21.27L12.73 21.29C13.12 21.68 13.75 21.68 14.14 21.29L14.86 20.57L15.58 21.29C15.97 21.68 16.6 21.68 16.99 21.29L18.42 19.86L19.14 20.58C19.53 20.97 20.18 20.97 20.57 20.58C20.96 20.19 20.96 19.54 20.57 19.15L19.85 18.43L21.29 17C21.68 16.61 21.68 15.98 21.29 15.59L20.57 14.86Z" fill="black"/>
</svg>
