<svg width="24" height="24" viewBox="0 0 24 24" fill="none" xmlns="http://www.w3.org/2000/svg">
<path fill-rule="evenodd" clip-rule="evenodd" d="M19.8699 14C19.3699 14 18.9599 14.37 18.8899 14.86C18.4099 18.23 15.1199 20.7 11.4699 19.82C9.21995 19.28 7.55995 17.55 7.07995 15.29C6.26995 11.42 9.21995 7.99997 12.9499 7.99997V10.79C12.9499 11.24 13.4899 11.46 13.7999 11.14L17.5899 7.34997C17.7899 7.14997 17.7899 6.83997 17.5899 6.63997L13.7999 2.84997C13.4899 2.53997 12.9499 2.75997 12.9499 3.19997V5.99997C8.00995 5.99997 4.10995 10.48 5.10995 15.6C5.70995 18.71 8.00995 21.1 11.0999 21.79C15.9299 22.87 20.2499 19.59 20.8699 15.12C20.9599 14.53 20.4699 14 19.8699 14ZM13.4299 16.15C13.3799 16.22 13.3199 16.28 13.2499 16.32C13.1799 16.36 13.0799 16.38 12.9799 16.38C12.8099 16.38 12.6699 16.33 12.5599 16.23C12.4499 16.13 12.3899 15.99 12.3699 15.82H11.5299C11.5399 16.02 11.5799 16.19 11.6599 16.35C11.7399 16.51 11.8499 16.63 11.9799 16.74C12.1099 16.85 12.2699 16.93 12.4399 16.98C12.6099 17.03 12.7899 17.06 12.9699 17.06C13.2099 17.06 13.4299 17.02 13.6099 16.94C13.7899 16.86 13.9399 16.76 14.0599 16.63C14.1799 16.5 14.2699 16.35 14.3299 16.18C14.3899 16.01 14.4199 15.83 14.4199 15.64C14.4199 15.42 14.3899 15.21 14.3299 15.04C14.2699 14.87 14.1899 14.71 14.0799 14.59C13.9699 14.47 13.8299 14.37 13.6699 14.31C13.5099 14.25 13.3299 14.21 13.1199 14.21C13.0499 14.21 12.9799 14.22 12.9199 14.23C12.8599 14.24 12.7899 14.25 12.7399 14.27C12.6899 14.29 12.6399 14.3 12.5899 14.32C12.5399 14.34 12.5099 14.36 12.4799 14.37L12.5899 13.45H14.2899V12.74H11.8999L11.6499 14.91L12.3199 15.08C12.3499 15.05 12.3799 15.02 12.4199 14.99C12.4599 14.96 12.4899 14.94 12.5399 14.92C12.5899 14.9 12.6399 14.88 12.6899 14.87C12.7399 14.86 12.8199 14.85 12.8899 14.85C13.0099 14.85 13.1099 14.87 13.1899 14.9C13.2699 14.93 13.3499 14.99 13.3999 15.05C13.4499 15.11 13.4999 15.19 13.5299 15.29C13.5599 15.39 13.5699 15.48 13.5699 15.6C13.5699 15.72 13.5599 15.82 13.5399 15.91C13.5199 16 13.4799 16.08 13.4299 16.15V16.15Z" fill="black"/>
</svg>
