<svg width="24" height="24" viewBox="0 0 24 24" fill="none" xmlns="http://www.w3.org/2000/svg">
<path fill-rule="evenodd" clip-rule="evenodd" d="M19.5 21C18.6716 21 18 20.3284 18 19.5C18 18.6716 18.6716 18 19.5 18C20.3284 18 21 18.6716 21 19.5C21 20.3284 20.3284 21 19.5 21ZM11 18.03C13.84 18.19 16 19.01 16 20C16 21.1 13.31 22 10 22C6.69 22 4 21.1 4 20C4 19.26 5.21 18.62 7 18.27V19C7 19.55 7.45 20 8 20C8.55 20 9 19.55 9 19V3.59999C9 2.85999 9.78 2.37999 10.45 2.70999L15.21 5.03999C15.95 5.39999 15.95 6.45999 15.22 6.82999L11 8.97999V18.03Z" fill="black"/>
</svg>
