<svg width="24" height="24" viewBox="0 0 24 24" fill="none" xmlns="http://www.w3.org/2000/svg">
<path fill-rule="evenodd" clip-rule="evenodd" d="M12.6525 10.5593V13.183H16.9926C16.8177 14.3079 15.6807 16.4845 12.6525 16.4845C10.0397 16.4845 7.90795 14.321 7.90795 11.6525C7.90795 8.98506 10.0397 6.82049 12.6525 6.82049C14.1393 6.82049 15.1341 7.45456 15.7026 8.00117L17.7797 6.00058C16.446 4.75432 14.7187 4 12.6525 4C8.42176 4 5 7.42176 5 11.6525C5 15.8832 8.42176 19.305 12.6525 19.305C17.0691 19.305 20 16.2003 20 11.8274C20 11.3245 19.9442 10.9419 19.8787 10.5593H12.6525Z" fill="black"/>
</svg>
