<svg width="24" height="24" viewBox="0 0 24 24" fill="none" xmlns="http://www.w3.org/2000/svg">
<path fill-rule="evenodd" clip-rule="evenodd" d="M20 2H4C2.9 2 2.01 2.9 2.01 4L2 14C2 15.1 2.9 16 4 16H20C21.1 16 22 15.1 22 14V4C22 2.9 21.1 2 20 2ZM11 5H13V7H11V5ZM11 8H13V10H11V8ZM8 5H10V7H8V5ZM8 8H10V10H8V8ZM7 10H5V8H7V10ZM7 7H5V5H7V7ZM15 14H9C8.45 14 8 13.55 8 13C8 12.45 8.45 12 9 12H15C15.55 12 16 12.45 16 13C16 13.55 15.55 14 15 14ZM16 10H14V8H16V10ZM16 7H14V5H16V7ZM19 10H17V8H19V10ZM19 7H17V5H19V7ZM12.35 21.65L15.14 18.86C15.45 18.55 15.23 18.01 14.79 18.01H9.21C8.76 18.01 8.54 18.55 8.86 18.86L11.65 21.65C11.84 21.84 12.16 21.84 12.35 21.65V21.65Z" fill="black"/>
</svg>
