<svg width="24" height="24" viewBox="0 0 24 24" fill="none" xmlns="http://www.w3.org/2000/svg">
<path fill-rule="evenodd" clip-rule="evenodd" d="M12 7.40995L15.89 11.2999C16.28 11.6899 16.91 11.6899 17.3 11.2999C17.69 10.9099 17.69 10.2799 17.3 9.88995L12.71 5.29995C12.32 4.90995 11.69 4.90995 11.3 5.29995L6.7 9.88995C6.31 10.2799 6.31 10.9099 6.7 11.2999C7.09 11.6899 7.72 11.6899 8.11 11.2999L12 7.40995ZM7 16.9999H17C17.55 16.9999 18 16.5499 18 15.9999C18 15.4499 17.55 14.9999 17 14.9999H7C6.45 14.9999 6 15.4499 6 15.9999C6 16.5499 6.45 16.9999 7 16.9999Z" fill="black"/>
</svg>
