<svg width="24" height="24" viewBox="0 0 24 24" fill="none" xmlns="http://www.w3.org/2000/svg">
<path fill-rule="evenodd" clip-rule="evenodd" d="M13.29 8.12L16.17 11H3C2.45 11 2 11.45 2 12C2 12.55 2.45 13 3 13H16.17L13.29 15.88C12.9 16.27 12.9 16.9 13.29 17.29C13.68 17.68 14.31 17.68 14.7 17.29L19.29 12.7C19.68 12.31 19.68 11.68 19.29 11.29L14.7 6.7C14.31 6.31 13.68 6.31 13.29 6.7C12.91 7.09 12.9 7.73 13.29 8.12ZM21 7V17C21 17.55 21.45 18 22 18C22.55 18 23 17.55 23 17V7C23 6.45 22.55 6 22 6C21.45 6 21 6.45 21 7Z" fill="black"/>
</svg>
