<svg width="24" height="24" viewBox="0 0 24 24" fill="none" xmlns="http://www.w3.org/2000/svg">
<path fill-rule="evenodd" clip-rule="evenodd" d="M11.05 21C11.55 21 11.99 20.63 12.04 20.13C12.45 15.86 15.85 12.46 20.12 12.05C20.62 12 21 11.57 21 11.06C21 10.47 20.49 9.99999 19.9 10.06C14.71 10.58 10.58 14.71 10.06 19.89C10 20.48 10.46 21 11.05 21V21ZM18 21H21V18C19.34 18 18 19.34 18 21ZM15.09 21C15.58 21 15.99 20.64 16.07 20.15C16.43 18.07 18.07 16.43 20.15 16.07C20.64 15.99 21 15.58 21 15.09C21 14.48 20.46 14 19.86 14.09C16.9 14.57 14.57 16.9 14.09 19.86C13.99 20.46 14.48 21 15.09 21ZM12.97 3.01999C12.47 3.01999 12.03 3.38999 11.98 3.88999C11.57 8.15999 8.17002 11.56 3.90002 11.97C3.40002 12.02 3.02002 12.45 3.02002 12.96C3.02002 13.55 3.53002 14.02 4.12002 13.96C9.31002 13.44 13.44 9.30999 13.96 4.12999C14.03 3.54999 13.57 3.01999 12.97 3.01999ZM6.03002 3.01999H3.03002V6.01999C4.69002 6.01999 6.03002 4.67999 6.03002 3.01999ZM8.94002 3.01999C8.45002 3.01999 8.04002 3.37999 7.96002 3.86999C7.60002 5.94999 5.96002 7.58999 3.88002 7.94999C3.39002 8.03999 3.03002 8.43999 3.03002 8.93999C3.03002 9.54999 3.57002 10.03 4.17002 9.93999C7.13002 9.45999 9.46002 7.12999 9.94002 4.16999C10.03 3.55999 9.54002 3.01999 8.94002 3.01999Z" fill="black"/>
</svg>
