<svg width="24" height="24" viewBox="0 0 24 24" fill="none" xmlns="http://www.w3.org/2000/svg">
<path fill-rule="evenodd" clip-rule="evenodd" d="M19.68 8.22L20.63 8.54C21.45 8.82 22 9.58 22 10.44V20C22 21.1 21.1 22 20 22H13C11.9 22 11 21.1 11 20V10.44C11 9.58 11.55 8.82 12.37 8.55L13.32 8.23C13.72 8.09 14 7.71 14 7.28V3C14 2.45 14.45 2 15 2H18C18.55 2 19 2.45 19 3V7.28C19 7.71 19.28 8.09 19.68 8.22ZM17 4H16V5H17V4ZM13.95 10.12L13 10.44V12H20V10.44L19.05 10.13C17.82 9.72 17 8.57 17 7.28V7H16V7.28C16 8.57 15.18 9.72 13.95 10.12ZM13 20H20V18H13V20ZM5 16.82C3.84 16.4 3 15.3 3 14V6H9V14C9 15.3 8.16 16.4 7 16.82V20H9V22H3V20H5V16.82ZM7 8H5V11H7V8Z" fill="black"/>
</svg>
