<svg width="24" height="24" viewBox="0 0 24 24" fill="none" xmlns="http://www.w3.org/2000/svg">
<path fill-rule="evenodd" clip-rule="evenodd" d="M19.23 15.26L16.69 14.97C16.08 14.9 15.48 15.11 15.05 15.54L13.21 17.38C10.38 15.94 8.05999 13.63 6.61999 10.79L8.47 8.93999C8.9 8.50999 9.10999 7.90999 9.03999 7.29999L8.74999 4.77999C8.62999 3.76999 7.77999 3.00999 6.75999 3.00999H5.02999C3.89999 3.00999 2.95999 3.94999 3.02999 5.07999C3.55999 13.62 10.39 20.44 18.92 20.97C20.05 21.04 20.99 20.1 20.99 18.97V17.24C21 16.23 20.24 15.38 19.23 15.26Z" fill="black"/>
</svg>
