<svg width="24" height="24" viewBox="0 0 24 24" fill="none" xmlns="http://www.w3.org/2000/svg">
<path fill-rule="evenodd" clip-rule="evenodd" d="M17 5.00001C17.83 5.00001 18.5 4.33001 18.5 3.50001C18.5 2.84001 17.84 1.86001 17.39 1.28001C17.19 1.02001 16.8 1.02001 16.6 1.28001C16.16 1.86001 15.5 2.84001 15.5 3.50001C15.5 4.33001 16.17 5.00001 17 5.00001ZM12 5.00001C12.83 5.00001 13.5 4.33001 13.5 3.50001C13.5 2.84001 12.84 1.86001 12.39 1.28001C12.19 1.02001 11.8 1.02001 11.6 1.28001C11.16 1.86001 10.5 2.84001 10.5 3.50001C10.5 4.33001 11.17 5.00001 12 5.00001V5.00001ZM7 5.00001C7.83 5.00001 8.5 4.33001 8.5 3.50001C8.5 2.84001 7.84 1.86001 7.39 1.28001C7.19 1.02001 6.8 1.02001 6.6 1.28001C6.16 1.86001 5.5 2.84001 5.5 3.50001C5.5 4.33001 6.17 5.00001 7 5.00001ZM18.92 8.01001C18.72 7.42001 18.16 7.00001 17.5 7.00001H6.5C5.84 7.00001 5.29 7.42001 5.08 8.01001L3.11 13.68C3.04 13.89 3 14.11 3 14.34V21.5C3 22.33 3.67 23 4.5 23C5.33 23 6 22.33 6 21.5V21H18V21.5C18 22.32 18.67 23 19.5 23C20.32 23 21 22.33 21 21.5V14.34C21 14.12 20.96 13.89 20.89 13.68L18.92 8.01001ZM6.5 18C5.67 18 5 17.33 5 16.5C5 15.67 5.67 15 6.5 15C7.33 15 8 15.67 8 16.5C8 17.33 7.33 18 6.5 18ZM17.5 18C16.67 18 16 17.33 16 16.5C16 15.67 16.67 15 17.5 15C18.33 15 19 15.67 19 16.5C19 17.33 18.33 18 17.5 18ZM5 13L6.27 9.18001C6.41 8.78001 6.79 8.50001 7.22 8.50001H16.78C17.21 8.50001 17.59 8.78001 17.73 9.18001L19 13H5Z" fill="black"/>
</svg>
