<svg width="24" height="24" viewBox="0 0 24 24" fill="none" xmlns="http://www.w3.org/2000/svg">
<path fill-rule="evenodd" clip-rule="evenodd" d="M18.2784 3H4.8384C3.7824 3 2.9184 3.9 2.9184 5V19C2.9184 20.1 3.7824 21 4.8384 21H18.2784C19.3344 21 20.1984 20.1 20.1984 19V5C20.1984 3.9 19.3344 3 18.2784 3ZM13.4784 17C12.9504 17 12.5184 16.55 12.5184 16V13H9.6384C9.1104 13 8.6784 12.55 8.6784 12V8C8.6784 7.45 9.1104 7 9.6384 7C10.1664 7 10.5984 7.45 10.5984 8V11H12.5184V8C12.5184 7.45 12.9504 7 13.4784 7C14.0064 7 14.4384 7.45 14.4384 8V16C14.4384 16.55 14.0064 17 13.4784 17Z" fill="black"/>
</svg>
