<svg width="24" height="24" viewBox="0 0 24 24" fill="none" xmlns="http://www.w3.org/2000/svg">
<path fill-rule="evenodd" clip-rule="evenodd" d="M21.9957 10C22.3157 6.72 17.7157 4 12.0057 4C6.29574 4 1.69574 6.72 2.01574 10H21.9957ZM5.35 13.5C5.89463 13.5 6.12548 13.6373 6.48921 13.8536L6.5 13.86C6.95 14.13 7.57 14.5 8.68 14.5C9.79 14.5 10.41 14.13 10.86 13.86C11.23 13.63 11.45 13.5 12.01 13.5C12.5546 13.5 12.7855 13.6373 13.1492 13.8536L13.16 13.86C13.61 14.13 14.23 14.5 15.34 14.5C16.45 14.5 17.07 14.13 17.52 13.86C17.89 13.63 18.11 13.5 18.67 13.5C19.2146 13.5 19.4455 13.6373 19.8092 13.8536L19.82 13.86C20.27 14.13 20.89 14.49 21.99 14.5V12.52C21.99 12.52 21.2 12.36 20.83 12.14C20.38 11.87 19.76 11.5 18.65 11.5C17.54 11.5 16.92 11.87 16.47 12.14C16.1 12.37 15.87 12.5 15.32 12.5C14.7754 12.5 14.5445 12.3627 14.1808 12.1464L14.17 12.14C13.72 11.87 13.1 11.5 11.99 11.5C10.88 11.5 10.26 11.87 9.81 12.14C9.44 12.37 9.22 12.5 8.66 12.5C8.11537 12.5 7.88452 12.3627 7.52079 12.1464L7.51 12.14C7.06 11.87 6.44 11.5 5.33 11.5C4.22 11.5 3.6 11.87 3.15 12.14C2.78 12.37 2.56 12.5 2 12.5V14.5C3.07498 14.5 3.69039 14.153 4.16414 13.8858L4.21 13.86C4.58 13.63 4.8 13.5 5.35 13.5ZM2 18V16H22V18C22 19.1 21.1 20 20 20H4C2.9 20 2 19.1 2 18Z" fill="black"/>
</svg>
