<svg width="24" height="24" viewBox="0 0 24 24" fill="none" xmlns="http://www.w3.org/2000/svg">
<path fill-rule="evenodd" clip-rule="evenodd" d="M12 6C13.45 4.9 15.55 4.5 17.5 4.5C18.95 4.5 20.49 4.72 21.77 5.29C22.5 5.62 22.99 6.33 22.99 7.14V18.42C22.99 19.73 21.77 20.69 20.51 20.36C19.53 20.11 18.49 20 17.49 20C15.93 20 14.27 20.25 12.93 20.92C12.34 21.22 11.66 21.22 11.06 20.92C9.72 20.26 8.06 20 6.5 20C5.5 20 4.46 20.11 3.48 20.36C2.22 20.68 1 19.72 1 18.42V7.14C1 6.33 1.49 5.62 2.22 5.29C3.51 4.72 5.05 4.5 6.5 4.5C8.45 4.5 10.55 4.9 12 6ZM19.8 18.21C20.42 18.32 21 17.86 21 17.23V7.76C21 7.29 20.66 6.88 20.2 6.78C19.33 6.59 18.42 6.5 17.5 6.5C15.8 6.5 13.35 7.15 12 8V19.51C13.35 18.66 15.8 18.01 17.5 18.01C18.27 18.01 19.05 18.07 19.8 18.21ZM13.2699 10.4901C13.3699 10.8101 13.6599 11.0101 13.9799 11.0101C14.0252 11.0101 14.0746 11.0017 14.1255 10.9931C14.1534 10.9884 14.1816 10.9836 14.2099 10.9801C15.5499 10.5501 17.3199 10.4001 18.9399 10.5901C19.3499 10.6401 19.7199 10.3401 19.7699 9.9301C19.8199 9.5201 19.5199 9.1501 19.1099 9.1001C17.2799 8.8901 15.2899 9.0501 13.7499 9.5501C13.3599 9.6701 13.1399 10.1001 13.2699 10.4901ZM13.9799 13.67C13.6599 13.67 13.3699 13.47 13.2699 13.15C13.1399 12.76 13.3599 12.33 13.7499 12.21C15.2799 11.71 17.2799 11.55 19.1099 11.76C19.5199 11.81 19.8199 12.18 19.7699 12.59C19.7199 13 19.3499 13.3 18.9399 13.25C17.3199 13.06 15.5499 13.21 14.2099 13.64C14.1299 13.66 14.0499 13.67 13.9799 13.67ZM13.2699 15.8099C13.3699 16.1299 13.6599 16.3299 13.9799 16.3299C14.0499 16.3299 14.1299 16.3199 14.2099 16.2999C15.5499 15.8699 17.3199 15.7199 18.9399 15.9099C19.3499 15.9499 19.7199 15.6599 19.7699 15.2499C19.8199 14.8399 19.5199 14.4699 19.1099 14.4199C17.2799 14.2099 15.2799 14.3699 13.7499 14.8699C13.3599 14.9899 13.1399 15.4199 13.2699 15.8099Z" fill="black"/>
</svg>
