<svg width="24" height="24" viewBox="0 0 24 24" fill="none" xmlns="http://www.w3.org/2000/svg">
<g clip-path="url(#clip0_5_1671)">
<path fill-rule="evenodd" clip-rule="evenodd" d="M13.5685 12.29L12.1685 14.71C12.0785 14.86 11.8985 14.92 11.7385 14.86L9.99854 14.16C9.63854 14.44 9.23854 14.67 8.81854 14.85L8.55854 16.7C8.52854 16.87 8.37854 17 8.20854 17H5.40854C5.23854 17 5.08854 16.87 5.05854 16.71L4.79854 14.86C4.36854 14.68 3.97854 14.45 3.61854 14.17L1.87854 14.87C1.71854 14.93 1.53854 14.87 1.44854 14.72L0.0485385 12.3C-0.0414615 12.15 -0.00146136 11.96 0.128539 11.85L1.60854 10.69C1.57854 10.46 1.55854 10.23 1.55854 10C1.55854 9.77 1.57854 9.54 1.60854 9.32L0.128539 8.16C-0.00146136 8.05 -0.0414615 7.86 0.0485385 7.71L1.44854 5.29C1.53854 5.14 1.71854 5.08 1.87854 5.14L3.61854 5.84C3.97854 5.56 4.37854 5.33 4.79854 5.15L5.05854 3.3C5.08854 3.13 5.23854 3 5.40854 3H8.20854C8.37854 3 8.52854 3.13 8.55854 3.29L8.81854 5.14C9.24854 5.32 9.63854 5.55 9.99854 5.83L11.7385 5.13C11.8985 5.07 12.0785 5.13 12.1685 5.28L13.5685 7.7C13.6585 7.85 13.6185 8.04 13.4885 8.15L12.0085 9.31C12.0385 9.54 12.0585 9.77 12.0585 10C12.0585 10.23 12.0385 10.46 12.0085 10.68L13.4885 11.84C13.6185 11.95 13.6585 12.14 13.5685 12.29ZM4.80854 10C4.80854 11.1 5.70854 12 6.80854 12C7.90854 12 8.80854 11.1 8.80854 10C8.80854 8.9 7.90854 8 6.80854 8C5.70854 8 4.80854 8.9 4.80854 10ZM20.96 17.93L21.92 18.67C22 18.74 22.03 18.86 21.97 18.95L21.07 20.5C21.01 20.6 20.89 20.64 20.79 20.6L19.67 20.15C19.45 20.33 19.19 20.47 18.92 20.59L18.75 21.77C18.74 21.88 18.64 21.96 18.53 21.96H16.74C16.63 21.96 16.54 21.88 16.52 21.77L16.35 20.59C16.07 20.48 15.82 20.33 15.59 20.15L14.48 20.6C14.37 20.63 14.25 20.6 14.2 20.5L13.3 18.95C13.24 18.85 13.27 18.73 13.35 18.66L14.3 17.92C14.28 17.78 14.27 17.63 14.27 17.48C14.27 17.33 14.28 17.18 14.3 17.04L13.35 16.3C13.26 16.23 13.25 16.11 13.3 16.01L14.2 14.46C14.26 14.36 14.38 14.32 14.48 14.36L15.59 14.81C15.82 14.63 16.08 14.49 16.35 14.37L16.52 13.19C16.53 13.08 16.63 13 16.74 13H18.53C18.63 13 18.73 13.08 18.74 13.2L18.91 14.38C19.19 14.49 19.44 14.64 19.67 14.82L20.78 14.37C20.89 14.34 21.01 14.37 21.06 14.47L21.96 16.02C22.02 16.12 21.99 16.24 21.91 16.31L20.96 17.05C20.99 17.19 21 17.34 21 17.49C21 17.64 20.98 17.79 20.96 17.93ZM16.28 17.48C16.28 18.23 16.89 18.83 17.63 18.83C18.37 18.83 18.98 18.23 18.98 17.48C18.98 16.73 18.38 16.13 17.63 16.13C16.88 16.13 16.28 16.73 16.28 17.48Z" fill="black"/>
</g>
<defs>
<clipPath id="clip0_5_1671">
<rect width="24" height="24" fill="white"/>
</clipPath>
</defs>
</svg>
