<svg width="24" height="24" viewBox="0 0 24 24" fill="none" xmlns="http://www.w3.org/2000/svg">
<path d="M21.96 11.05C22.54 17.31 17.32 22.53 11.06 21.95C6.63 21.54 2.94 18.1 2.16 13.72C1.9 12.3 1.97 10.94 2.28 9.67997C2.42 9.09997 3.04 8.77997 3.59 8.97997C4.06 9.14997 4.34 9.64997 4.22 10.14C4.02 10.96 3.95 11.84 4.03 12.75C4.4 16.79 7.92 20 11.98 20.01C16.77 20.02 20.59 15.8 19.92 10.89C19.41 7.18997 16.26 4.26997 12.53 4.02997C11.7 3.96997 10.9 4.04997 10.15 4.22997C9.66 4.33997 9.16 4.06997 8.99 3.58997C8.79 3.02997 9.11 2.41997 9.68 2.27997C11.47 1.84997 13.43 1.86997 15.46 2.64997C19.02 3.99997 21.61 7.26997 21.96 11.05ZM5.5 3.99997C4.67 3.99997 4 4.66997 4 5.49997C4 6.32997 4.67 6.99997 5.5 6.99997C6.33 6.99997 7 6.32997 7 5.49997C7 4.66997 6.33 3.99997 5.5 3.99997ZM18 12C18 15.31 15.31 18 12 18C8.69 18 6 15.31 6 12C6 8.68997 8.69 5.99997 12 5.99997C15.31 5.99997 18 8.68997 18 12ZM10 8.99997C9.45 8.99997 9 9.44997 9 9.99997V14C9 14.55 9.45 15 10 15C10.55 15 11 14.55 11 14V9.99997C11 9.44997 10.55 8.99997 10 8.99997ZM14 8.99997C13.45 8.99997 13 9.44997 13 9.99997V14C13 14.55 13.45 15 14 15C14.55 15 15 14.55 15 14V9.99997C15 9.44997 14.55 8.99997 14 8.99997Z" fill="black"/>
</svg>
