<svg width="24" height="24" viewBox="0 0 24 24" fill="none" xmlns="http://www.w3.org/2000/svg">
<path d="M21.5 10.78C21.78 10.78 22 10.56 22 10.28V9.04C22 8.88 21.92 8.72 21.79 8.63L12.57 2.18C12.23 1.94 11.77 1.94 11.42 2.18L2.21 8.63C2.08 8.72 2 8.88 2 9.04V10.28C2 10.56 2.22 10.78 2.5 10.78H4V19.78H3C2.45 19.78 2 20.23 2 20.78C2 21.33 2.45 21.78 3 21.78H21C21.55 21.78 22 21.33 22 20.78C22 20.23 21.55 19.78 21 19.78H20V10.78H21.5ZM16 16.78C16 17.33 15.55 17.78 15 17.78C14.45 17.78 14 17.33 14 16.78V13.78L12.83 15.53C12.43 16.12 11.56 16.12 11.17 15.53L10 13.78V16.78C10 17.33 9.55 17.78 9 17.78C8.45 17.78 8 17.33 8 16.78V12.08C8 11.36 8.58 10.78 9.3 10.78C9.73 10.78 10.14 11 10.38 11.36L12 13.78L13.61 11.36C13.86 11 14.26 10.78 14.7 10.78C15.42 10.78 16 11.36 16 12.08V16.78Z" fill="black"/>
</svg>
