<svg width="24" height="24" viewBox="0 0 24 24" fill="none" xmlns="http://www.w3.org/2000/svg">
<path fill-rule="evenodd" clip-rule="evenodd" d="M4.5 11C3.67157 11 3 10.3284 3 9.5C3 8.67157 3.67157 8 4.5 8C5.32843 8 6 8.67157 6 9.5C6 10.3284 5.32843 11 4.5 11ZM22.17 9.17C22.17 12.76 19.47 15.71 16 16.12V20H18C18.55 20 19 20.45 19 21C19 21.55 18.55 22 18 22H4C3.45 22 3 21.55 3 21V17H2.5C2.22 17 2 16.78 2 16.5V13C2 12.45 2.45 12 3 12H6C6.55 12 7 12.45 7 13V16.5C7 16.78 6.78 17 6.5 17H6V20H14.01V16.06C10.76 15.52 8.27 12.74 8.18 9.36C8.07 5.54 11.23 2.23 15.06 2.17C18.98 2.11 22.17 5.26 22.17 9.17Z" fill="black"/>
</svg>
