<svg width="24" height="24" viewBox="0 0 24 24" fill="none" xmlns="http://www.w3.org/2000/svg">
<path d="M10.8 3.9L4.8 8.4C4.3 8.78 4 9.37 4 10V19C4 20.1 4.9 21 6 21H18C19.1 21 20 20.1 20 19V10C20 9.37 19.7 8.78 19.2 8.4L13.2 3.9C12.49 3.37 11.51 3.37 10.8 3.9ZM9.75 12.5C10.44 12.5 11 13.06 11 13.75C11 14.44 10.44 15 9.75 15C9.06 15 8.5 14.44 8.5 13.75C8.5 13.06 9.06 12.5 9.75 12.5ZM16.5 18C16.22 18 16 17.78 16 17.5V16.5H8V17.5C8 17.78 7.78 18 7.5 18C7.22 18 7 17.78 7 17.5V11.5C7 11.22 7.22 11 7.5 11C7.78 11 8 11.22 8 11.5V15.5H11.5V12.5C11.5 12.22 11.72 12 12 12H15C16.1 12 17 12.9 17 14V17.5C17 17.78 16.78 18 16.5 18Z" fill="black"/>
</svg>
