<svg width="24" height="24" viewBox="0 0 24 24" fill="none" xmlns="http://www.w3.org/2000/svg">
<path d="M21 18.17L19 16.17V14H18C16.9 14 16 13.1 16 12V6C16 4.51 17.6 2.68 19.76 2.15C20.39 2 21 2.48 21 3.13V18.17ZM21.19 22.61C20.8 23 20.17 23 19.78 22.61L10.02 12.85C9.69 12.94 9.36 13 9 13V21C9 21.55 8.55 22 8 22C7.45 22 7 21.55 7 21V13C4.79 13 3 11.21 3 9V5.83L1.39 4.22C1 3.83 1 3.2 1.39 2.81C1.78 2.42 2.41 2.42 2.8 2.81L21.18 21.19C21.58 21.58 21.58 22.22 21.19 22.61ZM6.17 9L5 7.83V9H6.17ZM13 9V3C13 2.45 12.55 2 12 2C11.45 2 11 2.45 11 3V8.17L12.85 10.02C12.94 9.69 13 9.36 13 9ZM9 3C9 2.45 8.55 2 8 2C7.45 2 7 2.45 7 3V4.17L9 6.17V3Z" fill="black"/>
</svg>
