<svg width="24" height="24" viewBox="0 0 24 24" fill="none" xmlns="http://www.w3.org/2000/svg">
<path d="M10.9402 8.12008L7.48016 4.66008L8.40016 3.65008C8.78016 3.24008 9.32016 3.00008 9.88016 3.00008H14.1202C14.6802 3.00008 15.2202 3.24008 15.5902 3.65008L16.8302 5.00008H20.0002C21.1002 5.00008 22.0002 5.90008 22.0002 7.00008V19.0001C22.0002 19.0501 21.9902 19.1001 21.9802 19.1601L16.8802 14.0601C16.9602 13.7101 17.0002 13.3601 17.0002 13.0001C17.0002 10.2401 14.7602 8.00008 12.0002 8.00008C11.6402 8.00008 11.2902 8.04008 10.9402 8.12008ZM19.7802 22.6101L18.1702 21.0001H4.00016C2.90016 21.0001 2.00016 20.1001 2.00016 19.0001V7.00008C2.00016 6.41008 2.27016 5.88008 2.68016 5.51008L1.39016 4.22008C1.00016 3.83008 1.00016 3.20008 1.39016 2.81008C1.78016 2.42008 2.41016 2.42008 2.80016 2.81008L21.1802 21.1901C21.5702 21.5801 21.5702 22.2101 21.1802 22.6001C20.8002 23.0001 20.1702 23.0001 19.7802 22.6101ZM14.4902 17.3201L12.9902 15.8201C12.6702 15.9201 12.3502 16.0001 12.0002 16.0001C10.3402 16.0001 9.00016 14.6601 9.00016 13.0001C9.00016 12.6501 9.08016 12.3301 9.19016 12.0201L7.69016 10.5201C7.25016 11.2401 7.00016 12.0901 7.00016 13.0001C7.00016 15.7601 9.24016 18.0001 12.0002 18.0001C12.9102 18.0001 13.7602 17.7501 14.4902 17.3201Z" fill="black"/>
</svg>
