<svg width="24" height="24" viewBox="0 0 24 24" fill="none" xmlns="http://www.w3.org/2000/svg">
<path fill-rule="evenodd" clip-rule="evenodd" d="M12 2C8.14 2 5 5.14 5 9C5 13.17 9.42 18.92 11.23 21.11C11.63 21.59 12.36 21.59 12.76 21.11C14.58 18.92 19 13.17 19 9C19 5.14 15.86 2 12 2ZM12.88 15.75H11.13V14H12.88V15.75ZM13.26 11.71C13.23 11.75 13.2 11.8 13.17 11.85C13.15 11.89 13.12 11.93 13.1 11.97C13.07 12.02 13.05 12.07 13.03 12.12C13.01 12.16 12.99 12.2 12.98 12.25C12.92 12.44 12.88 12.65 12.88 12.88H11.12C11.12 12.52 11.16 12.22 11.23 11.95H11.25V11.89C11.76 10.13 13.61 10.03 13.73 8.65C13.8 7.8 13.2 6.98 12.37 6.8C11.46 6.6 10.63 7.13 10.34 7.92C10.23 8.25 9.94 8.5 9.58 8.5H9.42C8.87 8.5 8.49 7.97 8.66 7.45C9.16 5.87 10.75 4.77 12.55 5.05C14.07 5.28 15.27 6.58 15.47 8.1C15.74 10.09 14.05 10.61 13.26 11.71Z" fill="black"/>
</svg>
