<svg width="24" height="24" viewBox="0 0 24 24" fill="none" xmlns="http://www.w3.org/2000/svg">
<path fill-rule="evenodd" clip-rule="evenodd" d="M13 8C13 10.2091 11.2091 12 9 12C6.79086 12 5 10.2091 5 8C5 5.79086 6.79086 4 9 4C11.2091 4 13 5.79086 13 8ZM18.9999 16.9999C18.9999 15.3199 18.0399 14.0599 16.6699 13.1299C19.4299 13.5299 22.9999 14.8199 22.9999 16.9999V18.9999C22.9999 19.5499 22.5499 19.9999 21.9999 19.9999H18.9999V16.9999ZM14.9999 12C17.2099 12 18.9999 10.21 18.9999 8C18.9999 5.79 17.2099 4 14.9999 4C14.5299 4 14.0899 4.1 13.6699 4.24C14.4999 5.27 14.9999 6.58 14.9999 8C14.9999 9.42 14.4999 10.73 13.6699 11.76C14.0899 11.9 14.5299 12 14.9999 12ZM1 17C1 14.34 6.33 13 9 13C11.67 13 17 14.34 17 17V19C17 19.55 16.55 20 16 20H2C1.45 20 1 19.55 1 19V17Z" fill="black"/>
</svg>
