<svg width="24" height="24" viewBox="0 0 24 24" fill="none" xmlns="http://www.w3.org/2000/svg">
<path fill-rule="evenodd" clip-rule="evenodd" d="M22.65 5.65L18.86 1.86C18.54 1.54 18 1.76 18 2.21V4H14.5C14.22 4 14 4.22 14 4.5V7.5C14 7.78 14.22 8 14.5 8H18V9.79C18 10.24 18.54 10.46 18.85 10.14L22.64 6.35C22.84 6.16 22.84 5.84 22.65 5.65ZM19.23 15.26L16.69 14.97C16.08 14.9 15.48 15.11 15.05 15.54L13.21 17.38C10.38 15.94 8.06001 13.63 6.62001 10.79L8.47001 8.94C8.90001 8.51 9.11001 7.91 9.04001 7.3L8.75001 4.78C8.63001 3.77 7.78001 3.01 6.76001 3.01H5.03001C3.90001 3.01 2.96001 3.95 3.03001 5.08C3.56001 13.62 10.39 20.44 18.92 20.97C20.05 21.04 20.99 20.1 20.99 18.97V17.24C21 16.23 20.24 15.38 19.23 15.26Z" fill="black"/>
</svg>
