<svg width="24" height="24" viewBox="0 0 24 24" fill="none" xmlns="http://www.w3.org/2000/svg">
<path fill-rule="evenodd" clip-rule="evenodd" d="M13 9H3C2.45 9 2 9.45 2 10C2 10.55 2.45 11 3 11H13C13.55 11 14 10.55 14 10C14 9.45 13.55 9 13 9ZM13 5H3C2.45 5 2 5.45 2 6C2 6.55 2.45 7 3 7H13C13.55 7 14 6.55 14 6C14 5.45 13.55 5 13 5ZM3 15H9C9.55 15 10 14.55 10 14C10 13.45 9.55 13 9 13H3C2.45 13 2 13.45 2 14C2 14.55 2.45 15 3 15ZM22.21 11.21L22.3 11.3C22.69 11.69 22.69 12.32 22.3 12.71L16.72 18.3C16.33 18.69 15.7 18.69 15.31 18.3L12.22 15.21C11.83 14.82 11.83 14.19 12.22 13.8L12.31 13.71C12.7 13.32 13.33 13.32 13.72 13.71L16.02 16.01L20.8 11.22C21.18 10.82 21.82 10.82 22.21 11.21V11.21Z" fill="black"/>
</svg>
