<svg width="24" height="24" viewBox="0 0 24 24" fill="none" xmlns="http://www.w3.org/2000/svg">
<path fill-rule="evenodd" clip-rule="evenodd" d="M19.28 4.9301L17.16 2.8101C16.38 2.0301 15.11 2.0301 14.33 2.8101L11.5 5.6401L13.62 7.7601L15.74 5.6401L19.28 9.1801C20.45 8.0001 20.45 6.1001 19.28 4.9301ZM5.49011 13.7702C6.08011 14.3602 7.03011 14.3602 7.61011 13.7702L10.0801 11.3002L7.96011 9.17017L5.49011 11.6402C4.90011 12.2302 4.90011 13.1802 5.49011 13.7702ZM13.6201 9.17011L14.3301 8.46011C14.7201 8.07011 15.3501 8.07011 15.7401 8.47011L17.8601 10.5901C18.2501 10.9801 18.2501 11.6101 17.8601 12.0001C17.4701 12.3901 16.8401 12.3901 16.4501 12.0001L7.26009 21.2001C6.40009 22.0601 4.95009 21.9701 4.21009 20.9401C3.62009 20.1301 3.80009 18.9901 4.50009 18.2901L11.5001 11.2901L8.32009 8.11011C7.73009 7.53011 7.73009 6.58011 8.32009 5.99011C8.90009 5.40011 9.85009 5.40011 10.4401 5.99011L13.6201 9.17011Z" fill="black"/>
</svg>
