<svg width="24" height="24" viewBox="0 0 24 24" fill="none" xmlns="http://www.w3.org/2000/svg">
<path d="M19.9302 8.34994L16.3301 10.0299L14.0001 7.69994V6.29994L16.3301 3.96994L19.9302 5.64994C20.3102 5.82994 20.7502 5.65994 20.9302 5.28994C21.1102 4.90994 20.9402 4.46994 20.5702 4.28994L16.6501 2.45994C16.2701 2.27994 15.8202 2.35994 15.5202 2.65994L13.7801 4.39994C13.6001 4.15994 13.3201 3.99994 13.0001 3.99994C12.4501 3.99994 12.0001 4.44994 12.0001 4.99994V5.99994H8.82015C8.34015 4.65994 6.96015 3.74994 5.40015 4.05994C4.23015 4.28994 3.27015 5.24994 3.05015 6.41994C2.80015 7.75994 3.45015 8.95994 4.48015 9.57994L7.08015 17.9999H5.50015C4.67015 17.9999 4.00015 18.6699 4.00015 19.4999C4.00015 20.3299 4.67015 20.9999 5.50015 20.9999H15.5001C16.3301 20.9999 17.0001 20.3299 17.0001 19.4999C17.0001 18.6699 16.3301 17.9999 15.5001 17.9999H13.3801L8.41015 8.76994C8.58015 8.52994 8.72015 8.27994 8.82015 7.99994H12.0001V8.99994C12.0001 9.54994 12.4501 9.99994 13.0001 9.99994C13.3201 9.99994 13.6001 9.83994 13.7801 9.59994L15.5202 11.3399C15.8202 11.6399 16.2701 11.7199 16.6501 11.5399L20.5702 9.70994C20.9502 9.52994 21.1102 9.08994 20.9302 8.70994C20.7502 8.33994 20.3102 8.16994 19.9302 8.34994ZM6.00015 7.99994C5.45015 7.99994 5.00015 7.54994 5.00015 6.99994C5.00015 6.44994 5.45015 5.99994 6.00015 5.99994C6.55015 5.99994 7.00015 6.44994 7.00015 6.99994C7.00015 7.54994 6.55015 7.99994 6.00015 7.99994Z" fill="black"/>
</svg>
