<svg width="24" height="24" viewBox="0 0 24 24" fill="none" xmlns="http://www.w3.org/2000/svg">
<path fill-rule="evenodd" clip-rule="evenodd" d="M8.1 13.34L10.93 10.51L4.74 4.32999C4.26 3.84999 3.43 3.97999 3.13 4.59999C2.42 6.08999 2.68 7.91999 3.91 9.15999L8.1 13.34ZM14.88 11.53C16.41 12.24 18.56 11.74 20.15 10.15C22.06 8.23999 22.43 5.49999 20.96 4.02999C19.5 2.56999 16.76 2.92999 14.84 4.83999C13.25 6.42999 12.75 8.57999 13.46 10.11L4.4 19.17C4.01 19.56 4.01 20.19 4.4 20.58C4.79 20.97 5.42 20.97 5.81 20.58L12 14.41L18.18 20.59C18.57 20.98 19.2 20.98 19.59 20.59C19.98 20.2 19.98 19.57 19.59 19.18L13.41 13L14.88 11.53Z" fill="black"/>
</svg>
