<svg width="24" height="24" viewBox="0 0 24 24" fill="none" xmlns="http://www.w3.org/2000/svg">
<path fill-rule="evenodd" clip-rule="evenodd" d="M14 6C14 7.10457 13.1046 8 12 8C10.8954 8 10 7.10457 10 6C10 4.89543 10.8954 4 12 4C13.1046 4 14 4.89543 14 6ZM20.15 13.96C20.64 14.01 21 14.44 21 14.94C21 15.54 20.47 16 19.87 15.94C17.57 15.66 15.56 14.55 14 12.75V15L17.87 16.55C18.68 16.87 19.16 17.74 18.95 18.63C18.75 19.46 17.95 20 17.1 20H10V19.5C10 18.67 10.67 18 11.5 18H14.5C14.78 18 15 17.78 15 17.5C15 17.22 14.78 17 14.5 17H11.5C10.12 17 9 18.12 9 19.5V20H6.79C5.74 20 4.91 19.1 5.01 18.03C5.08 17.33 5.59 16.76 6.24 16.5L10 15V12.75C8.45 14.55 6.43 15.67 4.13 15.94C3.53 16.01 3 15.54 3 14.94C3 14.44 3.36 14.01 3.86 13.95C5.74 13.74 7.36 12.82 8.61 11.32L9.95 9.72C10.33 9.26 10.89 9 11.48 9H12.53C13.12 9 13.68 9.26 14.06 9.73L15.4 11.33C16.66 12.83 18.27 13.75 20.15 13.96Z" fill="black"/>
</svg>
