<svg width="24" height="24" viewBox="0 0 24 24" fill="none" xmlns="http://www.w3.org/2000/svg">
<path fill-rule="evenodd" clip-rule="evenodd" d="M3 19V5C3 3.9 3.89 3 5 3H19C20.1 3 21 3.9 21 5V19C21 20.1 20.1 21 19 21H5C3.89 21 3 20.1 3 19ZM14.5357 6.56227C14.0352 6.32886 13.4402 6.54542 13.2068 7.04596L8.98059 16.109C8.74719 16.6096 8.96374 17.2046 9.46428 17.438C9.96482 17.6714 10.5598 17.4548 10.7932 16.9543L15.0194 7.89119C15.2528 7.39065 15.0362 6.79567 14.5357 6.56227Z" fill="black"/>
</svg>
