<svg width="24" height="24" viewBox="0 0 24 24" fill="none" xmlns="http://www.w3.org/2000/svg">
<path fill-rule="evenodd" clip-rule="evenodd" d="M15.4899 9.63C15.3299 7.21 14.4599 4.84 12.8499 2.87C12.4399 2.37 11.6899 2.37 11.2799 2.87C9.62994 4.85 8.70994 7.22 8.50994 9.63C9.78994 10.31 10.9699 11.19 11.9999 12.26C13.0299 11.2 14.2099 10.32 15.4899 9.63V9.63ZM8.98994 12.28C8.84994 12.18 8.68994 12.09 8.53994 11.99C8.68994 12.1 8.84994 12.18 8.98994 12.28ZM15.4099 12.03C15.2799 12.12 15.1399 12.19 15.0099 12.29C15.1399 12.19 15.2799 12.12 15.4099 12.03ZM11.9999 15.45C10.0499 12.48 6.85994 10.42 3.16994 10.06C2.52994 10 1.99994 10.53 2.05994 11.17C2.50994 15.97 5.70994 19.95 10.0399 21.5C10.6699 21.73 11.3299 21.9 12.0099 22.01C12.6899 21.89 13.3399 21.72 13.9799 21.5C18.3099 19.95 21.5099 15.98 21.9599 11.17C22.0199 10.53 21.4799 10 20.8499 10.06C17.1399 10.42 13.9499 12.48 11.9999 15.45Z" fill="black"/>
</svg>
