<svg width="24" height="24" viewBox="0 0 24 24" fill="none" xmlns="http://www.w3.org/2000/svg">
<path fill-rule="evenodd" clip-rule="evenodd" d="M1.90994 2.36C1.55994 2.01 0.989941 2.01 0.639941 2.36C0.289941 2.71 0.289941 3.28 0.639941 3.63L2.01994 5.01L1.99994 22L5.99994 18H14.9999L20.0899 23.09C20.4399 23.44 21.0099 23.44 21.3599 23.09C21.7099 22.74 21.7099 22.17 21.3599 21.82L1.90994 2.36ZM6.99994 14C6.44994 14 5.99994 13.55 5.99994 13C5.99994 12.45 6.44994 12 6.99994 12C7.54994 12 7.99994 12.45 7.99994 13C7.99994 13.55 7.54994 14 6.99994 14ZM6.99994 11C6.44994 11 5.99994 10.55 5.99994 10C5.99994 9.45 6.44994 9 6.99994 9C7.54994 9 7.99994 9.45 7.99994 10C7.99994 10.55 7.54994 11 6.99994 11ZM19.9999 2H4.07994L11.0799 9H16.9999C17.5499 9 17.9999 9.45 17.9999 10C17.9999 10.55 17.5499 11 16.9999 11H13.0799L20.0699 17.99C21.1399 17.95 21.9999 17.08 21.9999 16V4C21.9999 2.9 21.0999 2 19.9999 2ZM16.9999 8H10.9999C10.4499 8 9.99994 7.55 9.99994 7C9.99994 6.45 10.4499 6 10.9999 6H16.9999C17.5499 6 17.9999 6.45 17.9999 7C17.9999 7.55 17.5499 8 16.9999 8Z" fill="black"/>
</svg>
