<svg width="24" height="24" viewBox="0 0 24 24" fill="none" xmlns="http://www.w3.org/2000/svg">
<path fill-rule="evenodd" clip-rule="evenodd" d="M22 5.5C22 7.433 20.433 9 18.5 9C16.567 9 15 7.433 15 5.5C15 3.567 16.567 2 18.5 2C20.433 2 22 3.567 22 5.5ZM15.0498 12.8101L6.55984 4.32009C6.16984 3.93009 5.53984 3.93009 5.14984 4.32009L2.31984 7.15009C1.92984 7.54009 1.92984 8.17009 2.31984 8.56009L10.8098 17.0501C11.1998 17.4401 11.8298 17.4401 12.2198 17.0501L15.0498 14.2201C15.4398 13.8301 15.4398 13.2001 15.0498 12.8101ZM14.3398 17.7601L17.8698 21.2901C18.2598 21.6801 18.8998 21.6801 19.2898 21.2901C19.6798 20.9001 19.6798 20.2601 19.2898 19.8701L15.7598 16.3401L14.3398 17.7601Z" fill="black"/>
</svg>
