<svg width="24" height="24" viewBox="0 0 24 24" fill="none" xmlns="http://www.w3.org/2000/svg">
<path fill-rule="evenodd" clip-rule="evenodd" d="M12 16C15.87 16 19 12.87 19 9C19 5.13 15.87 2 12 2C8.13 2 5 5.13 5 9C5 12.87 8.13 16 12 16ZM12 4C14.76 4 17 6.24 17 9C17 11.76 14.76 14 12 14C9.24 14 7 11.76 7 9C7 6.24 9.24 4 12 4ZM10 9C10.5523 9 11 8.55228 11 8C11 7.44772 10.5523 7 10 7C9.44772 7 9 7.44772 9 8C9 8.55228 9.44772 9 10 9ZM15 8C15 8.55228 14.5523 9 14 9C13.4477 9 13 8.55228 13 8C13 7.44772 13.4477 7 14 7C14.5523 7 15 7.44772 15 8ZM12 7C12.5523 7 13 6.55228 13 6C13 5.44772 12.5523 5 12 5C11.4477 5 11 5.44772 11 6C11 6.55228 11.4477 7 12 7ZM7 18C7 17.45 7.45 17 8 17H16C16.55 17 17 17.45 17 18C17 18.55 16.55 19 16 19H15C13.9 19 13 19.9 13 21V22H11V21C11 19.9 10.1 19 9 19H8C7.45 19 7 18.55 7 18Z" fill="black"/>
</svg>
