<svg width="24" height="24" viewBox="0 0 24 24" fill="none" xmlns="http://www.w3.org/2000/svg">
<path d="M20.4898 3.51004C19.9298 2.95004 18.3398 2.54004 16.3298 2.54004C13.2498 2.54004 9.17976 3.50004 6.34976 6.33004C1.65976 11.03 2.09976 19.07 3.50976 20.49C4.06976 21.05 5.65976 21.46 7.66976 21.46C10.7498 21.46 14.8198 20.5 17.6498 17.67C22.3398 12.97 21.8998 4.93004 20.4898 3.51004ZM7.75976 7.76004C10.3998 5.12004 14.1098 4.64004 15.7898 4.57004C13.7398 5.51004 11.3298 7.02004 9.17976 9.18004C7.01976 11.34 5.50976 13.76 4.56976 15.81C4.65976 13.33 5.43976 10.07 7.75976 7.76004ZM16.2398 16.24C13.5998 18.88 9.88976 19.36 8.20976 19.43C10.2598 18.49 12.6698 16.98 14.8198 14.82C16.9798 12.66 18.4898 10.24 19.4398 8.19004C19.3398 10.67 18.5598 13.93 16.2398 16.24Z" fill="black"/>
</svg>
