<svg width="24" height="24" viewBox="0 0 24 24" fill="none" xmlns="http://www.w3.org/2000/svg">
<path fill-rule="evenodd" clip-rule="evenodd" d="M15.07 11C15.39 8.41005 16.95 6.21005 19.13 5.00005C17.53 3.37005 15.39 2.29005 13 2.05005V11H15.07ZM3.5898 6.6001C5.3198 7.4301 6.5798 9.0501 6.9098 11.0001H2.0498C2.2098 9.3901 2.7598 7.8901 3.5898 6.6001ZM21.9498 11.0001H17.0898C17.4198 9.0501 18.6798 7.4301 20.4098 6.6001C21.2398 7.8901 21.7898 9.3901 21.9498 11.0001ZM10.9996 11H8.92963C8.60963 8.41005 7.04963 6.21005 4.86963 5.00005C6.45963 3.37005 8.60963 2.29005 10.9996 2.05005V11ZM15.07 13H13V21.95C15.39 21.71 17.54 20.63 19.13 19C16.95 17.79 15.39 15.59 15.07 13ZM6.9098 13C6.5798 14.94 5.3098 16.57 3.5898 17.4C2.7598 16.11 2.2098 14.61 2.0498 13H6.9098ZM17.0898 13C17.4198 14.95 18.6798 16.57 20.4098 17.4C21.2398 16.11 21.7898 14.61 21.9498 13H17.0898ZM4.86963 19C7.04963 17.79 8.60963 15.59 8.92963 13H10.9996V21.95C8.60963 21.71 6.46963 20.63 4.86963 19Z" fill="black"/>
</svg>
