<svg width="24" height="24" viewBox="0 0 24 24" fill="none" xmlns="http://www.w3.org/2000/svg">
<path fill-rule="evenodd" clip-rule="evenodd" d="M17 8C17 7.45 17.45 7 18 7C18.55 7 19 7.45 19 8V10.8C19 10.93 18.99 11.06 18.96 11.19L18.16 15.19C18.07 15.63 17.63 15.99 17.18 15.99H6.82C6.34 15.99 5.93 15.66 5.84 15.19L5.04 11.19C5.01 11.06 5 10.93 5 10.8V5C5 3.9 5.9 3 7 3H15C16.1 3 17 3.9 17 5V8ZM8 10H14C14.55 10 15 9.55 15 9V8C15 7.45 14.55 7 14 7H8C7.45 7 7 7.45 7 8V9C7 9.55 7.45 10 8 10ZM8 21C7.45 21 7 20.55 7 20V17H17V20C17 20.55 16.55 21 16 21H8Z" fill="black"/>
</svg>
