<svg width="24" height="24" viewBox="0 0 24 24" fill="none" xmlns="http://www.w3.org/2000/svg">
<path fill-rule="evenodd" clip-rule="evenodd" d="M14.8001 3.2499C14.3801 3.9699 13.4701 4.2099 12.7501 3.7999C12.0301 3.3899 11.7901 2.4699 12.2001 1.7499C12.6201 1.0299 13.5301 0.789899 14.2501 1.1999C14.9701 1.6199 15.2101 2.5299 14.8001 3.2499ZM15.8402 10.4098C15.8402 10.4098 14.2102 9.46983 13.2402 8.90983C11.1102 7.66983 10.2302 5.07983 11.0602 2.83983C11.2302 2.37983 11.0502 1.86983 10.6302 1.62983C10.1002 1.32983 9.41022 1.55983 9.20022 2.12983C8.25022 4.63983 8.85022 7.47983 10.6602 9.39983L6.01022 17.4498C5.73022 17.9298 5.90022 18.5398 6.38022 18.8198C6.86022 19.0998 7.47022 18.9298 7.75022 18.4498L8.75022 16.7198L10.4802 17.7198L7.98022 22.0498C7.70022 22.5298 7.87022 23.1398 8.35022 23.4198C8.83022 23.6998 9.44022 23.5298 9.72022 23.0498L15.5102 13.0298C16.4902 14.3698 16.7702 16.1498 16.1702 17.7498C16.0002 18.1998 16.1902 18.7098 16.6002 18.9498C17.1302 19.2598 17.8202 19.0298 18.0402 18.4498C19.0102 15.8298 18.4502 12.6098 15.8402 10.4098ZM14.2703 6.00002C13.7203 6.95002 14.0503 8.18002 15.0003 8.73001C15.9503 9.28001 17.1803 8.95002 17.7303 8.00002C18.2803 7.05002 17.9503 5.82002 17.0003 5.27002C16.0503 4.72002 14.8203 5.05002 14.2703 6.00002Z" fill="black"/>
</svg>
