<svg width="24" height="24" viewBox="0 0 24 24" fill="none" xmlns="http://www.w3.org/2000/svg">
<path fill-rule="evenodd" clip-rule="evenodd" d="M20.3101 3.68992C20.6601 4.03992 21.0601 5.95992 20.9801 8.37992L15.6201 3.01992C18.0301 2.92992 19.9601 3.33992 20.3101 3.68992ZM13.0803 3.28003C10.7503 3.70003 8.29027 4.62003 6.46027 6.46003C4.63027 8.30003 3.70027 10.75 3.28027 13.08L10.9103 20.71C13.2503 20.3 15.7003 19.37 17.5303 17.53C19.3603 15.69 20.2903 13.24 20.7103 10.91L13.0803 3.28003ZM14.8003 10.6L10.6003 14.8C10.2103 15.19 9.59027 15.19 9.20027 14.8C8.81027 14.41 8.81027 13.79 9.20027 13.4L13.4003 9.20003C13.7903 8.81003 14.4103 8.81003 14.8003 9.20003C15.1903 9.59003 15.1903 10.21 14.8003 10.6ZM3.0201 15.6199C2.9401 18.0399 3.3401 19.9599 3.6901 20.3099C4.0401 20.6599 5.9701 21.0699 8.3801 20.9799L3.0201 15.6199Z" fill="black"/>
</svg>
