<svg width="24" height="24" viewBox="0 0 24 24" fill="none" xmlns="http://www.w3.org/2000/svg">
<path fill-rule="evenodd" clip-rule="evenodd" d="M18.5 2.37988C18.5 3.48445 17.6046 4.37988 16.5 4.37988C15.3954 4.37988 14.5 3.48445 14.5 2.37988C14.5 1.27531 15.3954 0.379883 16.5 0.379883C17.6046 0.379883 18.5 1.27531 18.5 2.37988ZM23.9996 7.17987V10.8799C23.9996 11.4299 23.5496 11.8799 22.9996 11.8799C22.4496 11.8799 21.9996 11.4299 21.9996 10.8799V8.47987L20.1996 7.77987L20.8196 10.8799L22.7596 20.6399C22.8896 21.2799 22.3996 21.8799 21.7396 21.8799C21.2496 21.8799 20.8296 21.5399 20.7196 21.0699L19.0996 13.8799L16.9996 15.8799V20.8799C16.9996 21.4299 16.5496 21.8799 15.9996 21.8799C15.4496 21.8799 14.9996 21.4299 14.9996 20.8799V15.1399V14.3799L15.9396 13.4899L17.0996 12.3899L16.4996 9.38987C15.9296 10.0499 15.2096 10.6099 14.4096 11.0299C13.4696 10.9299 12.6396 10.5499 11.9496 9.85987L11.8896 9.79987C13.3896 9.53987 14.6296 8.65987 15.2996 7.47987L16.2996 5.87987C16.8896 4.99987 18.0296 4.65987 19.0096 5.06987L23.9996 7.17987ZM10.29 8.08991C10.51 8.23991 10.76 8.32991 11.01 8.37991L11.0359 8.38392C11.1561 8.4025 11.2687 8.41991 11.39 8.41991C11.52 8.41991 11.65 8.40991 11.77 8.37991C11.9 8.35991 12.02 8.31991 12.14 8.26991C12.38 8.16991 12.61 8.02991 12.8 7.82991C13.29 7.33991 13.47 6.65991 13.35 6.02991C13.28 5.65991 13.1 5.28991 12.8 4.99991C12.61 4.80991 12.38 4.65991 12.14 4.55991C12.02 4.50991 11.9 4.46991 11.77 4.44991L11.744 4.4459C11.6238 4.42732 11.5113 4.40991 11.39 4.40991C11.27 4.40991 11.16 4.41991 11.04 4.43991C10.9 4.45991 10.76 4.49991 10.63 4.54991C10.4 4.65991 10.17 4.80991 9.97996 4.99991C9.67996 5.28991 9.49996 5.65991 9.42996 6.02991C9.30996 6.65991 9.48996 7.33991 9.97996 7.82991C10.07 7.92991 10.18 8.00991 10.29 8.08991ZM9.23979 8.55998L11.2398 10.56C11.9698 11.29 12.8998 11.83 14.0298 12.01C14.4998 12.08 14.8698 12.47 14.8998 12.95C14.9498 13.6 14.3798 14.16 13.7398 14.05C12.2298 13.8 10.9698 13.11 9.94979 12.11L9.23979 11.4L6.87979 13.76L8.99979 15.88V20.88C8.99979 21.43 8.54978 21.88 7.99978 21.88C7.44978 21.88 6.99978 21.43 6.99978 20.88V16.75L5.70978 15.52V17.74L2.16979 21.28C1.77979 21.67 1.14979 21.67 0.759785 21.28C0.369785 20.89 0.369785 20.26 0.759785 19.87L3.67979 16.95L2.60979 14C2.53979 13.82 2.49979 13.63 2.49979 13.45C2.45979 12.89 2.66979 12.32 3.07979 11.91L6.41979 8.56998C6.80978 8.17998 7.31979 7.97998 7.82978 7.97998C7.95978 7.97998 8.07978 7.98998 8.20978 8.01998C8.45978 8.05998 8.70979 8.15998 8.92979 8.29998C9.03979 8.37998 9.13978 8.45998 9.23979 8.55998Z" fill="black"/>
</svg>
