<svg width="24" height="24" viewBox="0 0 24 24" fill="none" xmlns="http://www.w3.org/2000/svg">
<path d="M19 8.99999H17.44C17.77 8.44999 17.97 7.81999 17.99 7.13999C18.03 6.10999 17.56 5.14999 16.83 4.42999C15.29 2.88999 14.09 2.86999 13.01 3.13999C12.2 2.44999 11.16 2.01999 10 2.01999C8.11 2.01999 6.49 3.12999 5.73 4.72999C4.15 5.25999 3 6.73999 3 8.49999C3 10.36 4.28 11.91 6 12.36V19C6 20.1 6.9 21 8 21H15C16.1 21 17 20.1 17 19H19C20.1 19 21 18.1 21 17V11C21 9.89999 20.1 8.99999 19 8.99999ZM7 10.5C5.9 10.5 5 9.59999 5 8.49999C5 7.64999 5.55 6.89999 6.37 6.61999L7.17 6.34999L7.53 5.58999C8 4.61999 8.94 4.01999 10 4.01999C10.79 4.01999 11.39 4.36999 11.74 4.66999L12.52 5.31999C12.52 5.31999 13.16 4.99999 13.99 4.99999C15.09 4.99999 15.99 5.89999 15.99 6.99999H12.99C9.67 6.99999 9.15 10.5 7 10.5ZM19 17H17V11H19V17Z" fill="black"/>
</svg>
