<svg width="24" height="24" viewBox="0 0 24 24" fill="none" xmlns="http://www.w3.org/2000/svg">
<path fill-rule="evenodd" clip-rule="evenodd" d="M12.56 14.33C14.07 13.2 15.97 12.5 18 12.5C19.05 12.5 20.06 12.69 21 13.02V19C21 20.1 20.1 21 19 21H12V15.5C12 15.03 12.22 14.6 12.56 14.33ZM18 11C15.2386 11 13 8.76142 13 6C13 3.23858 15.2386 1 18 1C20.7614 1 23 3.23858 23 6C23 8.76142 20.7614 11 18 11ZM11.5 6C11.5 7.8 12.23 9.42 13.41 10.59L3.59 20.41C3.23 20.05 3 19.55 3 19V5C3 3.9 3.9 3 5 3H12.24C11.77 3.9 11.5 4.92 11.5 6Z" fill="black"/>
</svg>
