<svg width="24" height="24" viewBox="0 0 24 24" fill="none" xmlns="http://www.w3.org/2000/svg">
<path d="M7.71951 10.73L4.49951 5.72C4.01951 4.97 4.54951 4 5.42951 4C5.81951 4 6.16951 4.2 6.37951 4.53L9.13951 8.99H9.25951L11.9995 4.54C12.2095 4.2 12.5695 4 12.9595 4C13.8395 4 14.3795 4.98 13.8995 5.72L10.6695 10.72L14.2195 16.27C14.6995 17.02 14.1595 18 13.2795 18C12.8995 18 12.5395 17.8 12.3295 17.48L9.25951 12.59H9.13951L6.06951 17.48C5.86951 17.8 5.50951 18 5.11951 18C4.23951 18 3.69951 17.03 4.17951 16.28L7.71951 10.73ZM20.1995 19.5C20.1995 19.22 19.9795 19 19.6995 19H17.1995V18H19.1995C19.7495 18 20.1995 17.55 20.1995 17V16C20.1995 15.45 19.7495 15 19.1995 15H16.6995C16.4195 15 16.1995 15.22 16.1995 15.5C16.1995 15.78 16.4195 16 16.6995 16H19.1995V17H17.1995C16.6495 17 16.1995 17.45 16.1995 18V19C16.1995 19.55 16.6495 20 17.1995 20H19.6995C19.9795 20 20.1995 19.78 20.1995 19.5Z" fill="black"/>
</svg>
