<svg width="24" height="24" viewBox="0 0 24 24" fill="none" xmlns="http://www.w3.org/2000/svg">
<path d="M7.70951 12.73L4.49951 7.72C4.01951 6.97 4.54951 6 5.42951 6C5.81951 6 6.16951 6.2 6.37951 6.53L9.13951 10.99H9.25951L11.9995 6.54C12.1995 6.2 12.5595 6 12.9495 6C13.8295 6 14.3695 6.98 13.8895 7.72L10.6595 12.72L14.2095 18.27C14.6995 19.02 14.1595 20 13.2795 20C12.8995 20 12.5395 19.8 12.3295 19.48L9.25951 14.59H9.13951L6.06951 19.48C5.85951 19.8 5.50951 20 5.11951 20C4.23951 20 3.69951 19.03 4.17951 18.28L7.70951 12.73ZM20.1995 8.5C20.1995 8.22 19.9795 8 19.6995 8H17.1995V7H19.1995C19.7495 7 20.1995 6.55 20.1995 6V5C20.1995 4.45 19.7495 4 19.1995 4H16.6995C16.4195 4 16.1995 4.22 16.1995 4.5C16.1995 4.78 16.4195 5 16.6995 5H19.1995V6H17.1995C16.6495 6 16.1995 6.45 16.1995 7V8C16.1995 8.55 16.6495 9 17.1995 9H19.6995C19.9795 9 20.1995 8.78 20.1995 8.5Z" fill="black"/>
</svg>
