<svg width="24" height="24" viewBox="0 0 24 24" fill="none" xmlns="http://www.w3.org/2000/svg">
<path d="M15 20.5V17.96C15 17.51 14.46 17.29 14.15 17.61L13.59 18.17L5.10002 9.68C4.71002 9.29 4.08002 9.29 3.69002 9.68C3.30002 10.07 3.30002 10.7 3.69002 11.09L12.18 19.58L11.62 20.14C11.3 20.46 11.52 21 11.96 21H14.5C14.78 21 15 20.77 15 20.5V20.5ZM11.25 8.48L14.79 12.02L14.12 13.62C13.97 13.98 14.05 14.39 14.33 14.67C14.82 15.16 15.64 14.99 15.9 14.35L19.51 5.26C19.68 4.84 19.58 4.35 19.26 4.03C18.94 3.71 18.46 3.61 18.03 3.78L8.93002 7.38C8.29002 7.63 8.12002 8.46 8.61002 8.95C8.88002 9.22 9.29002 9.3 9.65002 9.15L11.25 8.48V8.48ZM17.84 5.43L15.61 10.3L12.97 7.66L17.84 5.43V5.43Z" fill="black"/>
</svg>
