<svg width="24" height="24" viewBox="0 0 24 24" fill="none" xmlns="http://www.w3.org/2000/svg">
<path d="M17.61 9.85001L18.17 10.41L9.69003 18.9C9.30003 19.29 9.30003 19.92 9.69003 20.31C10.08 20.7 10.71 20.7 11.1 20.31L19.59 11.82L20.15 12.38C20.46 12.7 21 12.48 21 12.04V9.50001C21 9.22001 20.78 9.00001 20.5 9.00001H17.96C17.52 9.00001 17.3 9.54001 17.61 9.85001V9.85001ZM8.48003 12.75L12.02 9.21001L13.62 9.88001C13.98 10.03 14.39 9.95001 14.67 9.67001C15.16 9.18001 14.99 8.36001 14.35 8.10001L5.26003 4.50001C4.83003 4.34001 4.35003 4.44001 4.03003 4.76001C3.71003 5.08001 3.61003 5.56001 3.78003 5.99001L7.39003 15.08C7.64003 15.72 8.47003 15.89 8.96003 15.4C9.24003 15.12 9.32003 14.71 9.17003 14.35L8.48003 12.75V12.75ZM7.66003 11.03L5.43003 6.16001L10.3 8.39001L7.66003 11.03V11.03Z" fill="black"/>
</svg>
