<svg width="24" height="24" viewBox="0 0 24 24" fill="none" xmlns="http://www.w3.org/2000/svg">
<path fill-rule="evenodd" clip-rule="evenodd" d="M14 1H9.99998C9.44998 1 8.99998 1.45 8.99998 2C8.99998 2.55 9.44998 3 9.99998 3H14C14.55 3 15 2.55 15 2C15 1.45 14.55 1 14 1ZM12 14C12.55 14 13 13.55 13 13V9C13 8.45 12.55 8 12 8C11.45 8 11 8.45 11 9V13C11 13.55 11.45 14 12 14ZM19.03 7.39L19.78 6.64C20.16 6.26 20.17 5.63 19.78 5.24L19.77 5.23C19.38 4.84 18.76 4.85 18.37 5.23L17.62 5.98C16.07 4.74 14.12 4 12 4C7.19998 4 3.11998 7.96 2.99998 12.76C2.86998 17.84 6.93998 22 12 22C16.98 22 21 17.97 21 13C21 10.88 20.26 8.93 19.03 7.39ZM12 20C8.12998 20 4.99998 16.87 4.99998 13C4.99998 9.13 8.12998 6 12 6C15.87 6 19 9.13 19 13C19 16.87 15.87 20 12 20Z" fill="black"/>
</svg>
