<svg width="24" height="24" viewBox="0 0 24 24" fill="none" xmlns="http://www.w3.org/2000/svg">
<path fill-rule="evenodd" clip-rule="evenodd" d="M19.96 10.59C20 10.28 19.77 10 19.46 10H17V8.86C18.54 8.46 19.72 7.18 19.96 5.59C20 5.28 19.77 5 19.46 5H17V4C17 3.45 16.55 3 16 3H8.00005C7.45005 3 7.00005 3.45 7.00005 4V5H4.54005C4.23005 5 4.00005 5.28 4.04005 5.59C4.28005 7.18 5.46005 8.46 7.00005 8.86V10H4.54005C4.23005 10 4.00005 10.28 4.04005 10.59C4.28005 12.18 5.46005 13.46 7.00005 13.86V15H4.54005C4.23005 15 4.00005 15.28 4.04005 15.59C4.28005 17.18 5.46005 18.46 7.00005 18.86V20C7.00005 20.55 7.45005 21 8.00005 21H16C16.55 21 17 20.55 17 20V18.86C18.54 18.46 19.72 17.18 19.96 15.59C20 15.28 19.77 15 19.46 15H17V13.86C18.54 13.46 19.72 12.18 19.96 10.59ZM12 19C10.89 19 10 18.1 10 17C10 15.9 10.89 15 12 15C13.1 15 14 15.9 14 17C14 18.1 13.11 19 12 19ZM12 14C10.89 14 10 13.1 10 12C10 10.9 10.89 10 12 10C13.1 10 14 10.9 14 12C14 13.1 13.11 14 12 14ZM12 9C10.89 9 10 8.1 10 7C10 5.89 10.89 5 12 5C13.1 5 14 5.89 14 7C14 8.1 13.11 9 12 9Z" fill="black"/>
</svg>
