<svg width="24" height="24" viewBox="0 0 24 24" fill="none" xmlns="http://www.w3.org/2000/svg">
<path fill-rule="evenodd" clip-rule="evenodd" d="M21.12 1.45996L22.54 2.87996L20.41 4.99996L22.54 7.11996L21.12 8.53996L19 6.40996L16.88 8.53996L15.46 7.11996L17.59 4.99996L15.46 2.87996L16.88 1.45996L19 3.58996L21.12 1.45996ZM14 3.26V10H19.91C19.96 10.39 20 10.79 20 11.2C20 14.38 17.55 18.12 12.67 22.43C12.29 22.76 11.72 22.76 11.34 22.43C6.45 18.12 4 14.38 4 11.2C4 6.22 7.8 3 12 3C12.68 3 13.35 3.09 14 3.26ZM10 11C10 12.1 10.9 13 12 13C13.1 13 14 12.1 14 11C14 9.9 13.1 9 12 9C10.9 9 10 9.9 10 11Z" fill="black"/>
</svg>
