<svg width="24" height="24" viewBox="0 0 24 24" fill="none" xmlns="http://www.w3.org/2000/svg">
<path fill-rule="evenodd" clip-rule="evenodd" d="M7.00001 7.56002C7.00001 6.62002 5.86001 6.14002 5.19001 6.81002L0.710011 11.29C0.320011 11.68 0.320011 12.31 0.710011 12.7L5.19001 17.18C5.86001 17.86 7.00001 17.38 7.00001 16.44C7.00001 16.16 6.89001 15.89 6.69001 15.69L3.00001 12L6.69001 8.31002C6.89001 8.11002 7.00001 7.84002 7.00001 7.56002ZM13 9.00002V7.41002C13 6.52002 11.92 6.07002 11.29 6.70002L6.70001 11.29C6.31001 11.68 6.31001 12.31 6.70001 12.7L11.29 17.29C11.92 17.92 13 17.47 13 16.58V14.9C18 14.9 21.5 16.5 24 20C23 15 20 10 13 9.00002Z" fill="#969696"/>
</svg>
