<svg width="24" height="24" viewBox="0 0 24 24" fill="none" xmlns="http://www.w3.org/2000/svg">
<path fill-rule="evenodd" clip-rule="evenodd" d="M12 7.00002C12.55 7.00002 13 7.45002 13 8.00002V9.33002L20.2 16.53L20.71 16.02C20.9 15.83 21 15.58 21 15.31V8.68002C21 8.41002 20.89 8.16002 20.71 7.97002L16.03 3.29002C15.84 3.11002 15.58 3.00002 15.32 3.00002H8.68C8.42 3.00002 8.16 3.11002 7.98 3.29002L7.47 3.80002L11.16 7.49002C11.33 7.20002 11.64 7.00002 12 7.00002ZM2.41 1.58002L1 2.99002L4.64 6.63002L3.29 7.98002C3.11 8.16002 3 8.42002 3 8.68002V15.31C3 15.58 3.11 15.83 3.29 16.02L7.97 20.7C8.16 20.89 8.42 21 8.68 21H15.31C15.58 21 15.83 20.89 16.02 20.71L17.37 19.36L21.01 23L22.42 21.59L2.41 1.58002ZM12 17.3C11.28 17.3 10.7 16.72 10.7 16C10.7 15.28 11.28 14.7 12 14.7C12.72 14.7 13.3 15.28 13.3 16C13.3 16.72 12.72 17.3 12 17.3Z" fill="#969696"/>
</svg>
