<svg width="24" height="24" viewBox="0 0 24 24" fill="none" xmlns="http://www.w3.org/2000/svg">
<path fill-rule="evenodd" clip-rule="evenodd" d="M8.9 6C8.9 4.29 10.29 2.9 12 2.9C13.71 2.9 15.1 4.29 15.1 6V8H10.44L20 17.56V10C20 8.9 19.1 8 18 8H17V6C17 3.24 14.76 1 12 1C9.68 1 7.74 2.59 7.18 4.74L8.9 6.46V6ZM5.12 5.51C4.73 5.12 4.1 5.12 3.71 5.51C3.32 5.9 3.32 6.53 3.71 6.92L5.04 8.25C4.42 8.6 4 9.25 4 10V20C4 21.1 4.9 22 6 22H18.78L19.07 22.29C19.46 22.68 20.09 22.68 20.48 22.29C20.87 21.9 20.87 21.27 20.48 20.88L5.12 5.51Z" fill="white"/>
</svg>
