<svg width="24" height="24" viewBox="0 0 24 24" fill="none" xmlns="http://www.w3.org/2000/svg">
<path fill-rule="evenodd" clip-rule="evenodd" d="M12 17C11.4477 17 11 16.5523 11 16C11 15.4477 11.4477 15 12 15C12.5523 15 13 15.4477 13 16C13 16.5523 12.5523 17 12 17ZM7 12C6.44772 12 6 11.5523 6 11C6 10.4477 6.44772 10 7 10C7.55228 10 8 10.4477 8 11C8 11.5523 7.55228 12 7 12ZM17 12C16.4477 12 16 11.5523 16 11C16 10.4477 16.4477 10 17 10C17.5523 10 18 10.4477 18 11C18 11.5523 17.5523 12 17 12ZM12 2C17.07 2 21.16 6.19 20.99 11.29C20.84 15.99 16.91 19.89 12.21 20C7.14 20.12 3 16.04 3 11C3 8.4 4.1 6.07 5.86 4.44C6.26 4.07 6.88 4.08 7.26 4.46L12.7 9.89C13.09 10.28 13.09 10.91 12.7 11.3C12.31 11.69 11.68 11.69 11.29 11.3L6.58 6.58C5.59 7.78 5 9.32 5 11C5 14.91 8.19 18.06 12.12 18C15.97 17.94 19.14 14.59 19 10.74C18.87 7.33 16.31 4.56 13 4.08V5C13 5.55 12.55 6 12 6C11.45 6 11 5.55 11 5V3C11 2.45 11.45 2 12 2Z" fill="white"/>
</svg>
