<svg width="24" height="24" viewBox="0 0 24 24" fill="none" xmlns="http://www.w3.org/2000/svg">
<path d="M7.0225 3.7725H19.1925C20.2925 3.7725 21.1925 4.6725 21.1925 5.7725V17.7725C21.1925 17.8225 21.1825 17.8725 21.1725 17.9325L17.7925 14.5525C18.0325 14.3625 18.1925 14.0925 18.1925 13.7725V13.2725C18.1925 12.9925 17.9725 12.7725 17.6925 12.7725H17.1925C16.9125 12.7725 16.6925 12.9925 16.6925 13.2725H16.5225L14.6925 11.4425V10.2725H16.6925C16.6925 10.5525 16.9125 10.7725 17.1925 10.7725H17.6925C17.9725 10.7725 18.1925 10.5525 18.1925 10.2725V9.7725C18.1925 9.2225 17.7425 8.7725 17.1925 8.7725H14.1925C13.6425 8.7725 13.1925 9.2225 13.1925 9.7725V9.9425L7.0225 3.7725ZM20.6825 21.6725C20.2925 22.0625 19.6625 22.0625 19.2725 21.6725L17.3725 19.7725H5.1925C4.0825 19.7725 3.1925 18.8725 3.1925 17.7725V5.7725C3.1925 5.7225 3.2125 5.6725 3.2125 5.6225L2.2925 4.7025C1.9025 4.3125 1.9025 3.6825 2.2925 3.2925C2.6825 2.9025 3.3125 2.9025 3.7025 3.2925L20.6725 20.2625C21.0725 20.6525 21.0725 21.2825 20.6825 21.6725ZM11.1925 13.6025L10.3625 12.7725H10.1925C9.9125 12.7725 9.6925 12.9925 9.6925 13.2725H7.6925V10.2725H7.8625L6.5925 8.9925C6.3525 9.1825 6.1925 9.4525 6.1925 9.7725V13.7725C6.1925 14.3225 6.6425 14.7725 7.1925 14.7725H10.1925C10.7425 14.7725 11.1925 14.3225 11.1925 13.7725V13.6025Z" fill="white"/>
</svg>
