<svg width="24" height="24" viewBox="0 0 24 24" fill="none" xmlns="http://www.w3.org/2000/svg">
<path fill-rule="evenodd" clip-rule="evenodd" d="M12 4.29153V2.50153C12 2.05153 11.46 1.83153 11.15 2.15153L8.35 4.94153C8.15 5.14153 8.15 5.45153 8.35 5.65153L11.14 8.44153C11.46 8.75153 12 8.53153 12 8.08153V6.29153C15.31 6.29153 18 8.98153 18 12.2915C18 13.0815 17.85 13.8515 17.56 14.5415C17.41 14.9015 17.52 15.3115 17.79 15.5815C18.3 16.0915 19.16 15.9115 19.43 15.2415C19.8 14.3315 20 13.3315 20 12.2915C20 7.87153 16.42 4.29153 12 4.29153ZM12 18.2915C8.69 18.2915 6 15.6015 6 12.2915C6 11.5015 6.15 10.7315 6.44 10.0415C6.59 9.68153 6.48 9.27153 6.21 9.00153C5.7 8.49153 4.84 8.67153 4.57 9.34153C4.2 10.2515 4 11.2515 4 12.2915C4 16.7115 7.58 20.2915 12 20.2915V22.0815C12 22.5315 12.54 22.7515 12.85 22.4315L15.64 19.6415C15.84 19.4415 15.84 19.1315 15.64 18.9315L12.85 16.1415C12.54 15.8315 12 16.0515 12 16.5015V18.2915Z" fill="white"/>
</svg>
