<svg width="24" height="24" viewBox="0 0 24 24" fill="none" xmlns="http://www.w3.org/2000/svg">
<path fill-rule="evenodd" clip-rule="evenodd" d="M7.00002 7H17V8.79C17 9.24 17.54 9.46 17.85 9.14L20.64 6.35C20.84 6.15 20.84 5.84 20.64 5.64L17.85 2.85C17.54 2.54 17 2.76 17 3.21V5H6.00002C5.45002 5 5.00002 5.45 5.00002 6V10C5.00002 10.55 5.45002 11 6.00002 11C6.55002 11 7.00002 10.55 7.00002 10V7ZM17 17H7.00002V15.21C7.00002 14.76 6.46002 14.54 6.15002 14.86L3.36002 17.65C3.16002 17.85 3.16002 18.16 3.36002 18.36L6.15002 21.15C6.46002 21.46 7.00002 21.24 7.00002 20.79V19H18C18.55 19 19 18.55 19 18V14C19 13.45 18.55 13 18 13C17.45 13 17 13.45 17 14V17ZM13 14.25V9.81C13 9.36 12.64 9 12.19 9C12.06 9 11.94 9.03 11.83 9.09L10.34 9.83C10.13 9.93 10 10.15 10 10.38C10 10.72 10.28 11 10.62 11H11.5V14.25C11.5 14.66 11.84 15 12.25 15C12.66 15 13 14.66 13 14.25Z" fill="white"/>
</svg>
