<svg width="24" height="24" viewBox="0 0 24 24" fill="none" xmlns="http://www.w3.org/2000/svg">
<path fill-rule="evenodd" clip-rule="evenodd" d="M21 4V10H17C15.34 10 14 11.34 14 13V18H3C1.9 18 1 17.1 1 16L1.01 4C1.01 2.9 1.9 2 3 2H19C20.1 2 21 2.9 21 4ZM10.47 10.67C10.79 10.87 11.21 10.87 11.53 10.67L18.6 6.25C18.85 6.09 19 5.82 19 5.53C19 4.86 18.27 4.46 17.7 4.81L11 9L4.3 4.81C3.73 4.46 3 4.86 3 5.53C3 5.82 3.15 6.09 3.4 6.25L10.47 10.67ZM21 15C21 14.45 21.45 14 22 14C22.55 14 23 14.45 23 15V18C23 20.21 21.21 22 19 22C16.79 22 15 20.21 15 18V13.5C15 12.12 16.12 11 17.5 11C18.88 11 20 12.12 20 13.5V17C20 17.55 19.55 18 19 18C18.45 18 18 17.55 18 17V13.5C18 13.22 17.78 13 17.5 13C17.22 13 17 13.22 17 13.5V18C17 19.1 17.9 20 19 20C20.1 20 21 19.1 21 18V15Z" fill="white"/>
</svg>
