<svg width="24" height="24" viewBox="0 0 24 24" fill="none" xmlns="http://www.w3.org/2000/svg">
<path d="M6 17.435H18C18.55 17.435 19 17.885 19 18.435C19 18.985 18.55 19.435 18 19.435H6C5.45 19.435 5 18.985 5 18.435C5 17.885 5.45 17.435 6 17.435ZM11.01 13.335C10.23 14.105 8.97 14.105 8.19 13.325L6 11.135C5.45 10.585 5.46 9.695 6.03 9.165C6.57 8.645 7.43 8.665 7.95 9.185L9.6 10.835L16.03 4.405C16.57 3.865 17.44 3.865 17.98 4.405L18.02 4.445C18.56 4.985 18.56 5.865 18.01 6.405L11.01 13.335Z" fill="white"/>
</svg>
