<svg width="24" height="24" viewBox="0 0 24 24" fill="none" xmlns="http://www.w3.org/2000/svg">
<path fill-rule="evenodd" clip-rule="evenodd" d="M12.7102 2.29006L21.7102 11.2901C22.0902 11.6901 22.0902 12.3201 21.7102 12.7001L18.6202 15.7901L15.1702 12.3401L16.1502 11.3601C16.3502 11.1601 16.3502 10.8501 16.1502 10.6501L13.0002 7.50006V10.1701L8.21021 5.38006L11.3002 2.29006C11.6902 1.90006 12.3202 1.90006 12.7102 2.29006ZM3.51012 3.51003L6.79012 6.79003L20.4801 20.48C20.8701 20.87 20.8701 21.5 20.4801 21.89C20.0901 22.28 19.4601 22.28 19.0701 21.89L15.7901 18.61L12.7001 21.7C12.3101 22.09 11.6801 22.09 11.2901 21.7L2.29012 12.7C1.90012 12.31 1.90012 11.68 2.29012 11.29L5.38012 8.20003L2.10012 4.92003C1.71012 4.53003 1.71012 3.90003 2.10012 3.51003C2.49012 3.12003 3.12012 3.12003 3.51012 3.51003ZM8.99012 15C9.54012 15 9.99012 14.55 9.99012 14V12.82L8.02012 10.85C8.01678 10.8667 8.01234 10.8834 8.00789 10.9C7.99901 10.9334 7.99012 10.9667 7.99012 11V14C7.99012 14.55 8.44012 15 8.99012 15Z" fill="#969696"/>
</svg>
