<svg width="24" height="24" viewBox="0 0 24 24" fill="none" xmlns="http://www.w3.org/2000/svg">
<path d="M17 11V13H16.12L20.45 17.33C21.43 15.79 22 13.96 22 12C22 6.48 17.52 2 12 2C10.04 2 8.21001 2.57 6.67001 3.55L14.12 11H17ZM21.17 20.88L3.12001 2.83C2.73001 2.44 2.10001 2.44 1.71001 2.83C1.32001 3.22 1.32001 3.85 1.71001 4.24L3.78001 6.31C2.66001 7.93 2.00001 9.89 2.00001 12C2.00001 17.52 6.48001 22 12 22C14.11 22 16.07 21.34 17.68 20.22L19.75 22.29C20.14 22.68 20.77 22.68 21.16 22.29C21.56 21.9 21.56 21.27 21.17 20.88ZM7.00001 13V11H8.46001L10.46 13H7.00001Z" fill="#969696"/>
</svg>
