<svg width="24" height="24" viewBox="0 0 24 24" fill="none" xmlns="http://www.w3.org/2000/svg">
<path fill-rule="evenodd" clip-rule="evenodd" d="M22 16V15.5C22 14.12 20.88 13 19.5 13C18.12 13 17 14.12 17 15.5V16C16.45 16 16 16.45 16 17V21C16 21.55 16.45 22 17 22H22C22.55 22 23 21.55 23 21V17C23 16.45 22.55 16 22 16ZM21 16H18V15.5C18 14.67 18.67 14 19.5 14C20.33 14 21 14.67 21 15.5V16ZM19.5 11C19.67 11 19.83 11.03 20 11.05V3.40999C20 2.51999 18.92 2.06999 18.29 2.69999L2.71 18.29C2.08 18.92 2.52 20 3.41 20H14V17C14 16.08 14.42 15.26 15.07 14.7C15.45 12.6 17.29 11 19.5 11Z" fill="#969696"/>
</svg>
