<svg width="24" height="24" viewBox="0 0 24 24" fill="none" xmlns="http://www.w3.org/2000/svg">
<path fill-rule="evenodd" clip-rule="evenodd" d="M15.9 5.00001C15.73 5.00001 15.58 5.09001 15.49 5.23001L15.42 5.38001L10.24 17.03C10.08 17.32 9.98 17.64 9.98 17.99C9.98 19.1 10.88 20 11.99 20C12.95 20 13.76 19.32 13.95 18.41L13.96 18.38L16.4 5.50001C16.4 5.22001 16.18 5.00001 15.9 5.00001ZM2.06 10.06C2.57 10.57 3.39 10.61 3.95 10.15C6.71 7.89001 10.19 6.97001 13.53 7.39001L14.72 4.71001C10.37 3.93001 5.76 5.01001 2.15 7.96001C1.51 8.49001 1.47 9.47001 2.06 10.06ZM21.94 10.06C22.53 9.47001 22.49 8.49001 21.84 7.96001C20.48 6.85001 18.98 6.01001 17.4 5.43001L16.87 8.25001C18 8.72001 19.06 9.34001 20.04 10.14C20.62 10.6 21.43 10.57 21.94 10.06ZM17.91 14.09C18.51 13.49 18.47 12.46 17.77 11.97C17.31 11.64 16.83 11.36 16.33 11.11L15.78 14.03C15.89 14.1 16 14.17 16.1 14.25C16.67 14.65 17.43 14.57 17.91 14.09ZM6.08 14.08C6.58 14.58 7.35 14.62 7.93 14.21C8.87 13.55 9.94 13.15 11.03 12.99L12.31 10.11C10.18 10.05 8.03 10.65 6.22 11.95C5.53 12.46 5.48 13.48 6.08 14.08Z" fill="#969696"/>
</svg>
