<svg width="24" height="24" viewBox="0 0 24 24" fill="none" xmlns="http://www.w3.org/2000/svg">
<path fill-rule="evenodd" clip-rule="evenodd" d="M2.06002 10.06C2.57002 10.57 3.38002 10.62 3.93002 10.16C8.60002 6.31999 15.38 6.31999 20.06 10.15C20.62 10.61 21.44 10.57 21.95 10.06C22.54 9.46999 22.5 8.48999 21.85 7.95999C16.14 3.28999 7.88002 3.28999 2.16002 7.95999C1.51002 8.47999 1.46002 9.45999 2.06002 10.06ZM9.82002 17.82L11.29 19.29C11.68 19.68 12.31 19.68 12.7 19.29L14.17 17.82C14.64 17.35 14.54 16.54 13.94 16.23C12.72 15.6 11.26 15.6 10.03 16.23C9.46002 16.54 9.35002 17.35 9.82002 17.82ZM6.09002 14.09C6.58002 14.58 7.35002 14.63 7.92002 14.22C10.36 12.49 13.64 12.49 16.08 14.22C16.65 14.62 17.42 14.58 17.91 14.09L17.92 14.08C18.52 13.48 18.48 12.46 17.79 11.97C14.35 9.47999 9.66002 9.47999 6.21002 11.97C5.52002 12.47 5.48002 13.48 6.09002 14.09Z" fill="#969696"/>
</svg>
