<svg width="24" height="24" viewBox="0 0 24 24" fill="none" xmlns="http://www.w3.org/2000/svg">
<path fill-rule="evenodd" clip-rule="evenodd" d="M14 9V4.5C14 4.22 13.78 4 13.5 4H8.5C8.22 4 8 4.22 8 4.5V8.5C8 8.78 7.78 9 7.5 9H3.5C3.22 9 3 9.22 3 9.5V21H2V9C2 8.45 2.45 8 3 8H7V4C7 3.45 7.45 3 8 3H14C14.55 3 15 3.45 15 4V9H14ZM20.56 10.66L21.99 14.77L22 20.01C21.99 20.56 21.55 21 21 21C20.45 21 20 20.55 20 20V19H12V20C12 20.55 11.55 21 11 21C10.45 21 10 20.56 10 20.01V14.77L11.42 10.66C11.57 10.26 11.94 10 12.4 10H19.59C20.04 10 20.42 10.26 20.56 10.66ZM12.3 11.34L11.61 13.34C11.5 13.66 11.74 14 12.08 14H19.93C20.27 14 20.51 13.66 20.4 13.34L19.71 11.34C19.64 11.14 19.45 11 19.24 11H12.76C12.54 11 12.35 11.14 12.3 11.34ZM10.99 16C10.99 16.55 11.44 17 11.99 17C12.54 17 12.99 16.55 12.99 16C12.99 15.45 12.54 15 11.99 15C11.44 15 10.99 15.45 10.99 16ZM18.99 16C18.99 16.55 19.44 17 19.99 17C20.54 17 20.99 16.55 20.99 16C20.99 15.45 20.54 15 19.99 15C19.44 15 18.99 15.45 18.99 16ZM7 11H5V13H7V11ZM10 5H12V7H10V5ZM7 15H5V17H7V15ZM5 19H7V21H5V19Z" fill="#969696"/>
</svg>
