<svg width="24" height="24" viewBox="0 0 24 24" fill="none" xmlns="http://www.w3.org/2000/svg">
<path fill-rule="evenodd" clip-rule="evenodd" d="M10 2H4C3.45 2 3 2.45 3 3C3 3.55 3.45 4 4 4H10C10.55 4 11 3.55 11 3C11 2.45 10.55 2 10 2ZM10 5H4C3.45 5 3 5.45 3 6C3 6.55 3.45 7 4 7H6V10C6 10.55 6.45 11 7 11C7.55 11 8 10.55 8 10V7H10C10.55 7 11 6.55 11 6C11 5.45 10.55 5 10 5ZM19.4796 13.1099C19.8696 12.7199 20.4996 12.7199 20.8896 13.1099C21.2796 13.4999 21.2796 14.1299 20.8896 14.5199L14.5296 20.8799C14.1396 21.2699 13.5096 21.2699 13.1196 20.8799C12.7296 20.4899 12.7296 19.8599 13.1196 19.4699L19.4796 13.1099ZM14.5 16C15.3284 16 16 15.3284 16 14.5C16 13.6716 15.3284 13 14.5 13C13.6716 13 13 13.6716 13 14.5C13 15.3284 13.6716 16 14.5 16ZM21 19.5C21 20.3284 20.3284 21 19.5 21C18.6716 21 18 20.3284 18 19.5C18 18.6716 18.6716 18 19.5 18C20.3284 18 21 18.6716 21 19.5ZM15.5 11C16.88 11 18 9.88 18 8.5V4H20C20.55 4 21 3.55 21 3C21 2.45 20.55 2 20 2H18C17.45 2 17 2.45 17 3V6.51C16.58 6.19 16.07 6 15.5 6C14.12 6 13 7.12 13 8.5C13 9.88 14.12 11 15.5 11ZM10.4499 16.6801C10.8399 17.0701 10.8399 17.7001 10.4499 18.0901L9.73986 18.8001L10.4499 19.5101C10.8399 19.9001 10.8399 20.5301 10.4499 20.9201C10.0599 21.3101 9.42986 21.3101 9.03986 20.9201L8.32986 20.2101L7.26986 21.2701C6.77986 21.7601 6.13986 22.0001 5.49986 22.0001C4.85986 22.0001 4.21986 21.7601 3.71986 21.2801C2.73986 20.3001 2.73986 18.7201 3.71986 17.7401L4.77986 16.6801L4.42986 16.3301C3.44986 15.3501 3.44986 13.7701 4.42986 12.7901C4.91986 12.3001 5.55986 12.0601 6.19986 12.0601C6.83986 12.0601 7.47986 12.3001 7.96986 12.7901C8.94986 13.7701 8.94986 15.3501 7.96986 16.3301L7.61986 16.6801L8.32986 17.3901L9.03986 16.6801C9.42986 16.2901 10.0599 16.2901 10.4499 16.6801ZM6.19986 14.0501C6.10986 14.0501 5.96986 14.0801 5.84986 14.2001C5.72986 14.3201 5.69986 14.4601 5.69986 14.5501C5.69986 14.6401 5.72986 14.7801 5.84986 14.9001L6.19986 15.2601L6.54986 14.9101C6.73986 14.7101 6.73986 14.4001 6.54986 14.2001C6.42986 14.0801 6.28986 14.0501 6.19986 14.0501ZM5.49986 20.0001C5.58986 20.0001 5.72986 19.9701 5.84986 19.8501L6.91986 18.8001L6.20986 18.0901L5.14986 19.1501C5.02986 19.2701 4.99986 19.4101 4.99986 19.5001C4.99986 19.5901 5.02986 19.7301 5.14986 19.8501C5.26986 19.9701 5.40986 20.0001 5.49986 20.0001Z" fill="#969696"/>
</svg>
