<svg width="24" height="24" viewBox="0 0 24 24" fill="none" xmlns="http://www.w3.org/2000/svg">
<path fill-rule="evenodd" clip-rule="evenodd" d="M12 2C9.28417 2 8.94417 2.01167 7.8775 2.06C4.24583 2.22667 2.2275 4.24167 2.06083 7.87667C2.01167 8.94417 2 9.28417 2 12C2 14.7158 2.01167 15.0567 2.06 16.1233C2.22667 19.755 4.24167 21.7733 7.87667 21.94C8.94417 21.9883 9.28417 22 12 22C14.7158 22 15.0567 21.9883 16.1233 21.94C19.7517 21.7733 21.775 19.7583 21.9392 16.1233C21.9883 15.0567 22 14.7158 22 12C22 9.28417 21.9883 8.94417 21.94 7.8775C21.7767 4.24917 19.7592 2.2275 16.1242 2.06083C15.0567 2.01167 14.7158 2 12 2ZM12 6.865C9.16417 6.865 6.865 9.16417 6.865 12C6.865 14.8358 9.16417 17.1358 12 17.1358C14.8358 17.1358 17.135 14.8367 17.135 12C17.135 9.16417 14.8358 6.865 12 6.865ZM12 15.3333C10.1592 15.3333 8.66667 13.8417 8.66667 12C8.66667 10.1592 10.1592 8.66667 12 8.66667C13.8408 8.66667 15.3333 10.1592 15.3333 12C15.3333 13.8417 13.8408 15.3333 12 15.3333ZM17.3383 5.4625C16.675 5.4625 16.1375 6 16.1375 6.6625C16.1375 7.325 16.675 7.8625 17.3383 7.8625C18.0008 7.8625 18.5375 7.325 18.5375 6.6625C18.5375 6 18.0008 5.4625 17.3383 5.4625Z" fill="#969696"/>
</svg>
