<svg width="24" height="24" viewBox="0 0 24 24" fill="none" xmlns="http://www.w3.org/2000/svg">
<path fill-rule="evenodd" clip-rule="evenodd" d="M9.96026 7C9.68026 7 9.48026 6.75 9.50026 6.47C9.59028 5.61475 9.23455 5.24578 9.02406 5.02747L9.02405 5.02746L9.02404 5.02744C9.00073 5.00327 8.9792 4.98094 8.96026 4.96C8.21026 4.17 7.93026 3.36 8.01026 2.43C8.03026 2.19 8.24026 2 8.48026 2H8.53026C8.80026 2 9.02026 2.23 8.99026 2.49C8.92215 3.32678 9.14752 3.59552 9.49136 4.00552L9.52026 4.04C10.5003 5.19 10.5603 5.71 10.4603 6.58C10.4403 6.82 10.2403 7 10.0003 7H9.96026ZM20 19C20 20.66 18.66 22 17 22C15.7 22 14.6 21.16 14.17 20H7.83004L6.83004 21.55C6.53004 22.01 5.91004 22.14 5.45004 21.84C4.99004 21.54 4.86004 20.92 5.16004 20.46L9.11004 14.38C7.02004 13.43 5.47004 11.48 5.09004 9.14C4.99004 8.54 5.48004 8 6.08004 8H17.92C18.52 8 19.01 8.54 18.91 9.13C18.53 11.47 16.99 13.42 14.89 14.37L15.49 15.3C14.85 15.56 14.31 15.98 13.89 16.51L12.87 14.94C12.58 14.98 12.29 15 12 15C11.71 15 11.42 14.98 11.13 14.94L9.14004 18H14.18C14.6 16.84 15.7 16 17 16C18.66 16 20 17.34 20 19ZM18 19C18 18.45 17.55 18 17 18C16.45 18 16 18.45 16 19C16 19.55 16.45 20 17 20C17.55 20 18 19.55 18 19ZM11.9902 6.47C11.9602 6.75 12.1702 7 12.4502 7H12.4802C12.7202 7 12.9202 6.82 12.9402 6.58C13.0402 5.71 12.9802 5.19 12.0002 4.04L11.9598 3.99185C11.6218 3.58945 11.3933 3.31744 11.4702 2.49C11.5002 2.23 11.2802 2 11.0102 2H10.9602C10.7202 2 10.5102 2.19 10.4902 2.43C10.4102 3.36 10.6902 4.17 11.4402 4.96C11.4593 4.9811 11.481 5.00361 11.5046 5.02801C11.7152 5.24639 12.0712 5.61545 11.9902 6.47ZM14.9603 7C14.6803 7 14.4803 6.75 14.5003 6.47C14.5903 5.61475 14.2345 5.24578 14.0241 5.02747C14.0007 5.00328 13.9792 4.98094 13.9603 4.96C13.2103 4.17 12.9303 3.36 13.0103 2.43C13.0303 2.19 13.2403 2 13.4803 2H13.5303C13.8003 2 14.0203 2.23 13.9903 2.49C13.9133 3.31744 14.1418 3.58946 14.4799 3.99185C14.4932 4.00769 14.5066 4.02372 14.5203 4.04C15.5003 5.19 15.5603 5.71 15.4603 6.58C15.4403 6.82 15.2403 7 15.0003 7H14.9603Z" fill="#969696"/>
</svg>
