<svg width="24" height="24" viewBox="0 0 24 24" fill="none" xmlns="http://www.w3.org/2000/svg">
<path fill-rule="evenodd" clip-rule="evenodd" d="M12 5.82997L14.46 8.28997C14.85 8.67997 15.48 8.67997 15.87 8.28997C16.26 7.89997 16.26 7.26997 15.87 6.87997L12.7 3.69997C12.31 3.30997 11.68 3.30997 11.29 3.69997L8.12 6.87997C7.73 7.26997 7.73 7.89997 8.12 8.28997C8.51 8.67997 9.14 8.67997 9.53 8.28997L12 5.82997ZM12 18.17L9.54 15.71C9.15 15.32 8.52 15.32 8.13 15.71C7.74 16.1 7.74 16.73 8.13 17.12L11.3 20.3C11.69 20.69 12.32 20.69 12.71 20.3L15.88 17.13C16.27 16.74 16.27 16.11 15.88 15.72C15.49 15.33 14.86 15.33 14.47 15.72L12 18.17Z" fill="#969696"/>
</svg>
