<svg width="24" height="24" viewBox="0 0 24 24" fill="none" xmlns="http://www.w3.org/2000/svg">
<path fill-rule="evenodd" clip-rule="evenodd" d="M8 13H4C3.45 13 3 12.55 3 12V8C3 7.45 3.45 7 4 7H9C9.55 7 10 7.45 10 8C10 8.55 9.55 9 9 9H5V11H8C9.1 11 10 11.9 10 13V15C10 16.1 9.1 17 8 17H4C3.45 17 3 16.55 3 16C3 15.45 3.45 15 4 15H8V13ZM19 13H18C17.45 13 17 12.55 17 12C17 11.45 17.45 11 18 11H20C20.55 11 21 11.45 21 12V15C21 16.1 20.1 17 19 17H14C12.9 17 12 16.1 12 15V9C12 7.9 12.9 7 14 7H20C20.55 7 21 7.45 21 8C21 8.55 20.55 9 20 9H14V15H19V13Z" fill="#969696"/>
</svg>
