<svg width="24" height="24" viewBox="0 0 24 24" fill="none" xmlns="http://www.w3.org/2000/svg">
<path d="M16.96 3.30024C16.64 2.91024 16.67 2.34024 17.03 1.98024L17.04 1.97024C17.46 1.55024 18.16 1.59024 18.53 2.05024C20.07 3.94024 21 6.36024 21 9.00024C21 11.5702 20.11 13.9402 18.64 15.8102L17.21 14.3802C18.33 12.8802 19 11.0202 19 9.00024C19 6.83024 18.23 4.84024 16.96 3.30024ZM7.49 4.66024C8.23 4.24024 9.08 4.00024 10 4.00024C12.8 4.00024 15 6.20024 15 9.00024C15 9.80024 14.77 10.6902 14.37 11.5402L15.85 13.0202C15.87 12.9802 15.9 12.9402 15.93 12.8902C16.62 11.6502 17 10.2602 17 9.00024C17 5.07024 13.93 2.00024 10 2.00024C8.51 2.00024 7.15 2.44024 6.03 3.20024L7.49 4.66024ZM10 6.50024C9.79 6.50024 9.6 6.53024 9.41 6.58024L12.42 9.59024C12.47 9.40024 12.5 9.21024 12.5 9.00024C12.5 7.62024 11.38 6.50024 10 6.50024ZM20.49 20.4902L3.51 3.51024C3.12 3.12024 2.49 3.12024 2.1 3.51024C1.71 3.90024 1.71 4.53024 2.1 4.92024L3.52 6.34024C3.32 6.83024 3.17 7.34024 3.09 7.88024C2.99 8.47024 3.47 9.00024 4.06 9.00024H4.1C4.58 9.00024 4.99 8.65024 5.06 8.18024C5.08 8.10024 5.1 8.02024 5.12 7.95024L11.74 14.5702C10.86 15.2502 9.96 15.9802 9.47 17.4702C8.97 18.9702 8.47 19.4802 7.76 19.8502C7.56 19.9402 7.29 20.0002 7 20.0002C6.12 20.0002 5.37 19.4202 5.1 18.6302C4.97 18.2402 4.57 18.0002 4.15 18.0002C3.49 18.0002 3 18.6402 3.2 19.2602C3.73 20.8502 5.23 22.0002 7 22.0002C7.57 22.0002 8.13 21.8802 8.64 21.6502C10 20.9402 10.77 19.9202 11.37 18.1002C11.69 17.1202 12.27 16.6702 13.08 16.0502C13.11 16.0302 13.13 16.0102 13.16 15.9902L19.07 21.9002C19.46 22.2902 20.09 22.2902 20.48 21.9002C20.88 21.5102 20.88 20.8802 20.49 20.4902Z" fill="#969696"/>
</svg>
