<svg width="24" height="24" viewBox="0 0 24 24" fill="none" xmlns="http://www.w3.org/2000/svg">
<path fill-rule="evenodd" clip-rule="evenodd" d="M15 11.6V6C15 4.34 13.66 3 12 3C10.46 3 9.20998 4.16 9.03998 5.65L15 11.6ZM18.08 12C17.67 12 17.31 12.3 17.25 12.71C17.2 13.03 17.13 13.35 17.03 13.64L18.3 14.91C18.6 14.31 18.82 13.66 18.93 12.97C19 12.46 18.6 12 18.08 12ZM3.70998 4.56C3.31998 4.95 3.31998 5.58 3.70998 5.97L8.99998 11.27V11.7C8.99998 12.89 9.59998 14.02 10.63 14.61C11.38 15.04 12.04 15.05 12.65 14.92L14.31 16.58C13.6 16.91 12.81 17.1 12 17.1C9.45998 17.1 7.11998 15.33 6.74998 12.71C6.68998 12.3 6.32998 12 5.91998 12C5.39998 12 4.99998 12.46 5.06998 12.97C5.52998 15.93 8.02998 18.27 11 18.72V21C11 21.55 11.45 22 12 22C12.55 22 13 21.55 13 21V18.72C13.91 18.59 14.77 18.27 15.55 17.82L19.04 21.31C19.43 21.7 20.06 21.7 20.45 21.31C20.84 20.92 20.84 20.29 20.45 19.9L5.11998 4.56C4.72998 4.17 4.09998 4.17 3.70998 4.56Z" fill="#969696"/>
</svg>
