<svg width="24" height="24" viewBox="0 0 24 24" fill="none" xmlns="http://www.w3.org/2000/svg">
<path fill-rule="evenodd" clip-rule="evenodd" d="M22.42 11.34L20.56 9.22001L20.82 6.41001C20.87 5.91001 20.53 5.45001 20.05 5.34001L17.29 4.71001L15.85 2.28001C15.59 1.85001 15.06 1.67001 14.6 1.87001L12 3.00001L9.40999 1.89001C8.94999 1.69001 8.40999 1.87001 8.15999 2.30001L6.70999 4.72001L3.95999 5.34001C3.46999 5.45001 3.12999 5.90001 3.17999 6.41001L3.43999 9.21001L1.57999 11.34C1.24999 11.72 1.24999 12.28 1.57999 12.66L3.43999 14.78L3.17999 17.6C3.12999 18.1 3.46999 18.56 3.94999 18.67L6.70999 19.3L8.14999 21.72C8.40999 22.15 8.93999 22.33 9.40999 22.13L12 21L14.59 22.11C15.05 22.31 15.59 22.13 15.84 21.7L17.28 19.27L20.04 18.64C20.53 18.53 20.86 18.07 20.81 17.57L20.55 14.76L22.41 12.64C22.75 12.28 22.75 11.72 22.42 11.34V11.34ZM13 17H11V15H13V17ZM12 13C11.45 13 11 12.55 11 12V8.00001C11 7.45001 11.45 7.00001 12 7.00001C12.55 7.00001 13 7.45001 13 8.00001V12C13 12.55 12.55 13 12 13Z" fill="#969696"/>
</svg>
