<svg width="24" height="24" viewBox="0 0 24 24" fill="none" xmlns="http://www.w3.org/2000/svg">
<path fill-rule="evenodd" clip-rule="evenodd" d="M6 9H16C16.55 9 17 9.45 17 10C17 10.55 16.55 11 16 11H6C5.45 11 5 10.55 5 10C5 9.45 5.45 9 6 9ZM6 5H16C16.55 5 17 5.45 17 6C17 6.55 16.55 7 16 7H6C5.45 7 5 6.55 5 6C5 5.45 5.45 5 6 5ZM6 13H12C12.55 13 13 13.45 13 14C13 14.55 12.55 15 12 15H6C5.45 15 5 14.55 5 14C5 13.45 5.45 13 6 13ZM15 13.88V18.11C15 18.5 15.42 18.74 15.76 18.54L19.29 16.42C19.61 16.23 19.61 15.76 19.29 15.56L15.76 13.44C15.42 13.25 15 13.49 15 13.88V13.88Z" fill="#969696"/>
</svg>
