<svg width="24" height="24" viewBox="0 0 24 24" fill="none" xmlns="http://www.w3.org/2000/svg">
<path fill-rule="evenodd" clip-rule="evenodd" d="M13 5H3C2.45 5 2 5.45 2 6C2 6.55 2.45 7 3 7H13C13.55 7 14 6.55 14 6C14 5.45 13.55 5 13 5ZM13 9H3C2.45 9 2 9.45 2 10C2 10.55 2.45 11 3 11H13C13.55 11 14 10.55 14 10C14 9.45 13.55 9 13 9ZM3 15H9C9.55 15 10 14.55 10 14C10 13.45 9.55 13 9 13H3C2.45 13 2 13.45 2 14C2 14.55 2.45 15 3 15ZM18 5C16.9 5 16 5.9 16 7V13.18C15.69 13.07 15.35 13 15 13C13.16 13 11.72 14.64 12.05 16.54C12.26 17.75 13.25 18.74 14.46 18.95C16.36 19.28 18 17.84 18 16V7H20C20.55 7 21 6.55 21 6C21 5.45 20.55 5 20 5H18Z" fill="#969696"/>
</svg>
