<svg width="24" height="24" viewBox="0 0 24 24" fill="none" xmlns="http://www.w3.org/2000/svg">
<path fill-rule="evenodd" clip-rule="evenodd" d="M6.99999 7H17V8.79C17 9.24 17.54 9.46 17.85 9.14L20.64 6.35C20.84 6.15 20.84 5.84 20.64 5.64L17.85 2.85C17.54 2.54 17 2.76 17 3.21V5H5.99999C5.44999 5 4.99999 5.45 4.99999 6V10C4.99999 10.55 5.44999 11 5.99999 11C6.54999 11 6.99999 10.55 6.99999 10V7ZM17 17H6.99999V15.21C6.99999 14.76 6.45999 14.54 6.14999 14.86L3.35999 17.65C3.15999 17.85 3.15999 18.16 3.35999 18.36L6.14999 21.15C6.45999 21.46 6.99999 21.24 6.99999 20.79V19H18C18.55 19 19 18.55 19 18V14C19 13.45 18.55 13 18 13C17.45 13 17 13.45 17 14V17ZM13 14.25V9.81C13 9.36 12.64 9 12.19 9C12.06 9 11.94 9.03 11.83 9.09L10.34 9.83C10.13 9.93 9.99999 10.15 9.99999 10.38C9.99999 10.72 10.28 11 10.62 11H11.5V14.25C11.5 14.66 11.84 15 12.25 15C12.66 15 13 14.66 13 14.25Z" fill="#969696"/>
</svg>
