<svg width="24" height="24" viewBox="0 0 24 24" fill="none" xmlns="http://www.w3.org/2000/svg">
<path fill-rule="evenodd" clip-rule="evenodd" d="M12 6.00003V3.21003C12 2.76003 11.46 2.54003 11.15 2.86003L7.35 6.65003C7.15 6.85003 7.15 7.16003 7.35 7.36003L11.14 11.15C11.46 11.46 12 11.24 12 10.79V8.00003C15.73 8.00003 18.68 11.42 17.86 15.29C17.39 17.56 15.55 19.39 13.29 19.86C9.72 20.61 6.54 18.16 6.06 14.85C5.99 14.37 5.57 14 5.08 14C4.48 14 4 14.53 4.08 15.13C4.7 19.52 8.88 22.77 13.61 21.85C16.73 21.24 19.24 18.73 19.85 15.61C20.84 10.48 16.94 6.00003 12 6.00003Z" fill="#969696"/>
</svg>
