<svg width="24" height="24" viewBox="0 0 24 24" fill="none" xmlns="http://www.w3.org/2000/svg">
<path fill-rule="evenodd" clip-rule="evenodd" d="M21 15.2V9.91002C21 9.02002 19.92 8.57002 19.29 9.20002L17 11.5V8.00002C17 7.45002 16.55 7.00002 16 7.00002H10.39L19.3 15.91C19.92 16.54 21 16.09 21 15.2ZM2.71 3.56002C2.32 3.95002 2.32 4.58002 2.71 4.97002L4.73 7.00002H4C3.45 7.00002 3 7.45002 3 8.00002V18C3 18.55 3.45 19 4 19H16C16.21 19 16.39 18.92 16.55 18.82L19.03 21.3C19.42 21.69 20.05 21.69 20.44 21.3C20.83 20.91 20.83 20.28 20.44 19.89L4.12 3.56002C3.73 3.17002 3.1 3.17002 2.71 3.56002Z" fill="#969696"/>
</svg>
