<svg width="24" height="24" viewBox="0 0 24 24" fill="none" xmlns="http://www.w3.org/2000/svg">
<path fill-rule="evenodd" clip-rule="evenodd" d="M3 8V6H1C0.45 6 0 5.55 0 5C0 4.45 0.45 4 1 4H3V2C3 1.45 3.45 1 4 1C4.55 1 5 1.45 5 2V4H7C7.55 4 8 4.45 8 5C8 5.55 7.55 6 7 6H5V8C5 8.55 4.55 9 4 9C3.45 9 3 8.55 3 8ZM13 17C11.3431 17 10 15.6569 10 14C10 12.3431 11.3431 11 13 11C14.6569 11 16 12.3431 16 14C16 15.6569 14.6569 17 13 17ZM21 6C22.1 6 23 6.9 23 8V20C23 21.1 22.1 22 21 22H5C3.9 22 3 21.1 3 20V9.72C3.3 9.89 3.63 10 4 10C5.1 10 6 9.1 6 8V7H7C8.1 7 9 6.1 9 5C9 4.63 8.89 4.3 8.72 4H15.12C15.68 4 16.22 4.24 16.59 4.65L17.83 6H21ZM13 19C15.76 19 18 16.76 18 14C18 11.24 15.76 9 13 9C10.24 9 8 11.24 8 14C8 16.76 10.24 19 13 19Z" fill="black"/>
</svg>
