<svg width="24" height="24" viewBox="0 0 24 24" fill="none" xmlns="http://www.w3.org/2000/svg">
<path fill-rule="evenodd" clip-rule="evenodd" d="M5 20C5.55 20 6 19.55 6 19V5C6 4.45 5.55 4 5 4C4.45 4 4 4.45 4 5V19C4 19.55 4.45 20 5 20ZM18 5C18 4.45 18.45 4 19 4C19.55 4 20 4.45 20 5V12C20 12.55 19.55 13 19 13C18.45 13 18 12.55 18 12V5ZM19 14C19.55 14 20 14.45 20 15V17H22C22.55 17 23 17.45 23 18C23 18.55 22.55 19 22 19H20V21C20 21.55 19.55 22 19 22C18.45 22 18 21.55 18 21V19H16C15.45 19 15 18.55 15 18C15 17.45 15.45 17 16 17H18V15C18 14.45 18.45 14 19 14ZM13 7C13 7.55 12.55 8 12 8C11.45 8 11 7.55 11 7V5C11 4.45 11.45 4 12 4C12.55 4 13 4.45 13 5V7ZM12 14C12.55 14 13 13.55 13 13V11C13 10.45 12.55 10 12 10C11.45 10 11 10.45 11 11V13C11 13.55 11.45 14 12 14ZM13 19C13 19.55 12.55 20 12 20C11.45 20 11 19.55 11 19V17C11 16.45 11.45 16 12 16C12.55 16 13 16.45 13 17V19Z" fill="black"/>
</svg>
