<svg width="24" height="24" viewBox="0 0 24 24" fill="none" xmlns="http://www.w3.org/2000/svg">
<path fill-rule="evenodd" clip-rule="evenodd" d="M22.25 14.29L21.56 16.18L9.2 11.71L10.59 7.91999C10.97 6.88999 12.11 6.35999 13.15 6.72999L19.84 9.13999C21.94 9.89999 23.02 12.2 22.25 14.29ZM2.45 12.48L8 14.48V18C8 18.55 8.45 19 9 19H15C15.55 19 16 18.55 16 18V17.37L19.58 18.66C20.1 18.85 20.68 18.58 20.87 18.06C21.06 17.54 20.79 16.96 20.27 16.77L3.13 10.59C2.61 10.4 2.03 10.67 1.84 11.19C1.66 11.71 1.93 12.29 2.45 12.48ZM7.3 10.2C8.79 9.47999 9.42 7.68999 8.71 6.19999C7.99 4.70999 6.2 4.07999 4.7 4.79999C3.21 5.50999 2.58 7.29999 3.3 8.79999C4.01 10.29 5.8 10.92 7.3 10.2Z" fill="black"/>
</svg>
