<svg width="24" height="24" viewBox="0 0 24 24" fill="none" xmlns="http://www.w3.org/2000/svg">
<path fill-rule="evenodd" clip-rule="evenodd" d="M13 5.18C14.34 5.66 15.24 7.04 14.94 8.6C14.71 9.78 13.74 10.73 12.56 10.95C10.66 11.3 9 9.84 9 8C9 6.7 9.84 5.6 11 5.18V4C11 3.45 11.45 3 12 3C12.55 3 13 3.45 13 4V5.18ZM11 8C11 8.55 11.45 9 12 9C12.55 9 13 8.55 13 8C13 7.45 12.55 7 12 7C11.45 7 11 7.45 11 8ZM6.35986 18.7799L6.60986 20.9999L8.22986 19.4599L10.9999 11.8599C10.3199 11.6899 9.71986 11.3499 9.22986 10.8799L6.35986 18.7799ZM14.77 10.8799C14.28 11.3499 13.67 11.6899 13 11.8599L15.77 19.4599L17.39 20.9999L17.65 18.7799L14.77 10.8799Z" fill="black"/>
</svg>
