<svg width="24" height="24" viewBox="0 0 24 24" fill="none" xmlns="http://www.w3.org/2000/svg">
<path fill-rule="evenodd" clip-rule="evenodd" d="M10.5599 5.51015C11.9099 5.54015 12.9999 6.64015 12.9999 8.00015C12.9999 8.75015 12.6699 9.41015 12.1499 9.87015L12.3999 10.5501C12.5899 11.0702 13.1599 11.3401 13.6799 11.1501C13.8699 11.6701 14.4399 11.9401 14.9599 11.7501C15.4799 11.5602 15.7499 10.9902 15.5599 10.4701C16.0799 10.2802 16.3499 9.71015 16.1599 9.19015L14.0999 3.54015C13.9099 3.02015 13.3399 2.75015 12.8199 2.94015C12.6299 2.42015 12.0599 2.15015 11.5399 2.34015C11.0199 2.53015 10.7499 3.10015 10.9399 3.62015C10.4199 3.81015 10.1499 4.38015 10.3399 4.90015L10.5599 5.51015ZM7 19.0004C5.9 19.0004 5 19.9004 5 21.0004H19C19 19.9004 18.1 19.0004 17 19.0004H13V17.0004H16C17.1 17.0004 18 16.1004 18 15.0004H10C8.34 15.0004 7 13.6604 7 12.0004C7 10.9104 7.59 9.96037 8.46 9.44037C8.17 9.03037 8 8.54037 8 8.00037C8 7.79037 8.04 7.58037 8.09 7.38037C6.28 8.13037 5 9.92037 5 12.0004C5 14.7604 7.24 17.0004 10 17.0004V19.0004H7ZM12 7.5C12 8.32843 11.3284 9 10.5 9C9.67157 9 9 8.32843 9 7.5C9 6.67157 9.67157 6 10.5 6C11.3284 6 12 6.67157 12 7.5Z" fill="black"/>
</svg>
