<svg width="24" height="24" viewBox="0 0 24 24" fill="none" xmlns="http://www.w3.org/2000/svg">
<path fill-rule="evenodd" clip-rule="evenodd" d="M22.6 11.29L20 8.69V5C20 4.45 19.55 4 19 4H15.31L12.71 1.4C12.32 1.01 11.69 1.01 11.3 1.4L8.68998 4H4.99998C4.44998 4 3.99998 4.45 3.99998 5V8.69L1.39998 11.29C1.00998 11.68 1.00998 12.31 1.39998 12.7L3.99998 15.3V19C3.99998 19.55 4.44998 20 4.99998 20H8.68998L11.29 22.6C11.68 22.99 12.31 22.99 12.7 22.6L15.3 20H19C19.55 20 20 19.55 20 19V15.31L22.6 12.71C22.99 12.32 22.99 11.68 22.6 11.29ZM17.92 12.98C17.58 15.1 16.07 16.92 14.04 17.64C12.83 18.07 11.63 18.09 10.54 17.82C10.13 17.72 10.06 17.17 10.41 16.92C11.98 15.84 13 14.04 13 12C13 9.96 11.98 8.16 10.42 7.08C10.07 6.84 10.13 6.29 10.55 6.18C11.64 5.91 12.84 5.93 14.05 6.36C16.07 7.08 17.59 8.9 17.93 11.02C17.98 11.35 18 11.68 18 12C17.99 12.32 17.97 12.65 17.92 12.98V12.98Z" fill="black"/>
</svg>
