<svg width="24" height="24" viewBox="0 0 24 24" fill="none" xmlns="http://www.w3.org/2000/svg">
<path fill-rule="evenodd" clip-rule="evenodd" d="M20.4097 8.99994C20.8997 8.99994 21.0997 8.36994 20.6997 8.08994L13.1497 2.79994C12.4597 2.31994 11.5397 2.31994 10.8597 2.79994L3.29971 8.08994C2.89971 8.36994 3.09971 8.99994 3.58971 8.99994H10.9997V20.9999C10.9997 21.5499 11.4497 21.9999 11.9997 21.9999C12.5497 21.9999 12.9997 21.5499 12.9997 20.9999V8.99994H20.4097ZM7.99994 16H4.89995L4.32994 12.98C4.22994 12.44 3.70994 12.08 3.15994 12.18C2.61994 12.28 2.25994 12.8 2.35994 13.35L2.99994 16.74V21C2.99994 21.55 3.44994 22 3.99994 22H4.00995C4.55995 22 5.00995 21.56 5.00995 21.01L5.01994 18H6.99994V21C6.99994 21.55 7.44994 22 7.99994 22C8.54994 22 8.99994 21.55 8.99994 21V17C8.99994 16.45 8.54994 16 7.99994 16ZM19.67 12.98C19.78 12.44 20.3 12.08 20.84 12.18C21.38 12.28 21.74 12.81 21.64 13.35L21 16.74V21C21 21.55 20.55 22 20 22C19.45 22 19 21.56 19 21.01L18.98 18H17V21C17 21.55 16.55 22 16 22C15.45 22 15 21.55 15 21V17C15 16.45 15.45 16 16 16H19.1L19.67 12.98Z" fill="black"/>
</svg>
