<svg width="24" height="24" viewBox="0 0 24 24" fill="none" xmlns="http://www.w3.org/2000/svg">
<path fill-rule="evenodd" clip-rule="evenodd" d="M15.7691 8.06812C15.7834 8.08245 15.7973 8.09643 15.8109 8.11L19.5709 11.88C19.9609 12.27 19.9609 12.9 19.5709 13.29C19.1809 13.68 18.5509 13.68 18.1609 13.29L14.9209 10.05V21C14.9209 21.55 14.4709 22 13.9209 22C13.3709 22 12.9209 21.55 12.9209 21V16H10.9209V21C10.9209 21.55 10.4709 22 9.92088 22C9.37088 22 8.92088 21.55 8.92088 21V8.71C6.39088 7.95 4.45088 5.8 4.01088 3.14C3.92088 2.54 4.40088 2 5.01089 2C5.50089 2 5.91088 2.36 5.99089 2.85C6.40089 5.2 8.45088 6.99 10.9109 7H13.4509C14.7056 7 15.3735 7.67075 15.7691 8.06812ZM14 4C14 5.10457 13.1046 6 12 6C10.8954 6 10 5.10457 10 4C10 2.89543 10.8954 2 12 2C13.1046 2 14 2.89543 14 4Z" fill="black"/>
</svg>
