<svg width="24" height="24" viewBox="0 0 24 24" fill="none" xmlns="http://www.w3.org/2000/svg">
<path fill-rule="evenodd" clip-rule="evenodd" d="M20.68 4C21.25 4 21.76 4.35 21.94 4.88C22.12 5.44 21.89 6.05 21.38 6.36L20.51 6.88L20.9 8.12C21.13 8.7 20.95 9.37 20.45 9.74C20.22 9.91 19.94 10 19.67 10C19.36 10 19.06 9.89 18.81 9.68L18 8.98L17.19 9.68C16.94 9.89 16.64 10 16.33 10C16.06 10 15.78 9.91 15.55 9.74C15.06 9.37 14.87 8.7 15.1 8.12L15.5 6.88L14.63 6.36C14.11 6.05 13.88 5.44 14.07 4.88C14.25 4.35 14.76 4 15.33 4H15.42H16.4L16.71 3.04C16.85 2.43 17.39 2 18 2C18.61 2 19.15 2.43 19.29 3.03L19.6 4H20.59H20.68ZM17 6C17 6.55 17.45 7 18 7C18.55 7 19 6.55 19 6C19 5.45 18.55 5 18 5C17.45 5 17 5.45 17 6ZM14.41 12H15.5C15.78 12 16 12.22 16.01 12.51C16.01 12.79 15.79 13.01 15.51 13.01H14.63C14.73 14.14 14.36 15.31 13.49 16.18C13.32 16.34 13.14 16.48 12.96 16.61L13.48 17.98C14.04 19.56 13.22 21.28 11.66 21.83C11.33 21.94 10.99 22 10.65 22C10.21 22 9.78002 21.9 9.36002 21.7C8.88002 21.47 8.49002 21.12 8.20002 20.7C6.86002 21.08 5.35002 20.76 4.29002 19.7C3.23002 18.64 2.91002 17.14 3.29002 15.79C2.87002 15.5 2.52002 15.11 2.29002 14.63C1.94002 13.91 1.90002 13.09 2.17002 12.34C2.72002 10.79 4.44002 9.97 6.00002 10.52L7.40002 11.05C7.53002 10.86 7.67002 10.68 7.83002 10.52C8.61002 9.74 9.64002 9.35 10.66 9.35C10.7349 9.35 10.8144 9.35927 10.8923 9.36834C10.9288 9.3726 10.9649 9.37681 11 9.38V8.5C11 8.22 11.22 8 11.5 8C11.78 8 12 8.22 12 8.5V9.59C12.54 9.78 13.04 10.07 13.48 10.51C13.92 10.95 14.22 11.46 14.41 12ZM4.10002 13.78C4.22002 14.02 4.42002 14.2 4.67002 14.29C5.85002 14.71 7.33002 14.2 8.48002 13.6L5.32002 12.41C4.82002 12.23 4.25002 12.5 4.06002 13.02C3.97002 13.27 3.98002 13.54 4.10002 13.78ZM10.23 19.9C10.47 20.02 10.74 20.03 10.99 19.94C11.51 19.76 11.78 19.18 11.6 18.66L10.42 15.53C9.81002 16.68 9.30002 18.15 9.72002 19.33C9.81002 19.58 9.99002 19.79 10.23 19.9ZM11.59 12.99L12.2 14.6C12.84 13.81 12.8 12.66 12.07 11.93C11.7 11.55 11.19 11.34 10.66 11.34C10.19 11.34 9.76002 11.51 9.40002 11.8L11 12.4C11.01 12.41 11.02 12.42 11.03 12.42C11.0634 12.4267 11.0878 12.4422 11.1122 12.4578C11.1245 12.4656 11.1367 12.4733 11.15 12.48C11.19 12.5 11.23 12.52 11.26 12.55L11.35 12.64L11.44 12.73C11.47 12.77 11.49 12.8 11.51 12.84L11.57 12.96C11.58 12.97 11.59 12.98 11.59 12.99Z" fill="black"/>
</svg>
