<svg width="24" height="24" viewBox="0 0 24 24" fill="none" xmlns="http://www.w3.org/2000/svg">
<path fill-rule="evenodd" clip-rule="evenodd" d="M7.29 7.00001C7.74 7.00001 7.96 6.46001 7.64 6.15001L5.35 3.85001C5.15 3.65001 4.84 3.65001 4.64 3.85001L2.35 6.15001C2.04 6.46001 2.26 7.00001 2.71 7.00001H4V17H2.71C2.26 17 2.04 17.54 2.36 17.85L4.65 20.14C4.85 20.34 5.16 20.34 5.36 20.14L7.65 17.85C7.96 17.54 7.74 17 7.29 17H6V7.00001H7.29ZM11 7.00001H21C21.55 7.00001 22 6.55001 22 6.00001C22 5.45001 21.55 5.00001 21 5.00001H11C10.45 5.00001 10 5.45001 10 6.00001C10 6.55001 10.45 7.00001 11 7.00001ZM21 17H11C10.45 17 10 17.45 10 18C10 18.55 10.45 19 11 19H21C21.55 19 22 18.55 22 18C22 17.45 21.55 17 21 17ZM21 11H11C10.45 11 10 11.45 10 12C10 12.55 10.45 13 11 13H21C21.55 13 22 12.55 22 12C22 11.45 21.55 11 21 11Z" fill="black"/>
</svg>
