<svg width="24" height="24" viewBox="0 0 24 24" fill="none" xmlns="http://www.w3.org/2000/svg">
<path fill-rule="evenodd" clip-rule="evenodd" d="M7 8C5.89543 8 5 7.10457 5 6C5 4.89543 5.89543 4 7 4C8.10457 4 9 4.89543 9 6C9 7.10457 8.10457 8 7 8ZM21 12C21.55 12 22 12.45 22 13V20C22 21.1 21.1 22 20 22H4C2.9 22 2 21.1 2 20V13C2 12.45 2.45 12 3 12H5V11.25C5 10.01 6.01 9 7.25 9H7.28C7.62 9 7.95 9.09 8.24 9.23C8.5 9.35 8.74 9.52 8.93 9.73L10.33 11.28C10.56 11.54 10.84 11.78 11.15 12H21ZM7 19V15C7 14.45 6.55 14 6 14C5.45 14 5 14.45 5 15V19C5 19.55 5.45 20 6 20C6.55 20 7 19.55 7 19ZM11 19V15C11 14.45 10.55 14 10 14C9.45 14 9 14.45 9 15V19C9 19.55 9.45 20 10 20C10.55 20 11 19.55 11 19ZM15 19V15C15 14.45 14.55 14 14 14C13.45 14 13 14.45 13 15V19C13 19.55 13.45 20 14 20C14.55 20 15 19.55 15 19ZM19 19V15C19 14.45 18.55 14 18 14C17.45 14 17 14.45 17 15V19C17 19.55 17.45 20 18 20C18.55 20 19 19.55 19 19ZM15.06 10C14.53 10 14.12 9.56 14.13 9.04C14.13 8.42 13.96 7.74 13.35 7.15C12.5 6.33 11.97 5.19 12 3.9C12.01 3.4 12.44 3 12.94 3C13.47 3 13.9 3.43 13.88 3.95C13.85 4.59 14 5.14 14.65 5.86C15.42 6.63 16.04 7.71 16 9.11C15.99 9.61 15.56 10 15.06 10ZM19.06 10C18.53 10 18.12 9.56 18.13 9.04C18.13 8.42 17.96 7.74 17.35 7.15C16.5 6.33 15.97 5.19 16 3.9C16.01 3.4 16.44 3 16.94 3C17.47 3 17.9 3.43 17.88 3.95C17.85 4.59 18 5.14 18.65 5.86C19.42 6.63 20.04 7.71 20 9.11C19.99 9.61 19.56 10 19.06 10Z" fill="black"/>
</svg>
