<svg width="24" height="24" viewBox="0 0 24 24" fill="none" xmlns="http://www.w3.org/2000/svg">
<path fill-rule="evenodd" clip-rule="evenodd" d="M0.913818 7.71999V9.39999L3.68305 8.39999V18H5.5292V5.99999H5.29843L0.913818 7.71999ZM22.8646 14.37C22.7354 14.09 22.5415 13.84 22.283 13.63C22.0246 13.42 21.72 13.24 21.3507 13.1C20.9815 12.96 20.5661 12.83 20.1046 12.72C19.7815 12.65 19.5138 12.57 19.3015 12.49C19.0892 12.41 18.923 12.33 18.7938 12.24C18.6646 12.15 18.5815 12.05 18.5354 11.94C18.4892 11.83 18.4615 11.7 18.4615 11.55C18.4615 11.41 18.4892 11.27 18.5446 11.14C18.6 11.01 18.683 10.89 18.7938 10.8C18.9046 10.7 19.043 10.62 19.2092 10.56C19.3754 10.5 19.5784 10.47 19.8 10.47C20.0307 10.47 20.2338 10.51 20.4092 10.58C20.5846 10.65 20.7323 10.75 20.8523 10.87C20.9723 10.99 21.0554 11.13 21.12 11.29C21.1754 11.45 21.2123 11.61 21.2123 11.78H23.0123C23.0123 11.39 22.9384 11.03 22.7907 10.69C22.643 10.35 22.4307 10.06 22.1538 9.80999C21.8769 9.55999 21.5446 9.36999 21.1477 9.21999C20.7507 9.06999 20.2984 8.99999 19.8 8.99999C19.3292 8.99999 18.8954 9.06999 18.5169 9.20999C18.1384 9.34999 17.8061 9.53999 17.5384 9.77999C17.2707 10.02 17.0677 10.3 16.92 10.62C16.7723 10.94 16.7077 11.27 16.7077 11.63C16.7077 11.99 16.7815 12.32 16.92 12.59C17.0584 12.87 17.2523 13.11 17.5107 13.32C17.76 13.53 18.0646 13.7 18.4154 13.85C18.7661 13.99 19.163 14.11 19.5877 14.21C19.9477 14.29 20.243 14.38 20.4646 14.47C20.6861 14.56 20.8615 14.66 20.9907 14.76C21.1107 14.86 21.1938 14.98 21.24 15.1C21.2861 15.22 21.3046 15.35 21.3046 15.49C21.3046 15.81 21.1846 16.06 20.9354 16.26C20.6861 16.46 20.3261 16.55 19.8554 16.55C19.6523 16.55 19.4584 16.53 19.2646 16.47C19.0707 16.42 18.8954 16.34 18.7477 16.23C18.5907 16.12 18.4707 15.97 18.3692 15.79C18.2677 15.61 18.2123 15.38 18.203 15.12H16.4584C16.4584 15.48 16.5323 15.83 16.68 16.17C16.8277 16.51 17.04 16.82 17.3261 17.1C17.6123 17.37 17.963 17.59 18.3877 17.76C18.8123 17.93 19.2923 18.01 19.8461 18.01C20.3354 18.01 20.7784 17.95 21.1754 17.82C21.5723 17.69 21.9138 17.51 22.2 17.28C22.4861 17.05 22.6984 16.77 22.8554 16.45C23.0123 16.13 23.0861 15.78 23.0861 15.39C23.0677 14.99 23.003 14.65 22.8646 14.37V14.37ZM13.6707 7.04999C13.3569 6.64999 12.9784 6.34999 12.5354 6.16999C12.1015 5.98999 11.603 5.89999 11.0677 5.89999C10.5323 5.89999 10.043 5.98999 9.59997 6.16999C9.1569 6.34999 8.77843 6.63999 8.46459 7.04999C8.15074 7.45999 7.91074 7.97999 7.73536 8.63999C7.5692 9.28999 7.4769 10.09 7.4769 11.03V12.95C7.4769 13.89 7.55997 14.69 7.73536 15.34C7.91074 16 8.15074 16.53 8.47382 16.94C8.78766 17.35 9.16613 17.65 9.6092 17.83C10.0523 18.01 10.5415 18.11 11.0769 18.11C11.6215 18.11 12.1107 18.02 12.5446 17.83C12.9877 17.65 13.3569 17.35 13.6707 16.94C13.9846 16.53 14.2246 16 14.3907 15.34C14.5569 14.69 14.6492 13.89 14.6492 12.95V11.03C14.6492 10.09 14.5661 9.28999 14.3907 8.63999C14.2246 7.97999 13.9846 7.44999 13.6707 7.04999ZM12.8215 13.22C12.8215 13.82 12.7846 14.33 12.7107 14.75C12.6369 15.17 12.5261 15.51 12.3784 15.77C12.2307 16.03 12.0461 16.22 11.8338 16.34C11.6215 16.46 11.363 16.52 11.0769 16.52C10.8 16.52 10.5415 16.46 10.32 16.34C10.0984 16.22 9.91382 16.03 9.76613 15.77C9.61843 15.51 9.49843 15.17 9.41536 14.75C9.33228 14.33 9.29536 13.82 9.29536 13.22V10.72C9.29536 10.12 9.33228 9.60999 9.41536 9.19999C9.49843 8.78999 9.6092 8.45999 9.76613 8.19999C9.91382 7.94999 10.0984 7.76999 10.32 7.64999C10.5415 7.53999 10.7907 7.47999 11.0677 7.47999C11.3538 7.47999 11.603 7.53999 11.8154 7.64999C12.0369 7.75999 12.2215 7.93999 12.3692 8.19999C12.5169 8.44999 12.6369 8.77999 12.7107 9.18999C12.7846 9.59999 12.8307 10.11 12.8307 10.71V13.22H12.8215V13.22Z" fill="black"/>
</svg>
