<svg width="24" height="24" viewBox="0 0 24 24" fill="none" xmlns="http://www.w3.org/2000/svg">
<path fill-rule="evenodd" clip-rule="evenodd" d="M12 14C13.66 14 14.99 12.66 14.99 11L15 5C15 3.34 13.66 2 12 2C10.34 2 8.99998 3.34 8.99998 5V11C8.99998 12.66 10.34 14 12 14ZM18.08 11C17.66 11 17.31 11.3 17.25 11.71C16.88 14.32 14.53 16.1 12 16.1C9.46998 16.1 7.11998 14.33 6.74998 11.71C6.68998 11.3 6.32998 11 5.91998 11C5.39998 11 4.99998 11.46 5.06998 11.97C5.52998 14.94 8.02998 17.27 11 17.72V20C11 20.55 11.45 21 12 21C12.55 21 13 20.55 13 20V17.72C15.96 17.29 18.47 14.94 18.93 11.97C19 11.46 18.6 11 18.08 11Z" fill="black"/>
</svg>
