<svg width="24" height="24" viewBox="0 0 24 24" fill="none" xmlns="http://www.w3.org/2000/svg">
<path fill-rule="evenodd" clip-rule="evenodd" d="M21.59 12.58C21.84 12.23 21.84 11.77 21.59 11.42L17.63 5.84001C17.27 5.33001 16.67 5.00001 16 5.00001H8.65998L19.36 15.73L21.59 12.58ZM2.71998 4.72001L3.58998 5.59001C3.22998 5.95001 2.99998 6.45001 2.99998 7.00001V17C2.99998 18.1 3.89998 19 4.99998 19H17L18.29 20.29C18.68 20.68 19.31 20.68 19.7 20.29C20.09 19.9 20.09 19.27 19.7 18.88L4.13998 3.31001C3.75998 2.93001 3.12998 2.92001 2.73998 3.30001C2.32998 3.68001 2.32998 4.33001 2.71998 4.72001Z" fill="black"/>
</svg>
