<svg width="24" height="24" viewBox="0 0 24 24" fill="none" xmlns="http://www.w3.org/2000/svg">
<path fill-rule="evenodd" clip-rule="evenodd" d="M19.99 9.79C20.5 9.39 20.5 8.61 19.99 8.21L13.23 2.95C12.51 2.39 11.5 2.39 10.77 2.95L9.41001 4.02L17.29 11.9L19.99 9.79ZM19.99 13.28L19.98 13.27C19.62 12.99 19.12 12.99 18.76 13.27L18.71 13.31L20.11 14.71C20.48 14.3 20.45 13.64 19.99 13.28V13.28ZM21.44 18.88L4.12001 1.56C3.73001 1.17 3.10001 1.17 2.71001 1.56C2.32001 1.95 2.32001 2.58 2.71001 2.97L6.23001 6.49L4.01001 8.21C3.50001 8.61 3.50001 9.39 4.01001 9.79L10.77 15.05C11.49 15.61 12.5 15.61 13.23 15.05L14.1 14.37L15.52 15.79L12.6 18.06C12.24 18.34 11.73 18.34 11.37 18.06L5.22001 13.28C4.86001 13 4.36001 13 4.00001 13.28C3.49001 13.68 3.49001 14.45 4.00001 14.85L10.76 20.11C11.48 20.67 12.49 20.67 13.22 20.11L16.94 17.22L20.01 20.29C20.4 20.68 21.03 20.68 21.42 20.29C21.83 19.9 21.83 19.27 21.44 18.88Z" fill="black"/>
</svg>
