<svg width="24" height="24" viewBox="0 0 24 24" fill="none" xmlns="http://www.w3.org/2000/svg">
<path fill-rule="evenodd" clip-rule="evenodd" d="M18.89 5H18.36L19.07 3.03C19.31 2.38 18.97 1.66 18.32 1.43C17.67 1.19 16.95 1.53 16.71 2.18L15.69 5H5.09999C3.72999 5 2.76999 6.34 3.19999 7.63L4.99999 13L3.20999 18.37C2.76999 19.66 3.73999 21 5.09999 21H18.88C20.24 21 21.21 19.66 20.78 18.37L19 13L20.78 7.63C21.21 6.34 20.25 5 18.89 5ZM15 14H13V16C13 16.55 12.55 17 12 17C11.45 17 11 16.55 11 16V14H8.99999C8.44999 14 7.99999 13.55 7.99999 13C7.99999 12.45 8.44999 12 8.99999 12H11V10C11 9.45 11.45 9 12 9C12.55 9 13 9.45 13 10V12H15C15.55 12 16 12.45 16 13C16 13.55 15.55 14 15 14Z" fill="black"/>
</svg>
