<svg width="24" height="24" viewBox="0 0 24 24" fill="none" xmlns="http://www.w3.org/2000/svg">
<path fill-rule="evenodd" clip-rule="evenodd" d="M19.8201 13.72C20.9001 8.56 16.9701 4 12.0001 4C7.59011 4 4.00011 7.59 4.00011 12C4.00011 13.18 4.26011 14.34 4.77011 15.42C4.98011 15.85 5.04011 16.32 4.91011 16.77L4.21011 19.16C4.10011 19.55 4.46011 19.9 4.84011 19.79L7.15011 19.11C7.33011 19.06 7.52011 19.03 7.71011 19.03C8.01011 19.03 8.30011 19.09 8.57011 19.22C10.0101 19.91 11.5601 20.14 13.1501 19.92C16.4201 19.46 19.1401 16.95 19.8201 13.72ZM2.00011 12C2.00011 6.48 6.48011 2 12.0001 2C17.8501 2 22.5301 7.03 21.9601 12.99C21.5101 17.56 17.8601 21.32 13.3001 21.91C11.2801 22.17 9.38011 21.81 7.72011 21.02L2.76011 22.48C2.00011 22.71 1.29011 22 1.51011 21.25L2.97011 16.29C2.36011 14.98 2.00011 13.54 2.00011 12ZM11 9C11 8.45 11.45 8 12 8C12.55 8 13 8.45 13 9V11H15C15.55 11 16 11.45 16 12C16 12.55 15.55 13 15 13H13V15C13 15.55 12.55 16 12 16C11.45 16 11 15.55 11 15V13H9C8.45 13 8 12.55 8 12C8 11.45 8.45 11 9 11H11V9Z" fill="black"/>
</svg>
