<svg width="24" height="24" viewBox="0 0 24 24" fill="none" xmlns="http://www.w3.org/2000/svg">
<path d="M18 13H12.94C12.6 16.1 10.68 18.72 8.00004 20.05C7.97004 21.86 6.34004 23.28 4.45004 22.95C3.25004 22.74 2.26004 21.75 2.05004 20.55C1.71004 18.65 3.16004 17 5.00004 17C5.95004 17 6.78004 17.45 7.33004 18.14C9.23004 17.11 10.59 15.23 10.91 13H7.81004C7.33004 14.34 5.95004 15.24 4.39004 14.94C3.21004 14.71 2.26004 13.74 2.04004 12.56C1.70004 10.66 3.16004 9 5.00004 9C6.30004 9 7.40004 9.84 7.82004 11H10.92C10.6 8.77 9.23004 6.9 7.33004 5.86C6.69004 6.66 5.66004 7.14 4.52004 6.96C3.29004 6.77 2.26004 5.77 2.05004 4.54C1.72004 2.65 3.17004 1 5.00004 1C6.64004 1 7.96004 2.31 7.99004 3.95C10.67 5.28 12.59 7.9 12.93 11H18V9.21C18 8.76 18.54 8.54 18.85 8.86L21.64 11.65C21.84 11.85 21.84 12.16 21.64 12.36L18.85 15.15C18.54 15.46 18 15.24 18 14.79V13Z" fill="black"/>
</svg>
