<svg width="24" height="24" viewBox="0 0 24 24" fill="none" xmlns="http://www.w3.org/2000/svg">
<path fill-rule="evenodd" clip-rule="evenodd" d="M17.7 19.7C18.09 19.31 18.09 18.68 17.7 18.29L15 15.59L13.59 17L16.29 19.7C16.68 20.09 17.32 20.09 17.7 19.7ZM8.71 7.99999H11V13.59L6.29 18.29C5.9 18.68 5.9 19.31 6.29 19.7C6.68 20.09 7.31 20.09 7.7 19.7L12.41 15C12.79 14.62 13 14.12 13 13.59V7.99999H15.29C15.74 7.99999 15.96 7.45999 15.64 7.14999L12.35 3.85999C12.15 3.65999 11.84 3.65999 11.64 3.85999L8.35 7.14999C8.04 7.45999 8.26 7.99999 8.71 7.99999Z" fill="black"/>
</svg>
