<svg width="24" height="24" viewBox="0 0 24 24" fill="none" xmlns="http://www.w3.org/2000/svg">
<path fill-rule="evenodd" clip-rule="evenodd" d="M11.1702 2.8101C10.1802 4.7201 9.10015 8.2001 11.1002 12.0801C13.1002 15.9701 16.8902 17.3701 19.3801 17.5001C19.7901 17.5301 20.0102 18.0001 19.7502 18.3201C17.9102 20.5701 15.1202 22.0101 11.9902 22.0101C10.9102 22.0101 9.86015 21.8301 8.88015 21.5101C10.1302 20.8301 11.0002 19.5201 11.0002 18.0001C11.0002 16.1701 9.77015 14.6301 8.10015 14.1501C7.18015 12.8301 5.66015 12.0001 4.00015 12.0001C3.29015 12.0001 2.62015 12.1501 2.00015 12.4201C2.00015 12.4151 2.00015 12.4126 1.9989 12.4113C1.99765 12.4101 1.99515 12.4101 1.99015 12.4101C1.78015 7.1601 5.62015 2.7701 10.6402 2.0901C11.0502 2.0401 11.3602 2.4501 11.1702 2.8101ZM6.82 16H7C8.1 16 9 16.9 9 18C9 19.1 8.1 20 7 20H4C2.34 20 1 18.66 1 17C1 15.34 2.34 14 4 14C5.3 14 6.4 14.84 6.82 16Z" fill="black"/>
</svg>
