<svg width="24" height="24" viewBox="0 0 24 24" fill="none" xmlns="http://www.w3.org/2000/svg">
<path d="M6.98012 4.15C6.99012 4.15 6.99012 4.14 7.00012 4.14V3.5C7.00012 2.67 7.67012 2 8.50012 2C9.33012 2 10.0001 2.67 10.0001 3.5V4H14.0001V3.5C14.0001 2.67 14.6701 2 15.5001 2C16.3301 2 17.0001 2.67 17.0001 3.5V4.14C18.7201 4.59 20.0001 6.14 20.0001 8V17.17L17.9701 15.14C17.9801 15.09 18.0001 15.05 18.0001 15V13C18.0001 12.45 17.5501 12 17.0001 12H14.8301L6.98012 4.15ZM20.4901 21.9C20.1001 22.29 19.4701 22.29 19.0801 21.9L18.9401 21.76C18.6501 21.91 18.3401 22 18.0001 22H6.00012C4.90012 22 4.00012 21.1 4.00012 20V8C4.00012 7.64 4.06012 7.31 4.15012 6.98L2.10012 4.93C1.71012 4.54 1.71012 3.91 2.10012 3.52C2.49012 3.13 3.12012 3.13 3.51012 3.52L20.4801 20.49C20.8801 20.88 20.8801 21.51 20.4901 21.9ZM11.1701 14L9.17012 12H7.00012C6.45012 12 6.00012 12.45 6.00012 13C6.00012 13.55 6.45012 14 7.00012 14H11.1701Z" fill="black"/>
</svg>
