<svg width="24" height="24" viewBox="0 0 24 24" fill="none" xmlns="http://www.w3.org/2000/svg">
<path fill-rule="evenodd" clip-rule="evenodd" d="M14 6.00001H17V13.88L19 15.88V5.00001C19 4.45001 18.55 4.00001 18 4.00001H14C14 3.45001 13.55 3.00001 13 3.00001H6.11998L14 10.88V6.00001ZM21.17 20.88L12 11.71V13H9.99998V11H11.29L3.11998 2.83001C2.72998 2.44001 2.09998 2.44001 1.70998 2.83001C1.31998 3.22001 1.31998 3.85001 1.70998 4.24001L4.99998 7.54001V19H3.99998C3.44998 19 2.99998 19.45 2.99998 20C2.99998 20.55 3.44998 21 3.99998 21H13C13.55 21 14 20.55 14 20V16.54L19.75 22.29C20.14 22.68 20.77 22.68 21.16 22.29C21.56 21.9 21.56 21.27 21.17 20.88V20.88Z" fill="black"/>
</svg>
