<svg width="24" height="24" viewBox="0 0 24 24" fill="none" xmlns="http://www.w3.org/2000/svg">
<path fill-rule="evenodd" clip-rule="evenodd" d="M10.5 9.00002H13.5C13.78 9.00002 14 8.78002 14 8.50002V6.00002H15.79C16.24 6.00002 16.46 5.46002 16.14 5.15002L12.35 1.36002C12.15 1.16002 11.84 1.16002 11.64 1.36002L7.84996 5.15002C7.53996 5.46002 7.75996 6.00002 8.20996 6.00002H9.99996V8.50002C9.99996 8.78002 10.22 9.00002 10.5 9.00002ZM8.49996 10H5.99996V8.21002C5.99996 7.76002 5.45996 7.54002 5.14996 7.86002L1.35996 11.65C1.15996 11.85 1.15996 12.16 1.35996 12.36L5.14996 16.15C5.45996 16.46 5.99996 16.24 5.99996 15.79V14H8.49996C8.77996 14 8.99996 13.78 8.99996 13.5V10.5C8.99996 10.22 8.77996 10 8.49996 10ZM22.65 11.65L18.86 7.86002C18.54 7.54002 18 7.76002 18 8.21002V10H15.5C15.22 10 15 10.22 15 10.5V13.5C15 13.78 15.22 14 15.5 14H18V15.79C18 16.24 18.54 16.46 18.85 16.14L22.64 12.35C22.84 12.16 22.84 11.84 22.65 11.65V11.65ZM13.5 15H10.5C10.22 15 9.99996 15.22 9.99996 15.5V18H8.20996C7.75996 18 7.53996 18.54 7.85996 18.85L11.65 22.64C11.85 22.84 12.16 22.84 12.36 22.64L16.15 18.85C16.46 18.54 16.24 18 15.8 18H14V15.5C14 15.22 13.78 15 13.5 15Z" fill="black"/>
</svg>
