<svg width="24" height="24" viewBox="0 0 24 24" fill="none" xmlns="http://www.w3.org/2000/svg">
<path fill-rule="evenodd" clip-rule="evenodd" d="M6.11 5.56C5.49 5.48 5 4.98 5 4.35V4.26C5 3.56 5.6 2.99 6.3 3.05C8.04 3.2 9.22 3.74 10.48 5L16.9 11.41C16.75 11.49 16.61 11.57 16.49 11.64C16.12 11.87 15.89 12 15.34 12C14.79 12 14.56 11.86 14.19 11.64C13.74 11.37 13.12 11 12.01 11C10.9 11 10.28 11.37 9.82 11.64C9.45 11.87 9.23 12 8.67 12C8.11 12 7.89 11.87 7.52 11.64C7.31 11.52 7.06 11.37 6.75 11.25L10 8L9 7C8.14 6.14 7.3 5.7 6.11 5.56ZM21.35 18.91C21.73 19.04 22 19.36 22 19.77V19.89C22 20.56 21.33 21.02 20.7 20.8C20.33 20.67 20.05 20.5 19.82 20.36C19.45 20.14 19.22 20 18.67 20C18.11 20 17.89 20.13 17.52 20.36C17.06 20.63 16.45 21 15.34 21C14.23 21 13.61 20.63 13.16 20.36C12.79 20.14 12.56 20 12.01 20C11.45 20 11.23 20.13 10.86 20.36C10.4 20.63 9.78 21 8.67 21C7.56 21 6.94 20.63 6.49 20.36C6.12 20.13 5.89 20 5.34 20C4.79 20 4.56 20.13 4.19 20.35C3.95 20.49 3.67 20.66 3.3 20.79C2.66 21.01 2 20.55 2 19.88V19.76C2 19.36 2.27 19.04 2.65 18.91C2.82 18.84 2.97 18.75 3.15 18.64C3.61 18.37 4.23 18 5.34 18C6.45 18 7.07 18.37 7.52 18.64C7.89 18.87 8.11 19 8.67 19C9.23 19 9.45 18.87 9.82 18.64C10.28 18.37 10.9 18 12.01 18C13.12 18 13.74 18.37 14.19 18.64C14.56 18.86 14.79 19 15.34 19C15.89 19 16.12 18.87 16.49 18.64C16.94 18.37 17.56 18 18.67 18C19.78 18 20.4 18.37 20.85 18.64C21.03 18.76 21.18 18.85 21.35 18.91ZM3.11 16.35C2.55 16.51 2 16.07 2 15.49V15.26C2 14.86 2.27 14.54 2.65 14.41C2.82 14.34 2.97 14.25 3.15 14.14C3.6 13.87 4.22 13.5 5.33 13.5C6.44 13.5 7.06 13.87 7.51 14.14C7.88 14.36 8.11 14.5 8.66 14.5C9.22 14.5 9.44 14.37 9.81 14.14C10.26 13.87 10.88 13.5 11.99 13.5C13.1 13.5 13.72 13.87 14.17 14.14C14.54 14.36 14.77 14.5 15.32 14.5C15.87 14.5 16.1 14.37 16.47 14.14C16.92 13.87 17.54 13.5 18.65 13.5C19.76 13.5 20.38 13.87 20.83 14.14C21.02 14.25 21.17 14.34 21.34 14.4C21.71 14.54 21.98 14.86 21.98 15.26V15.38C21.98 16.05 21.3 16.52 20.67 16.29C20.32 16.16 20.05 16 19.82 15.86C19.45 15.64 19.22 15.5 18.67 15.5C18.11 15.5 17.89 15.63 17.52 15.86C17.07 16.13 16.45 16.5 15.34 16.5C14.23 16.5 13.61 16.13 13.16 15.86C12.79 15.64 12.56 15.5 12.01 15.5C11.45 15.5 11.23 15.63 10.86 15.86C10.41 16.13 9.79 16.5 8.68 16.5C7.57 16.5 6.95 16.13 6.5 15.86C6.13 15.64 5.9 15.5 5.35 15.5C4.8 15.5 4.57 15.63 4.2 15.86C3.92 16.02 3.58 16.22 3.11 16.35V16.35ZM16.5 8C15.1193 8 14 6.88071 14 5.5C14 4.11929 15.1193 3 16.5 3C17.8807 3 19 4.11929 19 5.5C19 6.88071 17.8807 8 16.5 8Z" fill="black"/>
</svg>
