<svg width="24" height="24" viewBox="0 0 24 24" fill="none" xmlns="http://www.w3.org/2000/svg">
<path fill-rule="evenodd" clip-rule="evenodd" d="M3 10C3 10.55 3.45 11 4 11H21C21.55 11 22 10.55 22 10C22 9.45 21.55 9 21 9H4C3.45 9 3 9.45 3 10ZM4 15H7C7.55 15 8 14.55 8 14C8 13.45 7.55 13 7 13H4C3.45 13 3 13.45 3 14C3 14.55 3.45 15 4 15ZM11 15H14C14.55 15 15 14.55 15 14C15 13.45 14.55 13 14 13H11C10.45 13 10 13.45 10 14C10 14.55 10.45 15 11 15ZM18 15H21C21.55 15 22 14.55 22 14C22 13.45 21.55 13 21 13H18C17.45 13 17 13.45 17 14C17 14.55 17.45 15 18 15Z" fill="black"/>
</svg>
