<svg width="24" height="24" viewBox="0 0 24 24" fill="none" xmlns="http://www.w3.org/2000/svg">
<path fill-rule="evenodd" clip-rule="evenodd" d="M6.01982 9.64002C6.20982 5.87002 9.36982 2.89002 13.2098 3.00002C16.8198 3.11002 19.8598 6.12002 19.9998 9.74002C20.0998 12.64 18.4398 15.16 15.9998 16.32V20C15.9998 20.55 15.5498 21 14.9998 21H9.99982C9.44982 21 8.99982 20.55 8.99982 20V18H7.99982C6.89982 18 5.99982 17.1 5.99982 16V13H4.49982C4.08982 13 3.84982 12.53 4.09982 12.2L6.01982 9.64002ZM15.9798 10.39C15.9898 10.26 15.9998 10.13 15.9998 10C15.9998 9.86002 15.9898 9.73002 15.9598 9.61002L16.8098 8.95002C16.8898 8.89002 16.9098 8.78002 16.8598 8.69002L16.0598 7.31002C16.0198 7.22002 15.9098 7.19002 15.8198 7.22002L14.8198 7.62002C14.6098 7.46002 14.3898 7.33002 14.1498 7.23002L13.9998 6.17002C13.9798 6.07002 13.8998 6.00002 13.7998 6.00002H12.1998C12.0998 6.00002 12.0198 6.07002 11.9998 6.17002L11.8498 7.23002C11.6098 7.33002 11.3798 7.47002 11.1798 7.62002L10.1798 7.22002C10.0898 7.19002 9.98982 7.22002 9.93982 7.31002L9.13982 8.69002C9.08982 8.79002 9.10982 8.89002 9.18982 8.95002L10.0398 9.61002C10.0198 9.73002 9.99982 9.87002 9.99982 10C9.99982 10.13 10.0098 10.26 10.0198 10.39L9.17982 11.05C9.09982 11.11 9.07982 11.22 9.12982 11.3L9.92982 12.69C9.97983 12.78 10.0898 12.81 10.1798 12.78L11.1698 12.38C11.3798 12.54 11.5998 12.67 11.8498 12.77L11.9998 13.83C12.0198 13.93 12.0998 14 12.1998 14H13.7998C13.8998 14 13.9898 13.93 13.9998 13.83L14.1598 12.77C14.3998 12.67 14.6198 12.54 14.8298 12.38L15.8198 12.78C15.8998 12.81 16.0098 12.78 16.0598 12.69L16.8598 11.3C16.9098 11.21 16.8898 11.11 16.8098 11.05L15.9798 10.39ZM11.5698 10.0001C11.5698 9.21007 12.2098 8.57007 12.9998 8.57007C13.7898 8.57007 14.4298 9.21007 14.4298 10.0001C14.4298 10.7901 13.7898 11.4301 12.9998 11.4301C12.2098 11.4301 11.5698 10.7901 11.5698 10.0001Z" fill="black"/>
</svg>
