<svg width="24" height="24" viewBox="0 0 24 24" fill="none" xmlns="http://www.w3.org/2000/svg">
<path fill-rule="evenodd" clip-rule="evenodd" d="M6.55996 7.97999C6.09996 7.51999 5.30996 7.59999 4.99996 8.16999C4.71996 8.67999 4.49996 9.19999 4.32996 9.74999C4.13996 10.38 4.63996 11 5.28996 11H5.29996C5.72996 11 6.11996 10.72 6.23996 10.3C6.35996 9.89999 6.51996 9.50999 6.71996 9.12999C6.93996 8.75999 6.86996 8.28999 6.55996 7.97999V7.97999ZM5.30996 13H5.28996C4.63996 13 4.13996 13.62 4.32996 14.25C4.48996 14.79 4.70996 15.32 4.98996 15.83C5.29996 16.4 6.09996 16.49 6.55996 16.03C6.85996 15.72 6.93996 15.26 6.72996 14.88C6.52996 14.51 6.36996 14.12 6.24996 13.72C6.12996 13.28 5.73996 13 5.30996 13V13ZM8.15996 19.02C8.66996 19.3 9.19996 19.52 9.74996 19.68C10.37 19.86 10.99 19.36 10.99 18.72V18.69C10.99 18.26 10.71 17.87 10.29 17.75C9.88996 17.63 9.50996 17.47 9.13996 17.27C8.75996 17.06 8.27996 17.13 7.97996 17.44L7.94996 17.47C7.49996 17.92 7.58996 18.71 8.15996 19.02ZM13 4.06999V3.40999C13 2.51999 11.92 2.06999 11.29 2.69999L9.16996 4.82999C8.76996 5.22999 8.76996 5.86999 9.16996 6.25999L11.3 8.33999C11.93 8.95999 13 8.50999 13 7.61999V6.08999C15.84 6.56999 18 9.02999 18 12C18 14.73 16.18 17.02 13.68 17.75C13.27 17.87 13 18.26 13 18.69V18.71C13 19.36 13.61 19.85 14.23 19.67C17.57 18.71 20 15.64 20 12C20 7.91999 16.95 4.55999 13 4.06999Z" fill="black"/>
</svg>
