<svg width="24" height="24" viewBox="0 0 24 24" fill="none" xmlns="http://www.w3.org/2000/svg">
<path fill-rule="evenodd" clip-rule="evenodd" d="M15.5 16H3.5C2.67 16 2 16.67 2 17.5C2 18.33 2.67 19 3.5 19H15.5C16.33 19 17 18.33 17 17.5C17 16.67 16.33 16 15.5 16ZM18.85 7.73C19.47 7.12 19.85 6.28 19.85 5.35C19.85 3.84 18.85 2.56 17.47 2.14C16.99 2 16.5 2.36 16.5 2.86C16.5 3.19 16.71 3.48 17.02 3.57C17.79 3.8 18.35 4.51 18.35 5.35C18.35 6.17 17.82 6.86 17.08 7.11C16.75 7.22 16.5 7.5 16.5 7.85V8C16.5 8.37 16.77 8.69 17.14 8.75C19.07 9.06 20.5 10.75 20.5 12.77V14.25C20.5 14.66 20.84 15 21.25 15C21.66 15 22 14.66 22 14.25V12.76C22 10.54 20.72 8.62 18.85 7.73V7.73ZM16.03 10.2H14.73C13.71 10.2 12.79 9.47 12.66 8.45C12.54 7.5 13.12 6.75 13.96 6.52C14.28 6.43 14.5 6.14 14.5 5.8C14.5 5.31 14.04 4.94 13.57 5.08C12.15 5.49 11.12 6.81 11.15 8.36C11.18 10.2 12.77 11.65 14.61 11.65H16.03C17.08 11.65 18 12.39 18 13.7V14.25C18 14.66 18.33 15 18.75 15H18.76C19.17 15 19.51 14.67 19.51 14.25V13.36C19.5 11.55 17.9 10.2 16.03 10.2ZM18 16H19.5V19H18V16ZM20.5 16H22V19H20.5V16Z" fill="black"/>
</svg>
