<svg width="24" height="24" viewBox="0 0 24 24" fill="none" xmlns="http://www.w3.org/2000/svg">
<path fill-rule="evenodd" clip-rule="evenodd" d="M11 2.05005V11.42L8 13.16V2.84005C8.93 2.43005 9.94 2.16005 11 2.05005ZM2 12C2 8.73001 3.58 5.84001 6 4.01001V14.31L2.89 16.11C2.32 14.85 2 13.46 2 12ZM12.0001 13.1501L3.89014 17.8301C4.50014 18.6701 5.23014 19.4201 6.07014 20.0301L15.0001 14.8901L12.0001 13.1501ZM13 11.42V7.95996L21.93 13.12C21.81 14.17 21.53 15.17 21.11 16.1L13 11.42ZM8.06982 21.2C9.27982 21.71 10.5998 22 11.9998 22C15.3398 22 18.2898 20.35 20.1098 17.84L16.9998 16.04L8.06982 21.2ZM13 2.05005C17.66 2.51005 21.37 6.18005 21.92 10.81L13 5.65005V2.05005Z" fill="black"/>
</svg>
