<svg width="24" height="24" viewBox="0 0 24 24" fill="none" xmlns="http://www.w3.org/2000/svg">
<path fill-rule="evenodd" clip-rule="evenodd" d="M11.23 6H21C21.55 6 22 6.45 22 7V9C22 9.55 21.56 10 20.69 10.01H17.93C17.32 10.01 16.85 10.54 16.94 11.14C17.03 11.8 17.03 12.49 16.88 13.2C16.37 15.71 14.24 17.69 11.69 17.97C7.96 18.38 4.83 15.38 5.01 11.7C5.02 11.43 5.06 11.17 5.11 10.92C4.91 10.97 4.71 11 4.5 11C3.12 11 2 9.88 2 8.5C2 7.12 3.12 6 4.5 6C5.61 6 6.54 6.73 6.87 7.73C8.01 6.66 9.57 6 11.23 6ZM4 8.5C4 8.78 4.22 9 4.5 9C4.78 9 5 8.78 5 8.5C5 8.22 4.78 8 4.5 8C4.22 8 4 8.22 4 8.5ZM8 12C8 13.66 9.34 15 11 15C12.66 15 14 13.66 14 12C14 10.34 12.66 9 11 9C9.34 9 8 10.34 8 12ZM13 12C13 13.1046 12.1046 14 11 14C9.89543 14 9 13.1046 9 12C9 10.8954 9.89543 10 11 10C12.1046 10 13 10.8954 13 12Z" fill="black"/>
</svg>
