<svg width="24" height="24" viewBox="0 0 24 24" fill="none" xmlns="http://www.w3.org/2000/svg">
<path fill-rule="evenodd" clip-rule="evenodd" d="M9.97006 3.54996C12.9001 0.619957 17.1801 0.149958 19.5201 2.48996C21.8601 4.82996 21.3801 9.10996 18.4501 12.03C16.8501 13.63 14.5701 14.55 12.9901 14.57C12.7783 14.5726 12.5534 14.5699 12.3189 14.5671C10.8034 14.5489 8.88428 14.5257 7.49006 15.92L3.96006 19.46C3.56006 19.85 2.93006 19.85 2.54006 19.46C2.15006 19.06 2.15006 18.43 2.54006 18.04L6.08006 14.51C7.47428 13.1157 7.45116 11.1966 7.43291 9.68114C7.43009 9.44659 7.42738 9.22172 7.43006 9.00996C7.45006 7.41996 8.37006 5.14996 9.97006 3.54996ZM11.3801 4.95996C9.27006 7.06996 8.79006 10.15 10.3201 11.68C11.8601 13.21 14.9301 12.73 17.0401 10.62C19.1501 8.50996 19.6301 5.42996 18.1001 3.89996C16.5601 2.36996 13.4901 2.84996 11.3801 4.95996ZM19.41 17.59C19.04 17.21 18.53 17 18 17C17.47 17 16.96 17.21 16.59 17.58C15.81 18.36 15.81 19.63 16.59 20.41C16.96 20.79 17.47 21 18 21C18.53 21 19.04 20.79 19.41 20.42C20.19 19.64 20.19 18.37 19.41 17.59ZM15.17 16.17C15.95 15.39 16.98 15 18 15C19.02 15 20.05 15.39 20.83 16.17C22.39 17.74 22.39 20.27 20.83 21.83C20.05 22.61 19.02 23 18 23C16.98 23 15.95 22.61 15.17 21.83C13.61 20.26 13.61 17.73 15.17 16.17Z" fill="black"/>
</svg>
