<svg width="24" height="24" viewBox="0 0 24 24" fill="none" xmlns="http://www.w3.org/2000/svg">
<path fill-rule="evenodd" clip-rule="evenodd" d="M14 4C14 5.10457 13.1046 6 12 6C10.8954 6 10 5.10457 10 4C10 2.89543 10.8954 2 12 2C13.1046 2 14 2.89543 14 4ZM10.05 8.5901L6.02999 4.5501H6.01999L5.70999 4.2301L4.28999 5.6401L8.30999 9.6901L8.31999 9.6801L8.62999 10.0001L10.05 8.5901ZM13.943 8.6171L18.348 4.2251L19.76 5.6401L15.355 10.0331L13.943 8.6171ZM10.01 15.3601L8.58999 13.9501L4.55999 17.9601L4.23999 18.2901L5.64999 19.7001L9.67999 15.6801L10.01 15.3601ZM19.76 18.3001L15.77 14.2901L15.41 13.9401L14 15.3501L17.99 19.3601L18.34 19.7101L19.76 18.3001ZM4 14C5.10457 14 6 13.1046 6 12C6 10.8954 5.10457 10 4 10C2.89543 10 2 10.8954 2 12C2 13.1046 2.89543 14 4 14ZM20 14C21.1046 14 22 13.1046 22 12C22 10.8954 21.1046 10 20 10C18.8954 10 18 10.8954 18 12C18 13.1046 18.8954 14 20 14ZM14 20C14 21.1046 13.1046 22 12 22C10.8954 22 10 21.1046 10 20C10 18.8954 10.8954 18 12 18C13.1046 18 14 18.8954 14 20Z" fill="black"/>
</svg>
