<svg width="24" height="24" viewBox="0 0 24 24" fill="none" xmlns="http://www.w3.org/2000/svg">
<path fill-rule="evenodd" clip-rule="evenodd" d="M10 5.74V5.55C10 4.87 9.29 4.44 8.68 4.73C8.49 4.82 8.32 4.93 8.14 5.03L9.6 6.49C9.84 6.31 10 6.04 10 5.74ZM20 12C20 9.79 19.09 7.8 17.64 6.36L19.15 4.85C19.46 4.54 19.24 4 18.79 4H14V8.79C14 9.24 14.54 9.46 14.85 9.14L16.24 7.75C17.32 8.85 18 10.34 18 12C18 12.85 17.82 13.66 17.5 14.39L18.98 15.87C19.62 14.72 20 13.41 20 12ZM3.57 4.7C3.18 5.09 3.18 5.72 3.57 6.11L5.22 7.76C4.45 9 4 10.44 4 12C4 14.21 4.91 16.2 6.36 17.64L4.85 19.15C4.54 19.46 4.76 20 5.21 20H9.5C9.78 20 10 19.78 10 19.5V15.21C10 14.76 9.46 14.54 9.15 14.86L7.76 16.25C6.68 15.15 6 13.66 6 12C6 11 6.26 10.07 6.69 9.24L14.76 17.31C14.75 17.33 14.75 17.33 14.75 17.35C14.32 17.47 14 17.83 14 18.26V18.44C14 19.12 14.71 19.55 15.32 19.26C15.63 19.12 15.93 18.95 16.22 18.77L18.09 20.64C18.48 21.03 19.11 21.03 19.5 20.64C19.89 20.25 19.89 19.62 19.5 19.23L4.98 4.7C4.59 4.31 3.96 4.31 3.57 4.7Z" fill="black"/>
</svg>
