<svg width="24" height="24" viewBox="0 0 24 24" fill="none" xmlns="http://www.w3.org/2000/svg">
<path d="M20.49 20.49L3.51 3.51001C3.12 3.12001 2.49 3.12001 2.1 3.51001C1.71 3.90001 1.71 4.53001 2.1 4.92001L4.41 7.23001C3.57 8.56001 3.05 10.09 3 11.74C2.86 16.83 6.94 21 12 21C13.76 21 15.39 20.48 16.78 19.61L19.07 21.9C19.46 22.29 20.09 22.29 20.48 21.9C20.88 21.51 20.88 20.88 20.49 20.49ZM10.72 18.89C7.94 18.4 5.68 16.18 5.14 13.42C4.8 11.7 5.11 10.06 5.86 8.69001L15.32 18.15C13.98 18.87 12.4 19.18 10.72 18.89ZM13 8.00001V10.17L11 8.17001V8.00001C11 7.45001 11.45 7.00001 12 7.00001C12.55 7.00001 13 7.45001 13 8.00001ZM20.72 14.23C20.49 15.15 20.11 16 19.62 16.78L18.15 15.31C18.42 14.81 18.64 14.28 18.78 13.72C18.89 13.3 19.29 13 19.73 13C20.38 13 20.88 13.61 20.72 14.23ZM7.24 4.41001C8.7 3.48001 10.42 2.96001 12.24 3.00001C14.89 3.07001 17.24 4.28001 18.84 6.16001L20.15 4.85001C20.46 4.54001 21 4.76001 21 5.21001V9.50001C21 9.78001 20.78 10 20.5 10H16.21C15.76 10 15.54 9.46001 15.86 9.15001L17.41 7.60001C16.12 6.02001 14.18 5.00001 12 5.00001C10.8 5.00001 9.67 5.31001 8.68 5.85001L7.24 4.41001Z" fill="black"/>
</svg>
