<svg width="24" height="24" viewBox="0 0 24 24" fill="none" xmlns="http://www.w3.org/2000/svg">
<path fill-rule="evenodd" clip-rule="evenodd" d="M20.06 10.14C20.62 10.6 21.44 10.56 21.95 10.05C22.54 9.45999 22.5 8.47999 21.85 7.94999C18.26 5.00999 13.65 3.91999 9.29997 4.68999L11.89 7.27999C14.78 7.24999 17.69 8.19999 20.06 10.14ZM17.79 11.97C17.01 11.4 16.16 10.97 15.27 10.67L18.22 13.62C18.46 13.04 18.32 12.35 17.79 11.97ZM13.95 16.23C12.73 15.6 11.27 15.6 10.04 16.23C9.44998 16.54 9.33997 17.35 9.80997 17.82L11.28 19.29C11.67 19.68 12.3 19.68 12.69 19.29L14.16 17.82C14.65 17.35 14.55 16.54 13.95 16.23ZM19.68 17.9L4.11998 2.33999C3.72997 1.94999 3.09997 1.94999 2.70998 2.33999C2.31998 2.72999 2.31998 3.35999 2.70998 3.74999L5.04998 6.09999C4.03998 6.59999 3.05998 7.20999 2.15998 7.94999C1.50998 8.47999 1.46998 9.45998 2.05998 10.05C2.56998 10.56 3.37997 10.61 3.92998 10.15C4.92998 9.32999 6.02997 8.68999 7.17998 8.21999L9.40998 10.45C8.27997 10.75 7.19998 11.25 6.21997 11.96C5.52997 12.46 5.48997 13.47 6.08997 14.07L6.09998 14.08C6.58997 14.57 7.35997 14.62 7.92998 14.21C9.11998 13.37 10.51 12.95 11.9 12.92L18.27 19.29C18.66 19.68 19.29 19.68 19.68 19.29C20.07 18.92 20.07 18.29 19.68 17.9Z" fill="black"/>
</svg>
