<svg width="415" height="183" viewBox="0 0 415 183" fill="none" xmlns="http://www.w3.org/2000/svg">
<path d="M130.432 79.2702C132.775 81.6133 132.775 85.4123 130.432 87.7555L87.8609 130.327C85.5178 132.67 81.7188 132.67 79.3756 130.327L52.5855 103.537C50.2423 101.193 50.2423 97.3944 52.5855 95.0513L95.1568 52.48C97.4999 50.1369 101.299 50.1369 103.642 52.48L130.432 79.2702Z" fill="white"/>
<path d="M140.432 87.7555C142.775 85.4123 142.775 81.6133 140.432 79.2702L120.733 59.5714L127.825 52.48C130.168 50.1369 133.967 50.1369 136.31 52.48L163.1 79.2702C165.443 81.6133 165.443 85.4123 163.1 87.7555L120.529 130.327C118.186 132.67 114.387 132.67 112.043 130.327L104.952 123.235L140.432 87.7555Z" fill="white"/>
<path d="M210.078 94.3998C212.339 94.8215 214.198 95.9522 215.655 97.7921C217.111 99.6319 217.84 101.74 217.84 104.117C217.84 106.263 217.303 108.16 216.23 109.809C215.195 111.419 213.681 112.683 211.688 113.603C209.695 114.523 207.337 114.983 204.616 114.983H187.31V74.8513H203.868C206.59 74.8513 208.928 75.2921 210.883 76.1737C212.876 77.0553 214.371 78.2819 215.367 79.8535C216.402 81.425 216.92 83.2074 216.92 85.2005C216.92 87.5387 216.287 89.4935 215.022 91.0651C213.796 92.6366 212.148 93.7482 210.078 94.3998ZM195.359 91.4101H202.718C204.635 91.4101 206.111 90.9884 207.146 90.1452C208.18 89.2636 208.698 88.0178 208.698 86.408C208.698 84.7981 208.18 83.5523 207.146 82.6707C206.111 81.7891 204.635 81.3483 202.718 81.3483H195.359V91.4101ZM203.466 108.429C205.421 108.429 206.935 107.969 208.008 107.049C209.12 106.129 209.675 104.826 209.675 103.139C209.675 101.414 209.1 100.073 207.95 99.1145C206.801 98.1179 205.248 97.6196 203.293 97.6196H195.359V108.429H203.466Z" fill="white"/>
<path d="M236.099 115.501C233.033 115.501 230.273 114.83 227.82 113.488C225.367 112.108 223.431 110.173 222.013 107.681C220.633 105.19 219.943 102.315 219.943 99.057C219.943 95.7989 220.652 92.9241 222.07 90.4326C223.527 87.9412 225.501 86.0246 227.992 84.6831C230.484 83.3032 233.263 82.6132 236.329 82.6132C239.395 82.6132 242.174 83.3032 244.666 84.6831C247.157 86.0246 249.112 87.9412 250.53 90.4326C251.987 92.9241 252.715 95.7989 252.715 99.057C252.715 102.315 251.968 105.19 250.473 107.681C249.016 110.173 247.023 112.108 244.493 113.488C242.002 114.83 239.204 115.501 236.099 115.501ZM236.099 108.486C237.556 108.486 238.916 108.141 240.181 107.451C241.484 106.723 242.519 105.65 243.286 104.232C244.053 102.813 244.436 101.088 244.436 99.057C244.436 96.0289 243.631 93.7099 242.021 92.1C240.45 90.4518 238.514 89.6277 236.214 89.6277C233.914 89.6277 231.979 90.4518 230.407 92.1C228.874 93.7099 228.107 96.0289 228.107 99.057C228.107 102.085 228.855 104.423 230.35 106.071C231.883 107.681 233.799 108.486 236.099 108.486Z" fill="white"/>
<path d="M264.369 88.0753C265.404 86.3888 266.746 85.0664 268.394 84.1081C270.081 83.1499 271.997 82.6707 274.144 82.6707V91.1226H272.016C269.486 91.1226 267.57 91.7167 266.267 92.905C265.002 94.0932 264.369 96.163 264.369 99.1145V114.983H256.32V83.1307H264.369V88.0753Z" fill="white"/>
<path d="M275.196 98.942C275.196 95.7222 275.828 92.8666 277.093 90.3751C278.396 87.8837 280.159 85.9671 282.383 84.6256C284.606 83.284 287.078 82.6132 289.799 82.6132C291.869 82.6132 293.843 83.0732 295.722 83.9931C297.6 84.8747 299.095 86.063 300.206 87.5579V72.4365H308.371V114.983H300.206V110.269C299.21 111.84 297.811 113.105 296.009 114.063C294.207 115.022 292.118 115.501 289.742 115.501C287.059 115.501 284.606 114.811 282.383 113.431C280.159 112.051 278.396 110.115 277.093 107.624C275.828 105.094 275.196 102.2 275.196 98.942ZM300.264 99.057C300.264 97.1021 299.88 95.4348 299.114 94.0549C298.347 92.6366 297.312 91.5634 296.009 90.8351C294.706 90.0685 293.307 89.6852 291.812 89.6852C290.317 89.6852 288.937 90.0493 287.672 90.7776C286.407 91.5059 285.372 92.5791 284.567 93.9974C283.801 95.3773 283.417 97.0255 283.417 98.942C283.417 100.859 283.801 102.545 284.567 104.002C285.372 105.42 286.407 106.512 287.672 107.279C288.975 108.045 290.355 108.429 291.812 108.429C293.307 108.429 294.706 108.065 296.009 107.336C297.312 106.57 298.347 105.496 299.114 104.117C299.88 102.698 300.264 101.012 300.264 99.057Z" fill="white"/>
<path d="M343.543 98.367C343.543 99.5169 343.466 100.552 343.313 101.472H320.027C320.219 103.772 321.023 105.573 322.442 106.876C323.86 108.18 325.604 108.831 327.674 108.831C330.664 108.831 332.791 107.547 334.056 104.979H342.738C341.818 108.045 340.055 110.575 337.448 112.568C334.842 114.523 331.641 115.501 327.846 115.501C324.78 115.501 322.02 114.83 319.567 113.488C317.152 112.108 315.255 110.173 313.875 107.681C312.533 105.19 311.863 102.315 311.863 99.057C311.863 95.7606 312.533 92.8666 313.875 90.3751C315.216 87.8837 317.095 85.9671 319.509 84.6256C321.924 83.284 324.703 82.6132 327.846 82.6132C330.874 82.6132 333.577 83.2649 335.953 84.5681C338.368 85.8713 340.227 87.7303 341.53 90.1452C342.872 92.5216 343.543 95.2623 343.543 98.367ZM335.206 96.0672C335.167 93.9974 334.42 92.3492 332.963 91.1226C331.507 89.8577 329.724 89.2252 327.616 89.2252C325.623 89.2252 323.937 89.8385 322.557 91.0651C321.215 92.2533 320.391 93.9207 320.084 96.0672H335.206Z" fill="white"/>
<path d="M355.167 88.0753C356.202 86.3888 357.544 85.0664 359.192 84.1081C360.879 83.1499 362.795 82.6707 364.942 82.6707V91.1226H362.814C360.285 91.1226 358.368 91.7167 357.065 92.905C355.8 94.0932 355.167 96.163 355.167 99.1145V114.983H347.118V83.1307H355.167V88.0753Z" fill="white"/>
</svg>
