<svg width="607" height="192" viewBox="0 0 607 192" fill="none" xmlns="http://www.w3.org/2000/svg">
<path d="M137.027 112.657C155.863 102.089 179.695 108.633 190.494 127.337L174.242 136.72C155.32 147.645 131.119 141.025 120.392 121.99L137.027 112.657Z" fill="white"/>
<path d="M130.136 105.249C140.896 86.6112 164.728 80.2255 183.365 90.9858L173.624 107.859C162.863 126.496 139.032 132.882 120.395 122.122L130.136 105.249Z" fill="white" fill-opacity="0.8"/>
<path d="M119.552 103.443C119.552 80.8395 137.876 62.5156 160.479 62.5156V81.615C160.479 104.219 142.155 122.542 119.552 122.542V103.443Z" fill="white" fill-opacity="0.8"/>
<path d="M109.896 104.221C99.1357 85.584 105.521 61.7525 124.159 50.9922L133.9 67.8652C144.661 86.5025 138.275 110.334 119.638 121.094L109.896 104.221Z" fill="white" fill-opacity="0.8"/>
<path d="M119.552 100.715C119.552 79.6179 102.45 62.5156 81.3535 62.5156V84.3435C81.3535 105.44 98.4557 122.542 119.552 122.542V100.715Z" fill="white" fill-opacity="0.8"/>
<path d="M111.33 105.249C100.57 86.6112 76.738 80.2255 58.1006 90.9858L67.8422 107.859C78.6025 126.496 102.434 132.882 121.071 122.122L111.33 105.249Z" fill="white" fill-opacity="0.8"/>
<path d="M104.438 112.657C85.6025 102.089 61.7706 108.633 50.9717 127.337L67.2233 136.72C86.1457 147.645 110.347 141.025 121.074 121.99L104.438 112.657Z" fill="white"/>
<path d="M259.945 77.2039V119.504H251.461V91.9906L240.128 119.504H233.704L222.311 91.9906V119.504H213.827V77.2039H223.463L236.916 108.656L250.37 77.2039H259.945Z" fill="white"/>
<path d="M270.212 81.9308C268.717 81.9308 267.464 81.4662 266.454 80.537C265.485 79.5674 265 78.3755 265 76.9615C265 75.5475 265.485 74.3758 266.454 73.4466C267.464 72.477 268.717 71.9922 270.212 71.9922C271.706 71.9922 272.939 72.477 273.908 73.4466C274.918 74.3758 275.423 75.5475 275.423 76.9615C275.423 78.3755 274.918 79.5674 273.908 80.537C272.939 81.4662 271.706 81.9308 270.212 81.9308ZM274.393 85.9305V119.504H265.909V85.9305H274.393Z" fill="white"/>
<path d="M298.956 85.4457C302.956 85.4457 306.188 86.7183 308.652 89.2636C311.117 91.7684 312.349 95.2833 312.349 99.8082V119.504H303.865V100.96C303.865 98.2932 303.198 96.2529 301.865 94.8389C300.532 93.3845 298.714 92.6573 296.411 92.6573C294.067 92.6573 292.209 93.3845 290.835 94.8389C289.502 96.2529 288.836 98.2932 288.836 100.96V119.504H280.351V85.9305H288.836V90.112C289.967 88.6576 291.401 87.5263 293.138 86.7183C294.916 85.8699 296.855 85.4457 298.956 85.4457Z" fill="white"/>
<path d="M315.811 102.596C315.811 99.2022 316.478 96.1923 317.811 93.5663C319.185 90.9402 321.043 88.9202 323.386 87.5061C325.73 86.0921 328.336 85.3851 331.204 85.3851C333.386 85.3851 335.466 85.8699 337.446 86.8395C339.426 87.7687 341.001 89.0212 342.173 90.5968V74.6587H350.778V119.504H342.173V114.534C341.122 116.191 339.648 117.524 337.749 118.534C335.85 119.544 333.648 120.049 331.143 120.049C328.315 120.049 325.73 119.322 323.386 117.867C321.043 116.413 319.185 114.373 317.811 111.747C316.478 109.08 315.811 106.03 315.811 102.596ZM342.233 102.717C342.233 100.657 341.829 98.8992 341.021 97.4448C340.213 95.9499 339.123 94.8187 337.749 94.0511C336.375 93.2431 334.901 92.8391 333.325 92.8391C331.749 92.8391 330.295 93.2229 328.962 93.9905C327.628 94.7581 326.538 95.8893 325.689 97.3842C324.881 98.8386 324.477 100.576 324.477 102.596C324.477 104.616 324.881 106.394 325.689 107.929C326.538 109.424 327.628 110.575 328.962 111.383C330.335 112.191 331.79 112.595 333.325 112.595C334.901 112.595 336.375 112.211 337.749 111.444C339.123 110.636 340.213 109.504 341.021 108.05C341.829 106.555 342.233 104.778 342.233 102.717Z" fill="white"/>
<path d="M372.033 92.8997H366.155V119.504H357.549V92.8997H353.732V85.9305H357.549V84.2337C357.549 80.1128 358.721 77.0827 361.064 75.1435C363.408 73.2042 366.943 72.2952 371.67 72.4164V79.5674C369.609 79.527 368.175 79.8704 367.367 80.5976C366.559 81.3248 366.155 82.6378 366.155 84.5367V85.9305H372.033V92.8997Z" fill="white"/>
<path d="M406.802 85.9305V119.504H398.257V115.262C397.166 116.716 395.732 117.867 393.954 118.716C392.217 119.524 390.318 119.928 388.258 119.928C385.632 119.928 383.309 119.382 381.289 118.292C379.269 117.16 377.673 115.524 376.501 113.383C375.37 111.201 374.804 108.616 374.804 105.626V85.9305H383.288V104.414C383.288 107.08 383.955 109.141 385.288 110.595C386.622 112.009 388.44 112.716 390.742 112.716C393.086 112.716 394.924 112.009 396.257 110.595C397.59 109.141 398.257 107.08 398.257 104.414V85.9305H406.802Z" fill="white"/>
<path d="M421.233 74.6587V119.504H412.749V74.6587H421.233Z" fill="white"/>
<path d="M445.796 85.4457C449.796 85.4457 453.028 86.7183 455.492 89.2636C457.957 91.7684 459.189 95.2833 459.189 99.8082V119.504H450.705V100.96C450.705 98.2932 450.038 96.2529 448.705 94.8389C447.372 93.3845 445.554 92.6573 443.251 92.6573C440.907 92.6573 439.049 93.3845 437.675 94.8389C436.342 96.2529 435.676 98.2932 435.676 100.96V119.504H427.191V85.9305H435.676V90.112C436.807 88.6576 438.241 87.5263 439.978 86.7183C441.756 85.8699 443.695 85.4457 445.796 85.4457Z" fill="white"/>
<path d="M496.043 101.99C496.043 103.202 495.962 104.293 495.8 105.262H471.257C471.459 107.686 472.307 109.585 473.802 110.959C475.297 112.333 477.135 113.019 479.317 113.019C482.468 113.019 484.71 111.666 486.043 108.959H495.194C494.225 112.191 492.366 114.858 489.619 116.958C486.872 119.019 483.498 120.049 479.498 120.049C476.266 120.049 473.357 119.342 470.772 117.928C468.227 116.474 466.227 114.433 464.772 111.807C463.358 109.181 462.651 106.151 462.651 102.717C462.651 99.2426 463.358 96.1923 464.772 93.5663C466.186 90.9402 468.166 88.9202 470.711 87.5061C473.256 86.0921 476.186 85.3851 479.498 85.3851C482.69 85.3851 485.538 86.0719 488.043 87.4455C490.588 88.8192 492.548 90.7786 493.922 93.3239C495.336 95.8287 496.043 98.7174 496.043 101.99ZM487.255 99.5658C487.215 97.3842 486.427 95.6469 484.892 94.3541C483.357 93.0209 481.478 92.3543 479.256 92.3543C477.155 92.3543 475.377 93.0007 473.923 94.2935C472.509 95.5459 471.64 97.3034 471.317 99.5658H487.255Z" fill="white"/>
<path d="M512.659 120.049C509.911 120.049 507.447 119.564 505.265 118.595C503.084 117.585 501.346 116.231 500.054 114.534C498.801 112.838 498.114 110.959 497.993 108.898H506.538C506.7 110.191 507.326 111.262 508.417 112.11C509.548 112.959 510.942 113.383 512.598 113.383C514.214 113.383 515.467 113.06 516.355 112.413C517.285 111.767 517.749 110.939 517.749 109.929C517.749 108.838 517.184 108.03 516.052 107.505C514.962 106.939 513.204 106.333 510.78 105.687C508.275 105.081 506.215 104.454 504.599 103.808C503.023 103.161 501.649 102.172 500.478 100.838C499.347 99.5052 498.781 97.7074 498.781 95.4449C498.781 93.5865 499.306 91.8896 500.357 90.3544C501.447 88.8192 502.983 87.6071 504.962 86.7183C506.982 85.8295 509.346 85.3851 512.053 85.3851C516.052 85.3851 519.244 86.3951 521.628 88.4152C524.011 90.3948 525.324 93.0815 525.567 96.4751H517.446C517.325 95.1419 516.759 94.0915 515.749 93.3239C514.78 92.5159 513.467 92.1118 511.81 92.1118C510.275 92.1118 509.083 92.3947 508.235 92.9603C507.427 93.5259 507.023 94.3137 507.023 95.3237C507.023 96.4549 507.588 97.3236 508.72 97.9296C509.851 98.4952 511.608 99.081 513.992 99.687C516.416 100.293 518.416 100.919 519.991 101.566C521.567 102.212 522.921 103.222 524.052 104.596C525.223 105.929 525.829 107.707 525.87 109.929C525.87 111.868 525.324 113.605 524.234 115.14C523.183 116.676 521.648 117.888 519.628 118.776C517.648 119.625 515.325 120.049 512.659 120.049Z" fill="white"/>
<path d="M543.258 120.049C540.51 120.049 538.046 119.564 535.864 118.595C533.683 117.585 531.945 116.231 530.653 114.534C529.4 112.838 528.713 110.959 528.592 108.898H537.137C537.299 110.191 537.925 111.262 539.016 112.11C540.147 112.959 541.541 113.383 543.197 113.383C544.813 113.383 546.066 113.06 546.954 112.413C547.884 111.767 548.348 110.939 548.348 109.929C548.348 108.838 547.783 108.03 546.651 107.505C545.56 106.939 543.803 106.333 541.379 105.687C538.874 105.081 536.814 104.454 535.198 103.808C533.622 103.161 532.248 102.172 531.077 100.838C529.946 99.5052 529.38 97.7074 529.38 95.4449C529.38 93.5865 529.905 91.8896 530.956 90.3544C532.046 88.8192 533.582 87.6071 535.561 86.7183C537.581 85.8295 539.945 85.3851 542.652 85.3851C546.651 85.3851 549.843 86.3951 552.227 88.4152C554.61 90.3948 555.923 93.0815 556.166 96.4751H548.045C547.924 95.1419 547.358 94.0915 546.348 93.3239C545.379 92.5159 544.066 92.1118 542.409 92.1118C540.874 92.1118 539.682 92.3947 538.834 92.9603C538.026 93.5259 537.622 94.3137 537.622 95.3237C537.622 96.4549 538.187 97.3236 539.319 97.9296C540.45 98.4952 542.207 99.081 544.591 99.687C547.015 100.293 549.015 100.919 550.59 101.566C552.166 102.212 553.52 103.222 554.651 104.596C555.822 105.929 556.428 107.707 556.469 109.929C556.469 111.868 555.923 113.605 554.833 115.14C553.782 116.676 552.247 117.888 550.227 118.776C548.247 119.625 545.924 120.049 543.258 120.049Z" fill="white"/>
</svg>
