<svg width="492" height="191" viewBox="0 0 492 191" fill="none" xmlns="http://www.w3.org/2000/svg">
<path d="M166.503 74.1182C170.222 74.1182 173.441 74.7379 176.16 75.9775C178.919 77.217 181.038 78.9764 182.517 81.2555C183.997 83.5347 184.737 86.2337 184.737 89.3525C184.737 92.4314 183.997 95.1304 182.517 97.4496C181.038 99.7287 178.919 101.488 176.16 102.728C173.441 103.927 170.222 104.527 166.503 104.527H158.046V116.103H148.33V74.1182H166.503ZM165.964 96.6099C168.882 96.6099 171.102 95.9901 172.621 94.7506C174.141 93.471 174.9 91.6717 174.9 89.3525C174.9 86.9934 174.141 85.1941 172.621 83.9545C171.102 82.675 168.882 82.0352 165.964 82.0352H158.046V96.6099H165.964Z" fill="white"/>
<path d="M196.952 88.093C198.071 86.5336 199.571 85.354 201.45 84.5543C203.369 83.7546 205.568 83.3548 208.047 83.3548V91.9916C207.008 91.9116 206.308 91.8716 205.948 91.8716C203.269 91.8716 201.17 92.6313 199.651 94.1508C198.131 95.6302 197.371 97.8694 197.371 100.868V116.103H188.015V83.8346H196.952V88.093Z" fill="white"/>
<path d="M225.673 116.583C222.275 116.583 219.216 115.883 216.497 114.483C213.818 113.044 211.719 111.065 210.199 108.545C208.68 106.026 207.92 103.167 207.92 99.9686C207.92 96.7698 208.68 93.9109 210.199 91.3918C211.719 88.8727 213.818 86.9134 216.497 85.514C219.216 84.0745 222.275 83.3548 225.673 83.3548C229.072 83.3548 232.111 84.0745 234.79 85.514C237.469 86.9134 239.568 88.8727 241.088 91.3918C242.607 93.9109 243.367 96.7698 243.367 99.9686C243.367 103.167 242.607 106.026 241.088 108.545C239.568 111.065 237.469 113.044 234.79 114.483C232.111 115.883 229.072 116.583 225.673 116.583ZM225.673 108.905C228.073 108.905 230.032 108.106 231.551 106.506C233.111 104.867 233.89 102.688 233.89 99.9686C233.89 97.2496 233.111 95.0904 231.551 93.491C230.032 91.8516 228.073 91.0319 225.673 91.0319C223.274 91.0319 221.295 91.8516 219.736 93.491C218.176 95.0904 217.396 97.2496 217.396 99.9686C217.396 102.688 218.176 104.867 219.736 106.506C221.295 108.106 223.274 108.905 225.673 108.905Z" fill="white"/>
<path d="M285.788 74.1182V116.103H277.811L256.878 90.6121V116.103H247.282V74.1182H255.319L276.191 99.6088V74.1182H285.788Z" fill="white"/>
<path d="M305.078 83.3548C310.076 83.3548 313.914 84.5543 316.593 86.9534C319.272 89.3126 320.612 92.8912 320.612 97.6895V116.103H311.855V112.084C310.096 115.083 306.817 116.583 302.019 116.583C299.54 116.583 297.38 116.163 295.541 115.323C293.742 114.483 292.362 113.324 291.403 111.844C290.443 110.365 289.963 108.685 289.963 106.806C289.963 103.807 291.083 101.448 293.322 99.7287C295.601 98.0094 299.1 97.1497 303.818 97.1497H311.255C311.255 95.1104 310.636 93.551 309.396 92.4714C308.156 91.3518 306.297 90.792 303.818 90.792C302.099 90.792 300.399 91.0719 298.72 91.6317C297.081 92.1515 295.681 92.8713 294.521 93.7909L291.163 87.2533C292.922 86.0138 295.021 85.0541 297.46 84.3744C299.939 83.6946 302.479 83.3548 305.078 83.3548ZM304.358 110.285C305.957 110.285 307.377 109.925 308.616 109.205C309.856 108.446 310.735 107.346 311.255 105.906V102.608H304.838C300.999 102.608 299.08 103.867 299.08 106.386C299.08 107.586 299.54 108.545 300.459 109.265C301.419 109.945 302.718 110.285 304.358 110.285Z" fill="white"/>
<path d="M346.893 114.543C345.974 115.223 344.834 115.743 343.475 116.103C342.155 116.423 340.756 116.583 339.276 116.583C335.438 116.583 332.459 115.603 330.34 113.644C328.26 111.684 327.221 108.805 327.221 105.007V91.7517H322.243V84.5543H327.221V76.6972H336.577V84.5543H344.614V91.7517H336.577V104.887C336.577 106.246 336.917 107.306 337.597 108.066C338.317 108.785 339.316 109.145 340.596 109.145C342.075 109.145 343.335 108.745 344.374 107.946L346.893 114.543Z" fill="white"/>
<path d="M381.655 83.8346V116.103H372.778V112.264C371.539 113.664 370.059 114.743 368.34 115.503C366.62 116.223 364.761 116.583 362.762 116.583C358.523 116.583 355.165 115.363 352.685 112.924C350.206 110.485 348.967 106.866 348.967 102.068V83.8346H358.323V100.688C358.323 105.886 360.503 108.485 364.861 108.485C367.1 108.485 368.9 107.766 370.259 106.326C371.618 104.847 372.298 102.668 372.298 99.7887V83.8346H381.655Z" fill="white"/>
<path d="M396.261 88.093C397.38 86.5336 398.88 85.354 400.759 84.5543C402.678 83.7546 404.878 83.3548 407.357 83.3548V91.9916C406.317 91.9116 405.617 91.8716 405.258 91.8716C402.578 91.8716 400.479 92.6313 398.96 94.1508C397.44 95.6302 396.681 97.8694 396.681 100.868V116.103H387.324V83.8346H396.261V88.093Z" fill="white"/>
<path d="M441.237 100.089C441.237 100.209 441.177 101.048 441.057 102.608H416.646C417.086 104.607 418.125 106.186 419.765 107.346C421.404 108.505 423.443 109.085 425.882 109.085C427.562 109.085 429.041 108.845 430.321 108.366C431.64 107.846 432.86 107.046 433.979 105.966L438.958 111.364C435.919 114.843 431.48 116.583 425.642 116.583C422.004 116.583 418.785 115.883 415.986 114.483C413.187 113.044 411.028 111.065 409.508 108.545C407.989 106.026 407.229 103.167 407.229 99.9686C407.229 96.8098 407.969 93.9708 409.448 91.4518C410.968 88.8927 413.027 86.9134 415.626 85.514C418.265 84.0745 421.204 83.3548 424.443 83.3548C427.602 83.3548 430.461 84.0345 433.02 85.394C435.579 86.7535 437.578 88.7128 439.018 91.2718C440.497 93.7909 441.237 96.7298 441.237 100.089ZM424.503 90.4321C422.384 90.4321 420.604 91.0319 419.165 92.2315C417.725 93.431 416.846 95.0704 416.526 97.1497H432.42C432.1 95.1104 431.22 93.491 429.781 92.2915C428.341 91.0519 426.582 90.4321 424.503 90.4321Z" fill="white"/>
<path fill-rule="evenodd" clip-rule="evenodd" d="M95.045 50.7367C93.6194 49.912 91.8617 49.912 90.4361 50.7367C80.3102 56.5942 73.4807 67.5537 73.4807 80.1137C73.4807 81.9039 73.6195 83.6615 73.8867 85.3764C66.9161 83.0092 59.3686 83.8706 53.2039 87.4229C51.7769 88.2452 50.898 89.7674 50.8994 91.4143C50.9067 100.103 55.4203 108.571 63.5039 113.238C67.4696 115.528 71.7981 116.616 76.0677 116.618C75.4181 118.459 75.0647 120.439 75.0647 122.502C75.0647 132.264 82.9782 140.177 92.7399 140.177C102.502 140.177 110.415 132.264 110.415 122.502C110.415 120.435 110.06 118.45 109.408 116.606C113.423 116.479 117.467 115.389 121.191 113.239C129.275 108.571 133.788 100.103 133.795 91.4147C133.797 89.7677 132.918 88.2456 131.491 87.4233C125.569 84.0109 118.371 83.0816 111.635 85.112C111.876 83.481 112 81.812 112 80.1137C112 67.5537 105.171 56.5942 95.045 50.7367ZM82.6851 80.1137C82.6851 71.9576 86.6343 64.7195 92.7405 60.2141C98.8468 64.7195 102.796 71.9576 102.796 80.1137C102.796 88.2699 98.8468 95.508 92.7405 100.013C86.6343 95.508 82.6851 88.2699 82.6851 80.1137ZM110.891 95.3984C115.141 92.9446 120.052 92.6592 124.342 94.2118C123.542 98.7033 120.839 102.813 116.589 105.267C112.339 107.721 107.428 108.007 103.138 106.454C103.938 101.962 106.641 97.8522 110.891 95.3984ZM60.3531 94.2115C64.6429 92.6588 69.5537 92.9442 73.8038 95.398C78.054 97.8519 80.7566 101.962 81.5569 106.454C77.267 108.006 72.3562 107.721 68.1061 105.267C63.856 102.813 61.1533 98.703 60.3531 94.2115ZM84.2691 122.502C84.2691 117.824 88.0616 114.031 92.7399 114.031C97.4182 114.031 101.211 117.824 101.211 122.502C101.211 127.18 97.4182 130.973 92.7399 130.973C88.0616 130.973 84.2691 127.18 84.2691 122.502Z" fill="white"/>
</svg>
