<svg width="444" height="195" viewBox="0 0 444 195" fill="none" xmlns="http://www.w3.org/2000/svg">
<path opacity="0.8" d="M100.513 87.7354H125.293L100.513 50.2634H75.7334L100.513 87.7354Z" fill="white"/>
<path opacity="0.9" d="M75.1352 87.7354H50.3554L75.1352 50.2634H99.915L75.1352 87.7354Z" fill="white"/>
<path opacity="0.6" d="M100.517 125.208L100.517 87.7361L125.296 87.7361L125.296 125.208L100.517 125.208Z" fill="white"/>
<path d="M50.3516 125.208L50.3516 87.7361L75.1314 87.7361L75.1314 125.208L50.3516 125.208Z" fill="white"/>
<path d="M188.65 74.2637V125.256H178.422V103.558H156.579V125.256H146.352V74.2637H156.579V95.2303H178.422V74.2637H188.65Z" fill="white"/>
<path d="M213.766 125.913C209.87 125.913 206.363 125.061 203.246 123.356C200.129 121.603 197.67 119.143 195.868 115.978C194.114 112.812 193.238 109.159 193.238 105.02C193.238 100.88 194.139 97.2271 195.941 94.0614C197.791 90.8957 200.3 88.4606 203.465 86.756C206.631 85.0027 210.162 84.126 214.058 84.126C217.954 84.126 221.485 85.0027 224.651 86.756C227.817 88.4606 230.301 90.8957 232.103 94.0614C233.953 97.2271 234.879 100.88 234.879 105.02C234.879 109.159 233.929 112.812 232.03 115.978C230.179 119.143 227.646 121.603 224.432 123.356C221.266 125.061 217.711 125.913 213.766 125.913ZM213.766 117C215.617 117 217.346 116.562 218.953 115.686C220.609 114.76 221.924 113.396 222.898 111.594C223.872 109.792 224.359 107.601 224.359 105.02C224.359 101.172 223.336 98.2255 221.291 96.18C219.294 94.0858 216.834 93.0386 213.912 93.0386C210.99 93.0386 208.53 94.0858 206.534 96.18C204.585 98.2255 203.611 101.172 203.611 105.02C203.611 108.867 204.561 111.838 206.46 113.932C208.409 115.978 210.844 117 213.766 117Z" fill="white"/>
<path d="M289.72 84.1991C294.688 84.1991 298.682 85.7332 301.701 88.8015C304.769 91.8211 306.304 96.0582 306.304 101.513V125.256H296.076V102.901C296.076 99.7353 295.272 97.3245 293.665 95.6686C292.058 93.964 289.866 93.1117 287.09 93.1117C284.314 93.1117 282.098 93.964 280.442 95.6686C278.835 97.3245 278.032 99.7353 278.032 102.901V125.256H267.804V102.901C267.804 99.7353 267 97.3245 265.393 95.6686C263.786 93.964 261.594 93.1117 258.818 93.1117C255.993 93.1117 253.753 93.964 252.097 95.6686C250.49 97.3245 249.686 99.7353 249.686 102.901V125.256H239.459V84.7835H249.686V89.6781C251.001 87.9735 252.682 86.6342 254.727 85.6602C256.821 84.6861 259.11 84.1991 261.594 84.1991C264.76 84.1991 267.585 84.8809 270.069 86.2446C272.552 87.5596 274.476 89.459 275.84 91.9428C277.155 89.6051 279.054 87.73 281.538 86.3176C284.071 84.9053 286.798 84.1991 289.72 84.1991Z" fill="white"/>
<path d="M350.71 104.143C350.71 105.604 350.612 106.919 350.418 108.088H320.831C321.074 111.01 322.097 113.299 323.899 114.955C325.701 116.611 327.917 117.439 330.547 117.439C334.346 117.439 337.049 115.807 338.656 112.544H349.687C348.518 116.44 346.278 119.655 342.966 122.187C339.654 124.671 335.588 125.913 330.766 125.913C326.87 125.913 323.363 125.061 320.246 123.356C317.178 121.603 314.767 119.143 313.014 115.978C311.309 112.812 310.457 109.159 310.457 105.02C310.457 100.831 311.309 97.154 313.014 93.9884C314.718 90.8227 317.105 88.3875 320.173 86.6829C323.241 84.9783 326.772 84.126 330.766 84.126C334.613 84.126 338.047 84.954 341.067 86.6099C344.135 88.2658 346.497 90.6279 348.153 93.6961C349.858 96.7157 350.71 100.198 350.71 104.143ZM340.117 101.221C340.068 98.5908 339.118 96.4966 337.268 94.9381C335.417 93.3309 333.152 92.5273 330.474 92.5273C327.941 92.5273 325.798 93.3065 324.045 94.865C322.34 96.3748 321.293 98.4934 320.904 101.221H340.117Z" fill="white"/>
<path d="M393.972 84.7835L368.914 144.396H358.029L366.795 124.233L350.577 84.7835H362.047L372.494 113.056L383.087 84.7835H393.972Z" fill="white"/>
</svg>
