<svg width="356" height="122" viewBox="0 0 356 122" fill="none" xmlns="http://www.w3.org/2000/svg">
<path d="M44.0068 79.6636H82.0401V94.5462C82.0401 98.1992 79.0787 101.161 75.4256 101.161H50.6213C46.9682 101.161 44.0068 98.1992 44.0068 94.5462V79.6636Z" fill="white"/>
<path fill-rule="evenodd" clip-rule="evenodd" d="M53.9073 21.272C44.8511 23.1156 36.8713 27.9198 31.0224 34.63C31.0222 34.6298 31.0226 34.6301 31.0224 34.63C24.6914 41.8932 20.8564 51.3891 20.8564 61.781V63.2234C20.8568 63.2227 20.8571 63.2221 20.8574 63.2215V64.7374C20.8574 65.0631 20.8574 65.2259 20.8607 65.3637C21.0077 71.5407 25.9803 76.5132 32.1573 76.6603C32.295 76.6635 32.4579 76.6635 32.7835 76.6635H91.6124C91.938 76.6635 92.1009 76.6635 92.2386 76.6603C98.4156 76.5132 103.388 71.5407 103.535 65.3637C103.538 65.2259 103.538 65.0631 103.538 64.7374V61.781C103.538 38.9492 85.0297 20.4404 62.1979 20.4404C59.3588 20.4404 56.5855 20.7268 53.9073 21.272C53.9073 21.2719 53.9073 21.272 53.9073 21.272ZM53.7021 24.7001C52.4698 31.6769 46.3773 36.9765 39.047 36.9765C37.3161 36.9765 35.6543 36.681 34.1092 36.1378C39.2382 30.5228 46.0284 26.451 53.7021 24.7001ZM74.2085 25.683C75.8144 32.1686 81.6735 36.9765 88.6554 36.9765C89.4138 36.9765 90.1589 36.9198 90.8867 36.8104C86.4702 31.7405 80.7318 27.8524 74.2085 25.683ZM100.121 58.8595C97.501 56.5602 94.0671 55.1663 90.3076 55.1663C82.0882 55.1663 75.4251 61.8294 75.4251 70.0489C75.4251 71.1856 75.5525 72.2926 75.7939 73.3563H91.6124C91.9571 73.3563 92.0714 73.3561 92.1599 73.354C96.572 73.2489 100.124 69.6971 100.229 65.285C100.231 65.1965 100.231 65.0821 100.231 64.7374V61.781C100.231 60.798 100.194 59.8237 100.121 58.8595ZM48.5988 73.3563C48.8402 72.2926 48.9677 71.1856 48.9677 70.0489C48.9677 61.8294 42.3045 55.1663 34.0851 55.1663C30.3272 55.1663 26.8946 56.559 24.2754 58.8565C24.202 59.8217 24.1647 60.797 24.1647 61.781V64.7374C24.1647 65.0821 24.1649 65.1965 24.167 65.285C24.272 69.6971 27.8239 73.2489 32.236 73.354C32.3245 73.3561 32.4388 73.3563 32.7835 73.3563H48.5988ZM77.0798 48.5519C77.0798 56.7713 70.4167 63.4345 62.1972 63.4345C53.9778 63.4345 47.3147 56.7713 47.3147 48.5519C47.3147 40.3325 53.9778 33.6693 62.1972 33.6693C70.4167 33.6693 77.0798 40.3325 77.0798 48.5519Z" fill="white"/>
<path d="M128.254 82.4404V33.731H136.913V82.4404H128.254Z" fill="white"/>
<path d="M158.683 83.2522C155.3 83.2522 152.301 82.5306 149.685 81.0873C147.069 79.6441 145.017 77.6145 143.529 74.9987C142.041 72.3828 141.296 69.361 141.296 65.9333C141.296 62.4605 142.018 59.3711 143.461 56.665C144.95 53.9589 146.979 51.8617 149.55 50.3733C152.166 48.8399 155.233 48.0732 158.751 48.0732C162.043 48.0732 164.952 48.7948 167.478 50.238C170.003 51.6813 171.965 53.6657 173.364 56.1914C174.807 58.672 175.528 61.4457 175.528 64.5126C175.528 65.0087 175.506 65.5274 175.461 66.0686C175.461 66.6098 175.438 67.1736 175.393 67.7599H149.888C150.069 70.3758 150.971 72.4279 152.594 73.9162C154.263 75.4046 156.27 76.1488 158.615 76.1488C160.374 76.1488 161.84 75.7654 163.013 74.9987C164.23 74.1868 165.133 73.1495 165.719 71.8867H174.514C173.882 74.0064 172.822 75.9458 171.334 77.7048C169.891 79.4186 168.087 80.7716 165.922 81.7639C163.802 82.7561 161.389 83.2522 158.683 83.2522ZM158.751 55.109C156.631 55.109 154.759 55.7179 153.136 56.9356C151.512 58.1082 150.475 59.9123 150.024 62.3477H166.734C166.598 60.1378 165.786 58.3788 164.298 57.0709C162.81 55.763 160.961 55.109 158.751 55.109Z" fill="white"/>
<path d="M187.173 82.4404L174.86 48.885H183.926L192.45 74.2545L200.974 48.885H210.039L197.659 82.4404H187.173Z" fill="white"/>
<path d="M226.771 83.2522C223.388 83.2522 220.389 82.5306 217.773 81.0873C215.157 79.6441 213.105 77.6145 211.617 74.9987C210.129 72.3828 209.384 69.361 209.384 65.9333C209.384 62.4605 210.106 59.3711 211.549 56.665C213.038 53.9589 215.067 51.8617 217.638 50.3733C220.254 48.8399 223.321 48.0732 226.839 48.0732C230.131 48.0732 233.04 48.7948 235.566 50.238C238.091 51.6813 240.053 53.6657 241.452 56.1914C242.895 58.672 243.616 61.4457 243.616 64.5126C243.616 65.0087 243.594 65.5274 243.549 66.0686C243.549 66.6098 243.526 67.1736 243.481 67.7599H217.976C218.157 70.3758 219.059 72.4279 220.682 73.9162C222.351 75.4046 224.358 76.1488 226.703 76.1488C228.462 76.1488 229.928 75.7654 231.101 74.9987C232.319 74.1868 233.221 73.1495 233.807 71.8867H242.602C241.97 74.0064 240.91 75.9458 239.422 77.7048C237.979 79.4186 236.175 80.7716 234.01 81.7639C231.89 82.7561 229.477 83.2522 226.771 83.2522ZM226.839 55.109C224.719 55.109 222.847 55.7179 221.224 56.9356C219.6 58.1082 218.563 59.9123 218.112 62.3477H234.822C234.686 60.1378 233.875 58.3788 232.386 57.0709C230.898 55.763 229.049 55.109 226.839 55.109Z" fill="white"/>
<path d="M247.517 82.4404V33.731H256.176V82.4404H247.517Z" fill="white"/>
<path d="M274.225 83.2522C270.031 83.2522 266.784 81.9443 264.483 79.3284C262.228 76.7125 261.101 72.8789 261.101 67.8276V48.885H269.693V67.0157C269.693 69.9022 270.279 72.1122 271.451 73.6456C272.624 75.1791 274.473 75.9458 276.999 75.9458C279.389 75.9458 281.351 75.0889 282.885 73.375C284.463 71.6612 285.252 69.2708 285.252 66.2039V48.885H293.912V82.4404H286.267L285.591 76.7576C284.553 78.7421 283.043 80.3206 281.058 81.4933C279.119 82.6659 276.841 83.2522 274.225 83.2522Z" fill="white"/>
<path d="M299.419 97.3238V48.885H307.131L308.078 53.6883C309.161 52.1999 310.581 50.892 312.34 49.7645C314.144 48.6369 316.467 48.0732 319.308 48.0732C322.465 48.0732 325.284 48.8399 327.765 50.3733C330.245 51.9068 332.207 54.004 333.651 56.665C335.094 59.326 335.815 62.3477 335.815 65.7303C335.815 69.1129 335.094 72.1347 333.651 74.7957C332.207 77.4116 330.245 79.4863 327.765 81.0197C325.284 82.508 322.465 83.2522 319.308 83.2522C316.783 83.2522 314.573 82.7786 312.678 81.8315C310.784 80.8844 309.251 79.5539 308.078 77.8401V97.3238H299.419ZM317.482 75.6752C320.233 75.6752 322.511 74.7506 324.315 72.9015C326.119 71.0523 327.021 68.6619 327.021 65.7303C327.021 62.7988 326.119 60.3858 324.315 58.4916C322.511 56.5973 320.233 55.6502 317.482 55.6502C314.686 55.6502 312.385 56.5973 310.581 58.4916C308.822 60.3407 307.943 62.7311 307.943 65.6627C307.943 68.5943 308.822 71.0072 310.581 72.9015C312.385 74.7506 314.686 75.6752 317.482 75.6752Z" fill="white"/>
</svg>
